M48
; DRILL file {KiCad 9.0.7} date 2026-03-01T20:48:19-0500
; FORMAT={-:-/ absolute / metric / decimal}
; #@! TF.CreationDate,2026-03-01T20:48:19-05:00
; #@! TF.GenerationSoftware,Kicad,Pcbnew,9.0.7
; #@! TF.FileFunction,Plated,1,2,PTH
FMAT,2
METRIC
; #@! TA.AperFunction,Plated,PTH,ViaDrill
T1C0.300
; #@! TA.AperFunction,Plated,PTH,ComponentDrill
T2C0.600
; #@! TA.AperFunction,Plated,PTH,ComponentDrill
T3C1.000
%
G90
G05
T1
X153.4Y-76.0
X155.1Y-70.951
X155.675Y-73.977
X155.83Y-66.8
X156.209Y-69.761
X157.891Y-75.05
X157.95Y-75.848
X157.95Y-76.648
X158.229Y-74.19
X159.05Y-78.86
X159.37Y-56.06
X159.616Y-73.738
X160.343Y-74.07
X161.077Y-73.75
X161.2Y-78.651
X161.773Y-74.143
X161.94Y-76.24
X162.04Y-85.9
X162.55Y-78.448
X163.065Y-73.05
X163.6Y-91.3
X164.405Y-73.85
X165.098Y-74.25
X165.606Y-75.45
X165.895Y-74.312
T3
X151.16Y-48.12
X151.16Y-50.66
X151.16Y-53.2
X151.16Y-55.74
X151.16Y-58.28
X151.16Y-60.82
X151.16Y-63.36
X151.16Y-65.9
X151.16Y-68.44
X151.16Y-70.98
X151.16Y-73.52
X151.16Y-76.06
X151.16Y-78.6
X151.16Y-81.14
X151.16Y-83.68
X151.16Y-86.22
X151.16Y-88.76
X151.16Y-91.3
X151.16Y-93.84
X151.16Y-96.38
X157.51Y-96.14
X160.05Y-96.14
X162.59Y-96.14
X168.94Y-48.12
X168.94Y-50.66
X168.94Y-53.2
X168.94Y-55.74
X168.94Y-58.28
X168.94Y-60.82
X168.94Y-63.36
X168.94Y-65.9
X168.94Y-68.44
X168.94Y-70.98
X168.94Y-73.52
X168.94Y-76.06
X168.94Y-78.6
X168.94Y-81.14
X168.94Y-83.68
X168.94Y-86.22
X168.94Y-88.76
X168.94Y-91.3
X168.94Y-93.84
X168.94Y-96.38
T2
G00X155.73Y-48.5
M15
G01X155.73Y-47.9
M16
G05
G00X155.73Y-52.93
M15
G01X155.73Y-51.83
M16
G05
G00X164.37Y-48.5
M15
G01X164.37Y-47.9
M16
G05
G00X164.37Y-52.93
M15
G01X164.37Y-51.83
M16
G05
M30
