%TF.GenerationSoftware,KiCad,Pcbnew,9.0.7*%
%TF.CreationDate,2026-03-01T20:48:27-05:00*%
%TF.ProjectId,devboard,64657662-6f61-4726-942e-6b696361645f,rev?*%
%TF.SameCoordinates,Original*%
%TF.FileFunction,Paste,Top*%
%TF.FilePolarity,Positive*%
%FSLAX46Y46*%
G04 Gerber Fmt 4.6, Leading zero omitted, Abs format (unit mm)*
G04 Created by KiCad (PCBNEW 9.0.7) date 2026-03-01 20:48:27*
%MOMM*%
%LPD*%
G01*
G04 APERTURE LIST*
G04 Aperture macros list*
%AMRoundRect*
0 Rectangle with rounded corners*
0 $1 Rounding radius*
0 $2 $3 $4 $5 $6 $7 $8 $9 X,Y pos of 4 corners*
0 Add a 4 corners polygon primitive as box body*
4,1,4,$2,$3,$4,$5,$6,$7,$8,$9,$2,$3,0*
0 Add four circle primitives for the rounded corners*
1,1,$1+$1,$2,$3*
1,1,$1+$1,$4,$5*
1,1,$1+$1,$6,$7*
1,1,$1+$1,$8,$9*
0 Add four rect primitives between the rounded corners*
20,1,$1+$1,$2,$3,$4,$5,0*
20,1,$1+$1,$4,$5,$6,$7,0*
20,1,$1+$1,$6,$7,$8,$9,0*
20,1,$1+$1,$8,$9,$2,$3,0*%
G04 Aperture macros list end*
%ADD10RoundRect,0.140000X0.170000X-0.140000X0.170000X0.140000X-0.170000X0.140000X-0.170000X-0.140000X0*%
%ADD11RoundRect,0.140000X-0.140000X-0.170000X0.140000X-0.170000X0.140000X0.170000X-0.140000X0.170000X0*%
%ADD12RoundRect,0.225000X0.225000X0.250000X-0.225000X0.250000X-0.225000X-0.250000X0.225000X-0.250000X0*%
%ADD13RoundRect,0.135000X0.185000X-0.135000X0.185000X0.135000X-0.185000X0.135000X-0.185000X-0.135000X0*%
%ADD14RoundRect,0.135000X-0.185000X0.135000X-0.185000X-0.135000X0.185000X-0.135000X0.185000X0.135000X0*%
%ADD15RoundRect,0.140000X-0.170000X0.140000X-0.170000X-0.140000X0.170000X-0.140000X0.170000X0.140000X0*%
%ADD16RoundRect,0.225000X-0.225000X-0.250000X0.225000X-0.250000X0.225000X0.250000X-0.225000X0.250000X0*%
%ADD17RoundRect,0.040000X-0.040000X-0.605000X0.040000X-0.605000X0.040000X0.605000X-0.040000X0.605000X0*%
%ADD18RoundRect,0.062500X-0.387500X-0.062500X0.387500X-0.062500X0.387500X0.062500X-0.387500X0.062500X0*%
%ADD19RoundRect,0.249999X-0.395001X-0.395001X0.395001X-0.395001X0.395001X0.395001X-0.395001X0.395001X0*%
%ADD20RoundRect,0.050000X-0.387500X-0.050000X0.387500X-0.050000X0.387500X0.050000X-0.387500X0.050000X0*%
%ADD21RoundRect,0.050000X-0.050000X-0.387500X0.050000X-0.387500X0.050000X0.387500X-0.050000X0.387500X0*%
%ADD22RoundRect,0.135000X-0.135000X-0.185000X0.135000X-0.185000X0.135000X0.185000X-0.135000X0.185000X0*%
%ADD23RoundRect,0.150000X0.150000X-0.587500X0.150000X0.587500X-0.150000X0.587500X-0.150000X-0.587500X0*%
%ADD24RoundRect,0.200000X0.200000X0.800000X-0.200000X0.800000X-0.200000X-0.800000X0.200000X-0.800000X0*%
%ADD25RoundRect,0.250000X0.450000X0.350000X-0.450000X0.350000X-0.450000X-0.350000X0.450000X-0.350000X0*%
%ADD26RoundRect,0.140000X0.140000X0.170000X-0.140000X0.170000X-0.140000X-0.170000X0.140000X-0.170000X0*%
%ADD27R,0.600000X1.450000*%
%ADD28R,0.300000X1.450000*%
G04 APERTURE END LIST*
D10*
%TO.C,C6*%
X154750000Y-72750000D03*
X154750000Y-71790000D03*
%TD*%
D11*
%TO.C,C3*%
X160040000Y-69180000D03*
X161000000Y-69180000D03*
%TD*%
D12*
%TO.C,C13*%
X156175000Y-55400000D03*
X154625000Y-55400000D03*
%TD*%
D11*
%TO.C,C1*%
X160040000Y-68190000D03*
X161000000Y-68190000D03*
%TD*%
D13*
%TO.C,R5*%
X160180000Y-81900000D03*
X160180000Y-80880000D03*
%TD*%
D14*
%TO.C,R6*%
X154510000Y-66010000D03*
X154510000Y-67030000D03*
%TD*%
D15*
%TO.C,C8*%
X162200000Y-81820000D03*
X162200000Y-82780000D03*
%TD*%
D10*
%TO.C,C15*%
X156800000Y-85480000D03*
X156800000Y-84520000D03*
%TD*%
D16*
%TO.C,C14*%
X158625000Y-60300000D03*
X160175000Y-60300000D03*
%TD*%
D11*
%TO.C,C17*%
X157065000Y-66900000D03*
X158025000Y-66900000D03*
%TD*%
D17*
%TO.C,U3*%
X156775000Y-68650000D03*
D18*
X155350000Y-67900000D03*
X155350000Y-68400000D03*
X155350000Y-68900000D03*
X155350000Y-69400000D03*
X158200000Y-69400000D03*
X158200000Y-68900000D03*
X158200000Y-68400000D03*
X158200000Y-67900000D03*
%TD*%
D19*
%TO.C,U1*%
X159250000Y-75450000D03*
X159250000Y-77050000D03*
X160850000Y-75450000D03*
X160850000Y-77050000D03*
D20*
X156612500Y-73650000D03*
X156612500Y-74050000D03*
X156612500Y-74450000D03*
X156612500Y-74850000D03*
X156612500Y-75250000D03*
X156612500Y-75650000D03*
X156612500Y-76050000D03*
X156612500Y-76450000D03*
X156612500Y-76850000D03*
X156612500Y-77250000D03*
X156612500Y-77650000D03*
X156612500Y-78050000D03*
X156612500Y-78450000D03*
X156612500Y-78850000D03*
D21*
X157450000Y-79687500D03*
X157850000Y-79687500D03*
X158250000Y-79687500D03*
X158650000Y-79687500D03*
X159050000Y-79687500D03*
X159450000Y-79687500D03*
X159850000Y-79687500D03*
X160250000Y-79687500D03*
X160650000Y-79687500D03*
X161050000Y-79687500D03*
X161450000Y-79687500D03*
X161850000Y-79687500D03*
X162250000Y-79687500D03*
X162650000Y-79687500D03*
D20*
X163487500Y-78850000D03*
X163487500Y-78450000D03*
X163487500Y-78050000D03*
X163487500Y-77650000D03*
X163487500Y-77250000D03*
X163487500Y-76850000D03*
X163487500Y-76450000D03*
X163487500Y-76050000D03*
X163487500Y-75650000D03*
X163487500Y-75250000D03*
X163487500Y-74850000D03*
X163487500Y-74450000D03*
X163487500Y-74050000D03*
X163487500Y-73650000D03*
D21*
X162650000Y-72812500D03*
X162250000Y-72812500D03*
X161850000Y-72812500D03*
X161450000Y-72812500D03*
X161050000Y-72812500D03*
X160650000Y-72812500D03*
X160250000Y-72812500D03*
X159850000Y-72812500D03*
X159450000Y-72812500D03*
X159050000Y-72812500D03*
X158650000Y-72812500D03*
X158250000Y-72812500D03*
X157850000Y-72812500D03*
X157450000Y-72812500D03*
%TD*%
D11*
%TO.C,C4*%
X166700000Y-77500000D03*
X165740000Y-77500000D03*
%TD*%
%TO.C,C2*%
X164320000Y-72750000D03*
X165280000Y-72750000D03*
%TD*%
%TO.C,C12*%
X162740000Y-70600000D03*
X163700000Y-70600000D03*
%TD*%
D14*
%TO.C,R7*%
X155750000Y-71760000D03*
X155750000Y-72780000D03*
%TD*%
D11*
%TO.C,C7*%
X164620000Y-71750000D03*
X165580000Y-71750000D03*
%TD*%
%TO.C,C11*%
X162740000Y-69610000D03*
X163700000Y-69610000D03*
%TD*%
D22*
%TO.C,R1*%
X161730000Y-55070000D03*
X162750000Y-55070000D03*
%TD*%
D23*
%TO.C,U2*%
X156550000Y-58437500D03*
X158450000Y-58437500D03*
X157500000Y-56562500D03*
%TD*%
D14*
%TO.C,R4*%
X160750000Y-70530000D03*
X160750000Y-71550000D03*
%TD*%
D15*
%TO.C,C9*%
X161200000Y-80920000D03*
X161200000Y-81880000D03*
%TD*%
D24*
%TO.C,SW1*%
X158880000Y-63790000D03*
X154680000Y-63790000D03*
%TD*%
D22*
%TO.C,R2*%
X158440000Y-55050000D03*
X159460000Y-55050000D03*
%TD*%
D14*
%TO.C,R3*%
X161750000Y-70530000D03*
X161750000Y-71550000D03*
%TD*%
D11*
%TO.C,C10*%
X162740000Y-71590000D03*
X163700000Y-71590000D03*
%TD*%
D25*
%TO.C,Y1*%
X160550000Y-83320000D03*
X158350000Y-83320000D03*
X158350000Y-85020000D03*
X160550000Y-85020000D03*
%TD*%
D26*
%TO.C,C5*%
X154950000Y-77150000D03*
X153990000Y-77150000D03*
%TD*%
D27*
%TO.C,J1*%
X163300000Y-53295000D03*
X162500000Y-53295000D03*
D28*
X161300000Y-53295000D03*
X160300000Y-53295000D03*
X159800000Y-53295000D03*
X158800000Y-53295000D03*
D27*
X157600000Y-53295000D03*
X156800000Y-53295000D03*
X156800000Y-53295000D03*
X157600000Y-53295000D03*
D28*
X158300000Y-53295000D03*
X159300000Y-53295000D03*
X160800000Y-53295000D03*
X161800000Y-53295000D03*
D27*
X162500000Y-53295000D03*
X163300000Y-53295000D03*
%TD*%
D15*
%TO.C,C16*%
X162070000Y-83690000D03*
X162070000Y-84650000D03*
%TD*%
M02*
