%TF.GenerationSoftware,KiCad,Pcbnew,9.0.7*%
%TF.CreationDate,2026-03-01T20:48:27-05:00*%
%TF.ProjectId,devboard,64657662-6f61-4726-942e-6b696361645f,rev?*%
%TF.SameCoordinates,Original*%
%TF.FileFunction,Copper,L2,Bot*%
%TF.FilePolarity,Positive*%
%FSLAX46Y46*%
G04 Gerber Fmt 4.6, Leading zero omitted, Abs format (unit mm)*
G04 Created by KiCad (PCBNEW 9.0.7) date 2026-03-01 20:48:27*
%MOMM*%
%LPD*%
G01*
G04 APERTURE LIST*
%TA.AperFunction,ComponentPad*%
%ADD10R,1.700000X1.700000*%
%TD*%
%TA.AperFunction,ComponentPad*%
%ADD11C,1.700000*%
%TD*%
%TA.AperFunction,HeatsinkPad*%
%ADD12O,1.000000X2.100000*%
%TD*%
%TA.AperFunction,HeatsinkPad*%
%ADD13O,1.000000X1.600000*%
%TD*%
%TA.AperFunction,ViaPad*%
%ADD14C,0.600000*%
%TD*%
%TA.AperFunction,Conductor*%
%ADD15C,0.200000*%
%TD*%
G04 APERTURE END LIST*
D10*
%TO.P,J2,1,Pin_1*%
%TO.N,GPIO0*%
X151160000Y-48120000D03*
D11*
%TO.P,J2,2,Pin_2*%
%TO.N,GPIO1*%
X151160000Y-50660000D03*
%TO.P,J2,3,Pin_3*%
%TO.N,GND*%
X151160000Y-53200000D03*
%TO.P,J2,4,Pin_4*%
%TO.N,GPIO2*%
X151160000Y-55740000D03*
%TO.P,J2,5,Pin_5*%
%TO.N,GPIO3*%
X151160000Y-58280000D03*
%TO.P,J2,6,Pin_6*%
%TO.N,GPIO4*%
X151160000Y-60820000D03*
%TO.P,J2,7,Pin_7*%
%TO.N,GPIO5*%
X151160000Y-63360000D03*
%TO.P,J2,8,Pin_8*%
%TO.N,GND*%
X151160000Y-65900000D03*
%TO.P,J2,9,Pin_9*%
%TO.N,GPIO6*%
X151160000Y-68440000D03*
%TO.P,J2,10,Pin_10*%
%TO.N,GPIO7*%
X151160000Y-70980000D03*
%TO.P,J2,11,Pin_11*%
%TO.N,GPIO8*%
X151160000Y-73520000D03*
%TO.P,J2,12,Pin_12*%
%TO.N,GPIO9*%
X151160000Y-76060000D03*
%TO.P,J2,13,Pin_13*%
%TO.N,GND*%
X151160000Y-78600000D03*
%TO.P,J2,14,Pin_14*%
%TO.N,GPIO10*%
X151160000Y-81140000D03*
%TO.P,J2,15,Pin_15*%
%TO.N,GPIO11*%
X151160000Y-83680000D03*
%TO.P,J2,16,Pin_16*%
%TO.N,GPIO12*%
X151160000Y-86220000D03*
%TO.P,J2,17,Pin_17*%
%TO.N,GPIO13*%
X151160000Y-88760000D03*
%TO.P,J2,18,Pin_18*%
%TO.N,GND*%
X151160000Y-91300000D03*
%TO.P,J2,19,Pin_19*%
%TO.N,GPIO14*%
X151160000Y-93840000D03*
%TO.P,J2,20,Pin_20*%
%TO.N,GPIO15*%
X151160000Y-96380000D03*
%TD*%
D10*
%TO.P,J4,1,Pin_1*%
%TO.N,SWDI0*%
X157510000Y-96140000D03*
D11*
%TO.P,J4,2,Pin_2*%
%TO.N,GND*%
X160050000Y-96140000D03*
%TO.P,J4,3,Pin_3*%
%TO.N,SWCLK*%
X162590000Y-96140000D03*
%TD*%
D10*
%TO.P,J3,1,Pin_1*%
%TO.N,GPIO16*%
X168940000Y-96380000D03*
D11*
%TO.P,J3,2,Pin_2*%
%TO.N,GPIO17*%
X168940000Y-93840000D03*
%TO.P,J3,3,Pin_3*%
%TO.N,GND*%
X168940000Y-91300000D03*
%TO.P,J3,4,Pin_4*%
%TO.N,GPIO18*%
X168940000Y-88760000D03*
%TO.P,J3,5,Pin_5*%
%TO.N,GPIO19*%
X168940000Y-86220000D03*
%TO.P,J3,6,Pin_6*%
%TO.N,GPIO20*%
X168940000Y-83680000D03*
%TO.P,J3,7,Pin_7*%
%TO.N,GPIO21*%
X168940000Y-81140000D03*
%TO.P,J3,8,Pin_8*%
%TO.N,GND*%
X168940000Y-78600000D03*
%TO.P,J3,9,Pin_9*%
%TO.N,GPIO22*%
X168940000Y-76060000D03*
%TO.P,J3,10,Pin_10*%
%TO.N,RUN*%
X168940000Y-73520000D03*
%TO.P,J3,11,Pin_11*%
%TO.N,GPIO23*%
X168940000Y-70980000D03*
%TO.P,J3,12,Pin_12*%
%TO.N,GPIO24*%
X168940000Y-68440000D03*
%TO.P,J3,13,Pin_13*%
%TO.N,GND*%
X168940000Y-65900000D03*
%TO.P,J3,14,Pin_14*%
%TO.N,GPIO26_ADC0*%
X168940000Y-63360000D03*
%TO.P,J3,15,Pin_15*%
%TO.N,GPIO27_ADC1*%
X168940000Y-60820000D03*
%TO.P,J3,16,Pin_16*%
%TO.N,GND*%
X168940000Y-58280000D03*
%TO.P,J3,17,Pin_17*%
%TO.N,GPIO28_ADC2*%
X168940000Y-55740000D03*
%TO.P,J3,18,Pin_18*%
%TO.N,GND*%
X168940000Y-53200000D03*
%TO.P,J3,19,Pin_19*%
%TO.N,GPIO29_ADC3*%
X168940000Y-50660000D03*
%TO.P,J3,20,Pin_20*%
%TO.N,VBUS*%
X168940000Y-48120000D03*
%TD*%
D12*
%TO.P,J1,S1,SHIELD*%
%TO.N,GND*%
X164370000Y-52380000D03*
D13*
X164370000Y-48200000D03*
D12*
X155730000Y-52380000D03*
D13*
X155730000Y-48200000D03*
%TD*%
D14*
%TO.N,SWCLK*%
X163600000Y-91300000D03*
%TO.N,GND*%
X153400000Y-76000000D03*
X155100000Y-70951000D03*
X162040000Y-85900000D03*
%TO.N,SWCLK*%
X161200000Y-78651000D03*
%TO.N,+3V3*%
X155675329Y-73976924D03*
X160343387Y-74069885D03*
X161773194Y-74143490D03*
X157949998Y-76647911D03*
%TO.N,GND*%
X155830000Y-66800000D03*
X161940000Y-76240000D03*
X159370000Y-56060000D03*
X159050000Y-78860000D03*
X156209265Y-69760735D03*
%TO.N,+1V1*%
X163064745Y-73050000D03*
X161076653Y-73750000D03*
%TO.N,GPIO1*%
X158228947Y-74190000D03*
%TO.N,GPIO2*%
X157890727Y-75050000D03*
%TO.N,GPIO4*%
X157949998Y-75847908D03*
%TO.N,GPIO0*%
X159615574Y-73737787D03*
%TO.N,GPIO28_ADC2*%
X165097593Y-74250000D03*
%TO.N,GPIO29_ADC3*%
X164404771Y-73850001D03*
%TO.N,GPIO26_ADC0*%
X165605735Y-75450000D03*
%TO.N,GPIO27_ADC1*%
X165895185Y-74312020D03*
%TO.N,RUN*%
X162550000Y-78448254D03*
%TD*%
D15*
%TO.N,SWCLK*%
X161200000Y-88900000D02*
X163600000Y-91300000D01*
X161200000Y-78651000D02*
X161200000Y-88900000D01*
%TO.N,+3V3*%
X160343387Y-74069885D02*
X160624502Y-74351000D01*
X155675329Y-74423182D02*
X157900058Y-76647911D01*
X155675329Y-73976924D02*
X155675329Y-74423182D01*
X157900058Y-76647911D02*
X157949998Y-76647911D01*
X161565684Y-74351000D02*
X161773194Y-74143490D01*
X160624502Y-74351000D02*
X161565684Y-74351000D01*
%TO.N,+1V1*%
X161160000Y-73750000D02*
X161860000Y-73050000D01*
X161860000Y-73050000D02*
X163064745Y-73050000D01*
X161076653Y-73750000D02*
X161160000Y-73750000D01*
%TO.N,GPIO1*%
X159169000Y-66736100D02*
X159169000Y-73249947D01*
X154528000Y-54028000D02*
X154528000Y-62070000D01*
X151160000Y-50660000D02*
X154528000Y-54028000D01*
X154528000Y-62070000D02*
X154528000Y-62095100D01*
X154528000Y-62095100D02*
X159169000Y-66736100D01*
X159169000Y-73249947D02*
X158228947Y-74190000D01*
%TO.N,GPIO2*%
X157627947Y-66720847D02*
X157627947Y-74787220D01*
X152311000Y-61403900D02*
X157627947Y-66720847D01*
X157627947Y-74787220D02*
X157890727Y-75050000D01*
X151160000Y-55740000D02*
X152311000Y-56891000D01*
X152311000Y-56891000D02*
X152311000Y-61403900D01*
%TO.N,GPIO4*%
X157204273Y-66864273D02*
X157204273Y-75212073D01*
X157840108Y-75847908D02*
X157949998Y-75847908D01*
X151160000Y-60820000D02*
X157204273Y-66864273D01*
X157204273Y-75212073D02*
X157840108Y-75847908D01*
%TO.N,GPIO0*%
X151160000Y-48120000D02*
X154929000Y-51889000D01*
X154929000Y-61929000D02*
X159570000Y-66570000D01*
X159570000Y-73692213D02*
X159615574Y-73737787D01*
X159570000Y-66570000D02*
X159570000Y-73692213D01*
X154929000Y-51889000D02*
X154929000Y-61929000D01*
%TO.N,GPIO28_ADC2*%
X165097593Y-59582407D02*
X165097593Y-74250000D01*
X168940000Y-55740000D02*
X165097593Y-59582407D01*
%TO.N,GPIO29_ADC3*%
X164404771Y-55195229D02*
X168940000Y-50660000D01*
X164404771Y-73850001D02*
X164404771Y-55195229D01*
%TO.N,GPIO26_ADC0*%
X167789000Y-64511000D02*
X167789000Y-73266735D01*
X167789000Y-73266735D02*
X165605735Y-75450000D01*
X168940000Y-63360000D02*
X167789000Y-64511000D01*
%TO.N,GPIO27_ADC1*%
X166176615Y-74312020D02*
X165895185Y-74312020D01*
X167388000Y-62372000D02*
X167388000Y-73100635D01*
X168940000Y-60820000D02*
X167388000Y-62372000D01*
X167388000Y-73100635D02*
X166176615Y-74312020D01*
%TO.N,RUN*%
X162718254Y-78280000D02*
X164180000Y-78280000D01*
X162550000Y-78448254D02*
X162718254Y-78280000D01*
X164180000Y-78280000D02*
X168940000Y-73520000D01*
%TD*%
%TA.AperFunction,Conductor*%
%TO.N,GND*%
G36*
X152715703Y-63225384D02*
G01*
X152722181Y-63231416D01*
X156567454Y-67076689D01*
X156600939Y-67138012D01*
X156603773Y-67164370D01*
X156603773Y-73516802D01*
X156584088Y-73583841D01*
X156531284Y-73629596D01*
X156462126Y-73639540D01*
X156398570Y-73610515D01*
X156376671Y-73585693D01*
X156297118Y-73466635D01*
X156297115Y-73466631D01*
X156185621Y-73355137D01*
X156185617Y-73355134D01*
X156054514Y-73267533D01*
X156054501Y-73267526D01*
X155908830Y-73207188D01*
X155908818Y-73207185D01*
X155754174Y-73176424D01*
X155754171Y-73176424D01*
X155596487Y-73176424D01*
X155596484Y-73176424D01*
X155441839Y-73207185D01*
X155441827Y-73207188D01*
X155296156Y-73267526D01*
X155296143Y-73267533D01*
X155165040Y-73355134D01*
X155165036Y-73355137D01*
X155053542Y-73466631D01*
X155053539Y-73466635D01*
X154965938Y-73597738D01*
X154965931Y-73597751D01*
X154905593Y-73743422D01*
X154905590Y-73743434D01*
X154874829Y-73898077D01*
X154874829Y-74055770D01*
X154905590Y-74210413D01*
X154905593Y-74210425D01*
X154965931Y-74356096D01*
X154965938Y-74356109D01*
X155053539Y-74487212D01*
X155053542Y-74487216D01*
X155053625Y-74487299D01*
X155053673Y-74487375D01*
X155057405Y-74491923D01*
X155056826Y-74492397D01*
X155060053Y-74497537D01*
X155066755Y-74502778D01*
X155077155Y-74524774D01*
X155083013Y-74534104D01*
X155084532Y-74538454D01*
X155115752Y-74654967D01*
X155133853Y-74686318D01*
X155187523Y-74779279D01*
X155194808Y-74791896D01*
X155194810Y-74791899D01*
X155313678Y-74910767D01*
X155313684Y-74910772D01*
X157127824Y-76724912D01*
X157161309Y-76786235D01*
X157161760Y-76788401D01*
X157180259Y-76881402D01*
X157180262Y-76881412D01*
X157240600Y-77027083D01*
X157240607Y-77027096D01*
X157328208Y-77158199D01*
X157328211Y-77158203D01*
X157439705Y-77269697D01*
X157439709Y-77269700D01*
X157570812Y-77357301D01*
X157570825Y-77357308D01*
X157699244Y-77410500D01*
X157716501Y-77417648D01*
X157871151Y-77448410D01*
X157871154Y-77448411D01*
X157871156Y-77448411D01*
X158028842Y-77448411D01*
X158028843Y-77448410D01*
X158183495Y-77417648D01*
X158329177Y-77357305D01*
X158460287Y-77269700D01*
X158571787Y-77158200D01*
X158659392Y-77027090D01*
X158719735Y-76881408D01*
X158750498Y-76726753D01*
X158750498Y-76569069D01*
X158750498Y-76569066D01*
X158750497Y-76569064D01*
X158719736Y-76414421D01*
X158719735Y-76414414D01*
X158670421Y-76295360D01*
X158662953Y-76225892D01*
X158670419Y-76200462D01*
X158719735Y-76081405D01*
X158750498Y-75926750D01*
X158750498Y-75769066D01*
X158750498Y-75769063D01*
X158750497Y-75769061D01*
X158733477Y-75683497D01*
X158719735Y-75614411D01*
X158684293Y-75528846D01*
X158659394Y-75468733D01*
X158659393Y-75468731D01*
X158649512Y-75453943D01*
X158628634Y-75387265D01*
X158638054Y-75337598D01*
X158660464Y-75283497D01*
X158691227Y-75128842D01*
X158691227Y-74971158D01*
X158690815Y-74969088D01*
X158685042Y-74940065D01*
X158691269Y-74870473D01*
X158734131Y-74815295D01*
X158737774Y-74812766D01*
X158738042Y-74812586D01*
X158739236Y-74811789D01*
X158850736Y-74700289D01*
X158938341Y-74569179D01*
X158938342Y-74569176D01*
X158938344Y-74569173D01*
X158975545Y-74479358D01*
X158984708Y-74457237D01*
X159028548Y-74402834D01*
X159094842Y-74380769D01*
X159162542Y-74398048D01*
X159168160Y-74401588D01*
X159236388Y-74447177D01*
X159236401Y-74447184D01*
X159380725Y-74506964D01*
X159382077Y-74507524D01*
X159515703Y-74534104D01*
X159536727Y-74538286D01*
X159536730Y-74538287D01*
X159536732Y-74538287D01*
X159628574Y-74538287D01*
X159695613Y-74557972D01*
X159716548Y-74576608D01*
X159717290Y-74575867D01*
X159833094Y-74691671D01*
X159833098Y-74691674D01*
X159964201Y-74779275D01*
X159964214Y-74779282D01*
X160109885Y-74839620D01*
X160109890Y-74839622D01*
X160264540Y-74870384D01*
X160264543Y-74870385D01*
X160264545Y-74870385D01*
X160289878Y-74870385D01*
X160351877Y-74886997D01*
X160392718Y-74910577D01*
X160545445Y-74951501D01*
X160545447Y-74951501D01*
X160711156Y-74951501D01*
X160711172Y-74951500D01*
X161486623Y-74951500D01*
X161486627Y-74951501D01*
X161644741Y-74951501D01*
X161670599Y-74944571D01*
X161684665Y-74944069D01*
X161685968Y-74944401D01*
X161689095Y-74943990D01*
X161852038Y-74943990D01*
X161852039Y-74943989D01*
X162006691Y-74913227D01*
X162131700Y-74861447D01*
X162152366Y-74852887D01*
X162152366Y-74852886D01*
X162152373Y-74852884D01*
X162283483Y-74765279D01*
X162394983Y-74653779D01*
X162482588Y-74522669D01*
X162542931Y-74376987D01*
X162573694Y-74222332D01*
X162573694Y-74064648D01*
X162573694Y-74064645D01*
X162573693Y-74064643D01*
X162542737Y-73909015D01*
X162548964Y-73839424D01*
X162591827Y-73784246D01*
X162657717Y-73761002D01*
X162711805Y-73770262D01*
X162831248Y-73819737D01*
X162930221Y-73839424D01*
X162985898Y-73850499D01*
X162985901Y-73850500D01*
X162985903Y-73850500D01*
X163143589Y-73850500D01*
X163143590Y-73850499D01*
X163298242Y-73819737D01*
X163417684Y-73770263D01*
X163432819Y-73763994D01*
X163502288Y-73756525D01*
X163564767Y-73787800D01*
X163600419Y-73847889D01*
X163604271Y-73878555D01*
X163604271Y-73928847D01*
X163635032Y-74083490D01*
X163635035Y-74083502D01*
X163695373Y-74229173D01*
X163695380Y-74229186D01*
X163782981Y-74360289D01*
X163782984Y-74360293D01*
X163894478Y-74471787D01*
X163894482Y-74471790D01*
X164025585Y-74559391D01*
X164025598Y-74559398D01*
X164149966Y-74610912D01*
X164171274Y-74619738D01*
X164325924Y-74650500D01*
X164325927Y-74650501D01*
X164325929Y-74650501D01*
X164336167Y-74650501D01*
X164403206Y-74670186D01*
X164439268Y-74705609D01*
X164447919Y-74718556D01*
X164475805Y-74760291D01*
X164587300Y-74871786D01*
X164587304Y-74871789D01*
X164718407Y-74959390D01*
X164718414Y-74959394D01*
X164795120Y-74991166D01*
X164849521Y-75035004D01*
X164871587Y-75101298D01*
X164862228Y-75153177D01*
X164835998Y-75216503D01*
X164835997Y-75216506D01*
X164835997Y-75216507D01*
X164835996Y-75216510D01*
X164805235Y-75371153D01*
X164805235Y-75528846D01*
X164835996Y-75683489D01*
X164835999Y-75683501D01*
X164896337Y-75829172D01*
X164896344Y-75829185D01*
X164983945Y-75960288D01*
X164983948Y-75960292D01*
X165095442Y-76071786D01*
X165095446Y-76071789D01*
X165231621Y-76162779D01*
X165230807Y-76163996D01*
X165275450Y-76207846D01*
X165290913Y-76275983D01*
X165267084Y-76341664D01*
X165254836Y-76355927D01*
X163967584Y-77643181D01*
X163906261Y-77676666D01*
X163879903Y-77679500D01*
X162800653Y-77679500D01*
X162776462Y-77677117D01*
X162628845Y-77647754D01*
X162628842Y-77647754D01*
X162471158Y-77647754D01*
X162471155Y-77647754D01*
X162316510Y-77678515D01*
X162316498Y-77678518D01*
X162170827Y-77738856D01*
X162170814Y-77738863D01*
X162039711Y-77826464D01*
X162039707Y-77826467D01*
X161928213Y-77937961D01*
X161928210Y-77937965D01*
X161887665Y-77998645D01*
X161834052Y-78043450D01*
X161764727Y-78052157D01*
X161716751Y-78030504D01*
X161715354Y-78032595D01*
X161579185Y-77941609D01*
X161579172Y-77941602D01*
X161433501Y-77881264D01*
X161433489Y-77881261D01*
X161278845Y-77850500D01*
X161278842Y-77850500D01*
X161121158Y-77850500D01*
X161121155Y-77850500D01*
X160966510Y-77881261D01*
X160966498Y-77881264D01*
X160820827Y-77941602D01*
X160820814Y-77941609D01*
X160689711Y-78029210D01*
X160689707Y-78029213D01*
X160578213Y-78140707D01*
X160578210Y-78140711D01*
X160490609Y-78271814D01*
X160490602Y-78271827D01*
X160430264Y-78417498D01*
X160430261Y-78417510D01*
X160399500Y-78572153D01*
X160399500Y-78729846D01*
X160430261Y-78884489D01*
X160430264Y-78884501D01*
X160490602Y-79030172D01*
X160490609Y-79030185D01*
X160569595Y-79148395D01*
X160575775Y-79157644D01*
X160578602Y-79161874D01*
X160599480Y-79228551D01*
X160599500Y-79230765D01*
X160599500Y-88813330D01*
X160599499Y-88813348D01*
X160599499Y-88979054D01*
X160599498Y-88979054D01*
X160640423Y-89131785D01*
X160669358Y-89181900D01*
X160669359Y-89181904D01*
X160669360Y-89181904D01*
X160719479Y-89268714D01*
X160719481Y-89268717D01*
X160838349Y-89387585D01*
X160838355Y-89387590D01*
X162765425Y-91314660D01*
X162798910Y-91375983D01*
X162799361Y-91378149D01*
X162830261Y-91533491D01*
X162830264Y-91533501D01*
X162890602Y-91679172D01*
X162890609Y-91679185D01*
X162978210Y-91810288D01*
X162978213Y-91810292D01*
X163089707Y-91921786D01*
X163089711Y-91921789D01*
X163220814Y-92009390D01*
X163220827Y-92009397D01*
X163366498Y-92069735D01*
X163366503Y-92069737D01*
X163521153Y-92100499D01*
X163521156Y-92100500D01*
X163521158Y-92100500D01*
X163678844Y-92100500D01*
X163678845Y-92100499D01*
X163833497Y-92069737D01*
X163979179Y-92009394D01*
X164110289Y-91921789D01*
X164221789Y-91810289D01*
X164309394Y-91679179D01*
X164369737Y-91533497D01*
X164400500Y-91378842D01*
X164400500Y-91221158D01*
X164369737Y-91066503D01*
X164354910Y-91030706D01*
X164309397Y-90920827D01*
X164309390Y-90920814D01*
X164221789Y-90789711D01*
X164221786Y-90789707D01*
X164110292Y-90678213D01*
X164110288Y-90678210D01*
X163979185Y-90590609D01*
X163979172Y-90590602D01*
X163833501Y-90530264D01*
X163833491Y-90530261D01*
X163678151Y-90499362D01*
X163616241Y-90466977D01*
X163614662Y-90465426D01*
X161836819Y-88687583D01*
X161803334Y-88626260D01*
X161800500Y-88599902D01*
X161800500Y-79230765D01*
X161805827Y-79212620D01*
X161806165Y-79193713D01*
X161819666Y-79165492D01*
X161820185Y-79163726D01*
X161821397Y-79161875D01*
X161821789Y-79161289D01*
X161862335Y-79100606D01*
X161915945Y-79055804D01*
X161985270Y-79047096D01*
X162033243Y-79068757D01*
X162034646Y-79066659D01*
X162170814Y-79157644D01*
X162170827Y-79157651D01*
X162257890Y-79193713D01*
X162316503Y-79217991D01*
X162471153Y-79248753D01*
X162471156Y-79248754D01*
X162471158Y-79248754D01*
X162628844Y-79248754D01*
X162628845Y-79248753D01*
X162783497Y-79217991D01*
X162918974Y-79161875D01*
X162929172Y-79157651D01*
X162929172Y-79157650D01*
X162929179Y-79157648D01*
X163060289Y-79070043D01*
X163171789Y-78958543D01*
X163187112Y-78935609D01*
X163240724Y-78890805D01*
X163290215Y-78880500D01*
X164093331Y-78880500D01*
X164093347Y-78880501D01*
X164100943Y-78880501D01*
X164259054Y-78880501D01*
X164259057Y-78880501D01*
X164411785Y-78839577D01*
X164461904Y-78810639D01*
X164548716Y-78760520D01*
X164660520Y-78648716D01*
X164660520Y-78648714D01*
X164670728Y-78638507D01*
X164670729Y-78638504D01*
X167377821Y-75931413D01*
X167439142Y-75897930D01*
X167508834Y-75902914D01*
X167564767Y-75944786D01*
X167589184Y-76010250D01*
X167589500Y-76019096D01*
X167589500Y-76166286D01*
X167609943Y-76295362D01*
X167622754Y-76376243D01*
X167685407Y-76569069D01*
X167688444Y-76578414D01*
X167784951Y-76767820D01*
X167909890Y-76939786D01*
X168060213Y-77090109D01*
X168232179Y-77215048D01*
X168232181Y-77215049D01*
X168232184Y-77215051D01*
X168421588Y-77311557D01*
X168450753Y-77321033D01*
X168508426Y-77360468D01*
X168535625Y-77424826D01*
X168523712Y-77493673D01*
X168476469Y-77545149D01*
X168468730Y-77549447D01*
X168337269Y-77616431D01*
X168321466Y-77627912D01*
X168321466Y-77627913D01*
X168810591Y-78117037D01*
X168747007Y-78134075D01*
X168632993Y-78199901D01*
X168539901Y-78292993D01*
X168474075Y-78407007D01*
X168457037Y-78470590D01*
X167967913Y-77981466D01*
X167967912Y-77981466D01*
X167956432Y-77997269D01*
X167874254Y-78158547D01*
X167874251Y-78158555D01*
X167818317Y-78330706D01*
X167790000Y-78509493D01*
X167790000Y-78690506D01*
X167818317Y-78869293D01*
X167874251Y-79041444D01*
X167874252Y-79041447D01*
X167956431Y-79202730D01*
X167967913Y-79218532D01*
X167967913Y-79218533D01*
X168457037Y-78729409D01*
X168474075Y-78792993D01*
X168539901Y-78907007D01*
X168632993Y-79000099D01*
X168747007Y-79065925D01*
X168810590Y-79082962D01*
X168321466Y-79572085D01*
X168321466Y-79572086D01*
X168337267Y-79583566D01*
X168337275Y-79583571D01*
X168468729Y-79650551D01*
X168519525Y-79698526D01*
X168536320Y-79766347D01*
X168513782Y-79832482D01*
X168459067Y-79875933D01*
X168450761Y-79878964D01*
X168440716Y-79882227D01*
X168421583Y-79888444D01*
X168232179Y-79984951D01*
X168060213Y-80109890D01*
X167909890Y-80260213D01*
X167784951Y-80432179D01*
X167688444Y-80621585D01*
X167622753Y-80823760D01*
X167589500Y-81033713D01*
X167589500Y-81246286D01*
X167622753Y-81456239D01*
X167688444Y-81658414D01*
X167784951Y-81847820D01*
X167909890Y-82019786D01*
X168060213Y-82170109D01*
X168232182Y-82295050D01*
X168240946Y-82299516D01*
X168291742Y-82347491D01*
X168308536Y-82415312D01*
X168285998Y-82481447D01*
X168240946Y-82520484D01*
X168232182Y-82524949D01*
X168060213Y-82649890D01*
X167909890Y-82800213D01*
X167784951Y-82972179D01*
X167688444Y-83161585D01*
X167622753Y-83363760D01*
X167589500Y-83573713D01*
X167589500Y-83786286D01*
X167622753Y-83996239D01*
X167688444Y-84198414D01*
X167784951Y-84387820D01*
X167909890Y-84559786D01*
X168060213Y-84710109D01*
X168232182Y-84835050D01*
X168240946Y-84839516D01*
X168291742Y-84887491D01*
X168308536Y-84955312D01*
X168285998Y-85021447D01*
X168240946Y-85060484D01*
X168232182Y-85064949D01*
X168060213Y-85189890D01*
X167909890Y-85340213D01*
X167784951Y-85512179D01*
X167688444Y-85701585D01*
X167622753Y-85903760D01*
X167589500Y-86113713D01*
X167589500Y-86326286D01*
X167622753Y-86536239D01*
X167688444Y-86738414D01*
X167784951Y-86927820D01*
X167909890Y-87099786D01*
X168060213Y-87250109D01*
X168232182Y-87375050D01*
X168240946Y-87379516D01*
X168291742Y-87427491D01*
X168308536Y-87495312D01*
X168285998Y-87561447D01*
X168240946Y-87600484D01*
X168232182Y-87604949D01*
X168060213Y-87729890D01*
X167909890Y-87880213D01*
X167784951Y-88052179D01*
X167688444Y-88241585D01*
X167622753Y-88443760D01*
X167598023Y-88599902D01*
X167589500Y-88653713D01*
X167589500Y-88866287D01*
X167622754Y-89076243D01*
X167657084Y-89181900D01*
X167688444Y-89278414D01*
X167784951Y-89467820D01*
X167909890Y-89639786D01*
X168060213Y-89790109D01*
X168232179Y-89915048D01*
X168232181Y-89915049D01*
X168232184Y-89915051D01*
X168421588Y-90011557D01*
X168450753Y-90021033D01*
X168508426Y-90060468D01*
X168535625Y-90124826D01*
X168523712Y-90193673D01*
X168476469Y-90245149D01*
X168468730Y-90249447D01*
X168337269Y-90316431D01*
X168321466Y-90327912D01*
X168321466Y-90327913D01*
X168810591Y-90817037D01*
X168747007Y-90834075D01*
X168632993Y-90899901D01*
X168539901Y-90992993D01*
X168474075Y-91107007D01*
X168457037Y-91170590D01*
X167967913Y-90681466D01*
X167967912Y-90681466D01*
X167956432Y-90697269D01*
X167874254Y-90858547D01*
X167874251Y-90858555D01*
X167818317Y-91030706D01*
X167790000Y-91209493D01*
X167790000Y-91390506D01*
X167818317Y-91569293D01*
X167874251Y-91741444D01*
X167874252Y-91741447D01*
X167956431Y-91902730D01*
X167967913Y-91918532D01*
X167967913Y-91918533D01*
X168457037Y-91429409D01*
X168474075Y-91492993D01*
X168539901Y-91607007D01*
X168632993Y-91700099D01*
X168747007Y-91765925D01*
X168810590Y-91782962D01*
X168321466Y-92272085D01*
X168321466Y-92272086D01*
X168337267Y-92283566D01*
X168337275Y-92283571D01*
X168468729Y-92350551D01*
X168519525Y-92398526D01*
X168536320Y-92466347D01*
X168513782Y-92532482D01*
X168459067Y-92575933D01*
X168450761Y-92578964D01*
X168440716Y-92582227D01*
X168421583Y-92588444D01*
X168232179Y-92684951D01*
X168060213Y-92809890D01*
X167909890Y-92960213D01*
X167784951Y-93132179D01*
X167688444Y-93321585D01*
X167622753Y-93523760D01*
X167589500Y-93733713D01*
X167589500Y-93946286D01*
X167622753Y-94156239D01*
X167688444Y-94358414D01*
X167784951Y-94547820D01*
X167909890Y-94719786D01*
X168023430Y-94833326D01*
X168056915Y-94894649D01*
X168051931Y-94964341D01*
X168010059Y-95020274D01*
X167979083Y-95037189D01*
X167847669Y-95086203D01*
X167847664Y-95086206D01*
X167732455Y-95172452D01*
X167732452Y-95172455D01*
X167646206Y-95287664D01*
X167646202Y-95287671D01*
X167595908Y-95422517D01*
X167590248Y-95475170D01*
X167589500Y-95482127D01*
X167589500Y-96332993D01*
X167589501Y-97125500D01*
X167569816Y-97192539D01*
X167517013Y-97238294D01*
X167465501Y-97249500D01*
X163689758Y-97249500D01*
X163622719Y-97229815D01*
X163576964Y-97177011D01*
X163567020Y-97107853D01*
X163596045Y-97044297D01*
X163602077Y-97037819D01*
X163620104Y-97019792D01*
X163620106Y-97019788D01*
X163620109Y-97019786D01*
X163745048Y-96847820D01*
X163745047Y-96847820D01*
X163745051Y-96847816D01*
X163841557Y-96658412D01*
X163907246Y-96456243D01*
X163940500Y-96246287D01*
X163940500Y-96033713D01*
X163907246Y-95823757D01*
X163841557Y-95621588D01*
X163745051Y-95432184D01*
X163745049Y-95432181D01*
X163745048Y-95432179D01*
X163620109Y-95260213D01*
X163469786Y-95109890D01*
X163297820Y-94984951D01*
X163108414Y-94888444D01*
X163108413Y-94888443D01*
X163108412Y-94888443D01*
X162906243Y-94822754D01*
X162906241Y-94822753D01*
X162906240Y-94822753D01*
X162744957Y-94797208D01*
X162696287Y-94789500D01*
X162483713Y-94789500D01*
X162435042Y-94797208D01*
X162273760Y-94822753D01*
X162071585Y-94888444D01*
X161882179Y-94984951D01*
X161710213Y-95109890D01*
X161559890Y-95260213D01*
X161434951Y-95432179D01*
X161338444Y-95621583D01*
X161328967Y-95650753D01*
X161289529Y-95708428D01*
X161225170Y-95735626D01*
X161156323Y-95723711D01*
X161104848Y-95676466D01*
X161100551Y-95668729D01*
X161033571Y-95537275D01*
X161033566Y-95537267D01*
X161022085Y-95521466D01*
X160532962Y-96010589D01*
X160515925Y-95947007D01*
X160450099Y-95832993D01*
X160357007Y-95739901D01*
X160242993Y-95674075D01*
X160179409Y-95657037D01*
X160668533Y-95167913D01*
X160652730Y-95156431D01*
X160491447Y-95074252D01*
X160491444Y-95074251D01*
X160319293Y-95018317D01*
X160140506Y-94990000D01*
X159959494Y-94990000D01*
X159780706Y-95018317D01*
X159608555Y-95074251D01*
X159608547Y-95074254D01*
X159447269Y-95156432D01*
X159431466Y-95167912D01*
X159431466Y-95167913D01*
X159920591Y-95657037D01*
X159857007Y-95674075D01*
X159742993Y-95739901D01*
X159649901Y-95832993D01*
X159584075Y-95947007D01*
X159567037Y-96010590D01*
X159077913Y-95521466D01*
X159071875Y-95521941D01*
X159060304Y-95530864D01*
X159037108Y-95551364D01*
X159032878Y-95552014D01*
X159029490Y-95554627D01*
X158998646Y-95557277D01*
X158968049Y-95561981D01*
X158964140Y-95560241D01*
X158959877Y-95560608D01*
X158932498Y-95546162D01*
X158904214Y-95533577D01*
X158901865Y-95529999D01*
X158898081Y-95528003D01*
X158882856Y-95501046D01*
X158865868Y-95475170D01*
X158865018Y-95469462D01*
X158863722Y-95467166D01*
X158860505Y-95440286D01*
X158860499Y-95439682D01*
X158860499Y-95242128D01*
X158854091Y-95182517D01*
X158850359Y-95172512D01*
X158803797Y-95047671D01*
X158803793Y-95047664D01*
X158717547Y-94932455D01*
X158717544Y-94932452D01*
X158602335Y-94846206D01*
X158602328Y-94846202D01*
X158467482Y-94795908D01*
X158467483Y-94795908D01*
X158407883Y-94789501D01*
X158407881Y-94789500D01*
X158407873Y-94789500D01*
X158407864Y-94789500D01*
X156612129Y-94789500D01*
X156612123Y-94789501D01*
X156552516Y-94795908D01*
X156417671Y-94846202D01*
X156417664Y-94846206D01*
X156302455Y-94932452D01*
X156302452Y-94932455D01*
X156216206Y-95047664D01*
X156216202Y-95047671D01*
X156165908Y-95182517D01*
X156159501Y-95242116D01*
X156159500Y-95242135D01*
X156159500Y-97037870D01*
X156159501Y-97037876D01*
X156166738Y-97105196D01*
X156165342Y-97105345D01*
X156162050Y-97166756D01*
X156121182Y-97223427D01*
X156056163Y-97249007D01*
X156045114Y-97249500D01*
X152435019Y-97249500D01*
X152367980Y-97229815D01*
X152322225Y-97177011D01*
X152312281Y-97107853D01*
X152324534Y-97069205D01*
X152349714Y-97019786D01*
X152411557Y-96898412D01*
X152477246Y-96696243D01*
X152510500Y-96486287D01*
X152510500Y-96273713D01*
X152477246Y-96063757D01*
X152411557Y-95861588D01*
X152315051Y-95672184D01*
X152315049Y-95672181D01*
X152315048Y-95672179D01*
X152190109Y-95500213D01*
X152039786Y-95349890D01*
X151867820Y-95224951D01*
X151862858Y-95222423D01*
X151859054Y-95220485D01*
X151808259Y-95172512D01*
X151791463Y-95104692D01*
X151813999Y-95038556D01*
X151859054Y-94999515D01*
X151867816Y-94995051D01*
X151953977Y-94932452D01*
X152039786Y-94870109D01*
X152039788Y-94870106D01*
X152039792Y-94870104D01*
X152190104Y-94719792D01*
X152190106Y-94719788D01*
X152190109Y-94719786D01*
X152315048Y-94547820D01*
X152315047Y-94547820D01*
X152315051Y-94547816D01*
X152411557Y-94358412D01*
X152477246Y-94156243D01*
X152510500Y-93946287D01*
X152510500Y-93733713D01*
X152477246Y-93523757D01*
X152411557Y-93321588D01*
X152315051Y-93132184D01*
X152315049Y-93132181D01*
X152315048Y-93132179D01*
X152190109Y-92960213D01*
X152039786Y-92809890D01*
X151867820Y-92684951D01*
X151678414Y-92588444D01*
X151678413Y-92588443D01*
X151678412Y-92588443D01*
X151649246Y-92578966D01*
X151591571Y-92539529D01*
X151564373Y-92475171D01*
X151576288Y-92406324D01*
X151623532Y-92354849D01*
X151631270Y-92350551D01*
X151762732Y-92283566D01*
X151778532Y-92272085D01*
X151778533Y-92272085D01*
X151289410Y-91782962D01*
X151352993Y-91765925D01*
X151467007Y-91700099D01*
X151560099Y-91607007D01*
X151625925Y-91492993D01*
X151642962Y-91429410D01*
X152132085Y-91918533D01*
X152132085Y-91918532D01*
X152143568Y-91902730D01*
X152225745Y-91741452D01*
X152225748Y-91741444D01*
X152281682Y-91569293D01*
X152310000Y-91390506D01*
X152310000Y-91209493D01*
X152281682Y-91030706D01*
X152225748Y-90858555D01*
X152225747Y-90858552D01*
X152143571Y-90697275D01*
X152143566Y-90697267D01*
X152132085Y-90681466D01*
X151642962Y-91170589D01*
X151625925Y-91107007D01*
X151560099Y-90992993D01*
X151467007Y-90899901D01*
X151352993Y-90834075D01*
X151289409Y-90817037D01*
X151778533Y-90327913D01*
X151762727Y-90316429D01*
X151631269Y-90249447D01*
X151580474Y-90201473D01*
X151563679Y-90133651D01*
X151586217Y-90067517D01*
X151640932Y-90024066D01*
X151649216Y-90021043D01*
X151678412Y-90011557D01*
X151867816Y-89915051D01*
X151943921Y-89859758D01*
X152039786Y-89790109D01*
X152039788Y-89790106D01*
X152039792Y-89790104D01*
X152190104Y-89639792D01*
X152190106Y-89639788D01*
X152190109Y-89639786D01*
X152315048Y-89467820D01*
X152315047Y-89467820D01*
X152315051Y-89467816D01*
X152411557Y-89278412D01*
X152477246Y-89076243D01*
X152510500Y-88866287D01*
X152510500Y-88653713D01*
X152477246Y-88443757D01*
X152411557Y-88241588D01*
X152315051Y-88052184D01*
X152315049Y-88052181D01*
X152315048Y-88052179D01*
X152190109Y-87880213D01*
X152039786Y-87729890D01*
X151867820Y-87604951D01*
X151867115Y-87604591D01*
X151859054Y-87600485D01*
X151808259Y-87552512D01*
X151791463Y-87484692D01*
X151813999Y-87418556D01*
X151859054Y-87379515D01*
X151867816Y-87375051D01*
X151943921Y-87319758D01*
X152039786Y-87250109D01*
X152039788Y-87250106D01*
X152039792Y-87250104D01*
X152190104Y-87099792D01*
X152190106Y-87099788D01*
X152190109Y-87099786D01*
X152315048Y-86927820D01*
X152315047Y-86927820D01*
X152315051Y-86927816D01*
X152411557Y-86738412D01*
X152477246Y-86536243D01*
X152510500Y-86326287D01*
X152510500Y-86113713D01*
X152477246Y-85903757D01*
X152411557Y-85701588D01*
X152315051Y-85512184D01*
X152315049Y-85512181D01*
X152315048Y-85512179D01*
X152190109Y-85340213D01*
X152039786Y-85189890D01*
X151867820Y-85064951D01*
X151867115Y-85064591D01*
X151859054Y-85060485D01*
X151808259Y-85012512D01*
X151791463Y-84944692D01*
X151813999Y-84878556D01*
X151859054Y-84839515D01*
X151867816Y-84835051D01*
X151943921Y-84779758D01*
X152039786Y-84710109D01*
X152039788Y-84710106D01*
X152039792Y-84710104D01*
X152190104Y-84559792D01*
X152190106Y-84559788D01*
X152190109Y-84559786D01*
X152315048Y-84387820D01*
X152315047Y-84387820D01*
X152315051Y-84387816D01*
X152411557Y-84198412D01*
X152477246Y-83996243D01*
X152510500Y-83786287D01*
X152510500Y-83573713D01*
X152477246Y-83363757D01*
X152411557Y-83161588D01*
X152315051Y-82972184D01*
X152315049Y-82972181D01*
X152315048Y-82972179D01*
X152190109Y-82800213D01*
X152039786Y-82649890D01*
X151867820Y-82524951D01*
X151867115Y-82524591D01*
X151859054Y-82520485D01*
X151808259Y-82472512D01*
X151791463Y-82404692D01*
X151813999Y-82338556D01*
X151859054Y-82299515D01*
X151867816Y-82295051D01*
X151943921Y-82239758D01*
X152039786Y-82170109D01*
X152039788Y-82170106D01*
X152039792Y-82170104D01*
X152190104Y-82019792D01*
X152190106Y-82019788D01*
X152190109Y-82019786D01*
X152315048Y-81847820D01*
X152315047Y-81847820D01*
X152315051Y-81847816D01*
X152411557Y-81658412D01*
X152477246Y-81456243D01*
X152510500Y-81246287D01*
X152510500Y-81033713D01*
X152477246Y-80823757D01*
X152411557Y-80621588D01*
X152315051Y-80432184D01*
X152315049Y-80432181D01*
X152315048Y-80432179D01*
X152190109Y-80260213D01*
X152039786Y-80109890D01*
X151867820Y-79984951D01*
X151678414Y-79888444D01*
X151678413Y-79888443D01*
X151678412Y-79888443D01*
X151649246Y-79878966D01*
X151591571Y-79839529D01*
X151564373Y-79775171D01*
X151576288Y-79706324D01*
X151623532Y-79654849D01*
X151631270Y-79650551D01*
X151762732Y-79583566D01*
X151778532Y-79572085D01*
X151778533Y-79572085D01*
X151289410Y-79082962D01*
X151352993Y-79065925D01*
X151467007Y-79000099D01*
X151560099Y-78907007D01*
X151625925Y-78792993D01*
X151642962Y-78729410D01*
X152132085Y-79218533D01*
X152132085Y-79218532D01*
X152143568Y-79202730D01*
X152225745Y-79041452D01*
X152225748Y-79041444D01*
X152281682Y-78869293D01*
X152310000Y-78690506D01*
X152310000Y-78509493D01*
X152281682Y-78330706D01*
X152225748Y-78158555D01*
X152225747Y-78158552D01*
X152143571Y-77997275D01*
X152143566Y-77997267D01*
X152132085Y-77981466D01*
X151642962Y-78470589D01*
X151625925Y-78407007D01*
X151560099Y-78292993D01*
X151467007Y-78199901D01*
X151352993Y-78134075D01*
X151289409Y-78117037D01*
X151778533Y-77627913D01*
X151762727Y-77616429D01*
X151631269Y-77549447D01*
X151580474Y-77501473D01*
X151563679Y-77433651D01*
X151586217Y-77367517D01*
X151640932Y-77324066D01*
X151649216Y-77321043D01*
X151678412Y-77311557D01*
X151867816Y-77215051D01*
X151946061Y-77158203D01*
X152039786Y-77090109D01*
X152039788Y-77090106D01*
X152039792Y-77090104D01*
X152190104Y-76939792D01*
X152190106Y-76939788D01*
X152190109Y-76939786D01*
X152315048Y-76767820D01*
X152315047Y-76767820D01*
X152315051Y-76767816D01*
X152411557Y-76578412D01*
X152477246Y-76376243D01*
X152510500Y-76166287D01*
X152510500Y-75953713D01*
X152477246Y-75743757D01*
X152411557Y-75541588D01*
X152315051Y-75352184D01*
X152315049Y-75352181D01*
X152315048Y-75352179D01*
X152190109Y-75180213D01*
X152039786Y-75029890D01*
X151867820Y-74904951D01*
X151867115Y-74904591D01*
X151859054Y-74900485D01*
X151808259Y-74852512D01*
X151791463Y-74784692D01*
X151813999Y-74718556D01*
X151859054Y-74679515D01*
X151867816Y-74675051D01*
X151895459Y-74654967D01*
X152039786Y-74550109D01*
X152039788Y-74550106D01*
X152039792Y-74550104D01*
X152190104Y-74399792D01*
X152190106Y-74399788D01*
X152190109Y-74399786D01*
X152315048Y-74227820D01*
X152315047Y-74227820D01*
X152315051Y-74227816D01*
X152411557Y-74038412D01*
X152477246Y-73836243D01*
X152510500Y-73626287D01*
X152510500Y-73413713D01*
X152477246Y-73203757D01*
X152411557Y-73001588D01*
X152315051Y-72812184D01*
X152315049Y-72812181D01*
X152315048Y-72812179D01*
X152190109Y-72640213D01*
X152039786Y-72489890D01*
X151867820Y-72364951D01*
X151867115Y-72364591D01*
X151859054Y-72360485D01*
X151808259Y-72312512D01*
X151791463Y-72244692D01*
X151813999Y-72178556D01*
X151859054Y-72139515D01*
X151867816Y-72135051D01*
X151943921Y-72079758D01*
X152039786Y-72010109D01*
X152039788Y-72010106D01*
X152039792Y-72010104D01*
X152190104Y-71859792D01*
X152190106Y-71859788D01*
X152190109Y-71859786D01*
X152315048Y-71687820D01*
X152315047Y-71687820D01*
X152315051Y-71687816D01*
X152411557Y-71498412D01*
X152477246Y-71296243D01*
X152510500Y-71086287D01*
X152510500Y-70873713D01*
X152477246Y-70663757D01*
X152411557Y-70461588D01*
X152315051Y-70272184D01*
X152315049Y-70272181D01*
X152315048Y-70272179D01*
X152190109Y-70100213D01*
X152039786Y-69949890D01*
X151867820Y-69824951D01*
X151867115Y-69824591D01*
X151859054Y-69820485D01*
X151808259Y-69772512D01*
X151791463Y-69704692D01*
X151813999Y-69638556D01*
X151859054Y-69599515D01*
X151867816Y-69595051D01*
X151943921Y-69539758D01*
X152039786Y-69470109D01*
X152039788Y-69470106D01*
X152039792Y-69470104D01*
X152190104Y-69319792D01*
X152190106Y-69319788D01*
X152190109Y-69319786D01*
X152315048Y-69147820D01*
X152315047Y-69147820D01*
X152315051Y-69147816D01*
X152411557Y-68958412D01*
X152477246Y-68756243D01*
X152510500Y-68546287D01*
X152510500Y-68333713D01*
X152477246Y-68123757D01*
X152411557Y-67921588D01*
X152315051Y-67732184D01*
X152315049Y-67732181D01*
X152315048Y-67732179D01*
X152190109Y-67560213D01*
X152039786Y-67409890D01*
X151867820Y-67284951D01*
X151678414Y-67188444D01*
X151678413Y-67188443D01*
X151678412Y-67188443D01*
X151649246Y-67178966D01*
X151591571Y-67139529D01*
X151564373Y-67075171D01*
X151576288Y-67006324D01*
X151623532Y-66954849D01*
X151631270Y-66950551D01*
X151762732Y-66883566D01*
X151778532Y-66872085D01*
X151778533Y-66872085D01*
X151289410Y-66382962D01*
X151352993Y-66365925D01*
X151467007Y-66300099D01*
X151560099Y-66207007D01*
X151625925Y-66092993D01*
X151642962Y-66029410D01*
X152132085Y-66518533D01*
X152132085Y-66518532D01*
X152143568Y-66502730D01*
X152225745Y-66341452D01*
X152225748Y-66341444D01*
X152281682Y-66169293D01*
X152310000Y-65990506D01*
X152310000Y-65809493D01*
X152281682Y-65630706D01*
X152225748Y-65458555D01*
X152225747Y-65458552D01*
X152143571Y-65297275D01*
X152143566Y-65297267D01*
X152132085Y-65281466D01*
X151642962Y-65770589D01*
X151625925Y-65707007D01*
X151560099Y-65592993D01*
X151467007Y-65499901D01*
X151352993Y-65434075D01*
X151289409Y-65417037D01*
X151778533Y-64927913D01*
X151762727Y-64916429D01*
X151631269Y-64849447D01*
X151580474Y-64801473D01*
X151563679Y-64733651D01*
X151586217Y-64667517D01*
X151640932Y-64624066D01*
X151649216Y-64621043D01*
X151678412Y-64611557D01*
X151867816Y-64515051D01*
X151943921Y-64459758D01*
X152039786Y-64390109D01*
X152039788Y-64390106D01*
X152039792Y-64390104D01*
X152190104Y-64239792D01*
X152190106Y-64239788D01*
X152190109Y-64239786D01*
X152315048Y-64067820D01*
X152315047Y-64067820D01*
X152315051Y-64067816D01*
X152411557Y-63878412D01*
X152477246Y-63676243D01*
X152510500Y-63466287D01*
X152510500Y-63319097D01*
X152530185Y-63252058D01*
X152582989Y-63206303D01*
X152652147Y-63196359D01*
X152715703Y-63225384D01*
G37*
%TD.AperFunction*%
%TA.AperFunction,Conductor*%
G36*
X159584075Y-96332993D02*
G01*
X159649901Y-96447007D01*
X159742993Y-96540099D01*
X159857007Y-96605925D01*
X159920590Y-96622962D01*
X159431466Y-97112085D01*
X159431757Y-97115771D01*
X159417393Y-97184149D01*
X159368341Y-97233905D01*
X159308139Y-97249500D01*
X158974886Y-97249500D01*
X158907847Y-97229815D01*
X158862092Y-97177011D01*
X158852148Y-97107853D01*
X158854060Y-97097765D01*
X158854090Y-97097485D01*
X158854091Y-97097483D01*
X158860500Y-97037873D01*
X158860499Y-96840919D01*
X158880183Y-96773883D01*
X158932987Y-96728128D01*
X159002145Y-96718184D01*
X159065701Y-96747209D01*
X159075953Y-96758378D01*
X159077913Y-96758533D01*
X159567037Y-96269409D01*
X159584075Y-96332993D01*
G37*
%TD.AperFunction*%
%TA.AperFunction,Conductor*%
G36*
X161022085Y-96758533D02*
G01*
X161022085Y-96758532D01*
X161033566Y-96742732D01*
X161100551Y-96611270D01*
X161148526Y-96560474D01*
X161216347Y-96543679D01*
X161282482Y-96566217D01*
X161325933Y-96620932D01*
X161328967Y-96629247D01*
X161338444Y-96658414D01*
X161434951Y-96847820D01*
X161559890Y-97019786D01*
X161577923Y-97037819D01*
X161611408Y-97099142D01*
X161606424Y-97168834D01*
X161564552Y-97224767D01*
X161499088Y-97249184D01*
X161490242Y-97249500D01*
X160791861Y-97249500D01*
X160724822Y-97229815D01*
X160679067Y-97177011D01*
X160668243Y-97115774D01*
X160668533Y-97112085D01*
X160179410Y-96622962D01*
X160242993Y-96605925D01*
X160357007Y-96540099D01*
X160450099Y-96447007D01*
X160515925Y-96332993D01*
X160532962Y-96269410D01*
X161022085Y-96758533D01*
G37*
%TD.AperFunction*%
%TA.AperFunction,Conductor*%
G36*
X169912084Y-91918532D02*
G01*
X169915772Y-91918242D01*
X169984149Y-91932606D01*
X170033905Y-91981658D01*
X170049500Y-92041860D01*
X170049500Y-92740242D01*
X170029815Y-92807281D01*
X169977011Y-92853036D01*
X169907853Y-92862980D01*
X169844297Y-92833955D01*
X169837819Y-92827923D01*
X169819786Y-92809890D01*
X169647820Y-92684951D01*
X169458414Y-92588444D01*
X169458413Y-92588443D01*
X169458412Y-92588443D01*
X169429246Y-92578966D01*
X169371571Y-92539529D01*
X169344373Y-92475171D01*
X169356288Y-92406324D01*
X169403532Y-92354849D01*
X169411270Y-92350551D01*
X169542732Y-92283566D01*
X169558532Y-92272085D01*
X169558533Y-92272085D01*
X169069410Y-91782962D01*
X169132993Y-91765925D01*
X169247007Y-91700099D01*
X169340099Y-91607007D01*
X169405925Y-91492993D01*
X169422962Y-91429410D01*
X169912084Y-91918532D01*
G37*
%TD.AperFunction*%
%TA.AperFunction,Conductor*%
G36*
X150694075Y-91492993D02*
G01*
X150759901Y-91607007D01*
X150852993Y-91700099D01*
X150967007Y-91765925D01*
X151030590Y-91782962D01*
X150541466Y-92272085D01*
X150541466Y-92272086D01*
X150557267Y-92283566D01*
X150557275Y-92283571D01*
X150688729Y-92350551D01*
X150739525Y-92398526D01*
X150756320Y-92466347D01*
X150733782Y-92532482D01*
X150679067Y-92575933D01*
X150670761Y-92578964D01*
X150660716Y-92582227D01*
X150641583Y-92588444D01*
X150452179Y-92684951D01*
X150280213Y-92809890D01*
X150280209Y-92809894D01*
X150262181Y-92827923D01*
X150200858Y-92861408D01*
X150131166Y-92856424D01*
X150075233Y-92814552D01*
X150050816Y-92749088D01*
X150050500Y-92740242D01*
X150050500Y-92041861D01*
X150070185Y-91974822D01*
X150122989Y-91929067D01*
X150184229Y-91918243D01*
X150187913Y-91918533D01*
X150677037Y-91429409D01*
X150694075Y-91492993D01*
G37*
%TD.AperFunction*%
%TA.AperFunction,Conductor*%
G36*
X150255703Y-89766045D02*
G01*
X150262181Y-89772077D01*
X150280213Y-89790109D01*
X150452179Y-89915048D01*
X150452181Y-89915049D01*
X150452184Y-89915051D01*
X150641588Y-90011557D01*
X150670753Y-90021033D01*
X150728426Y-90060468D01*
X150755625Y-90124826D01*
X150743712Y-90193673D01*
X150696469Y-90245149D01*
X150688730Y-90249447D01*
X150557269Y-90316431D01*
X150541466Y-90327912D01*
X150541466Y-90327913D01*
X151030591Y-90817037D01*
X150967007Y-90834075D01*
X150852993Y-90899901D01*
X150759901Y-90992993D01*
X150694075Y-91107007D01*
X150677037Y-91170590D01*
X150187913Y-90681466D01*
X150184229Y-90681756D01*
X150115852Y-90667392D01*
X150066095Y-90618340D01*
X150050500Y-90558138D01*
X150050500Y-89859758D01*
X150070185Y-89792719D01*
X150122989Y-89746964D01*
X150192147Y-89737020D01*
X150255703Y-89766045D01*
G37*
%TD.AperFunction*%
%TA.AperFunction,Conductor*%
G36*
X169968834Y-89743576D02*
G01*
X170024767Y-89785448D01*
X170049184Y-89850912D01*
X170049500Y-89859758D01*
X170049500Y-90558138D01*
X170029815Y-90625177D01*
X169977011Y-90670932D01*
X169915773Y-90681756D01*
X169912086Y-90681465D01*
X169422962Y-91170589D01*
X169405925Y-91107007D01*
X169340099Y-90992993D01*
X169247007Y-90899901D01*
X169132993Y-90834075D01*
X169069409Y-90817037D01*
X169558533Y-90327913D01*
X169542727Y-90316429D01*
X169411269Y-90249447D01*
X169360474Y-90201473D01*
X169343679Y-90133651D01*
X169366217Y-90067517D01*
X169420932Y-90024066D01*
X169429216Y-90021043D01*
X169458412Y-90011557D01*
X169647816Y-89915051D01*
X169723921Y-89859758D01*
X169819786Y-89790109D01*
X169819788Y-89790106D01*
X169819792Y-89790104D01*
X169837819Y-89772077D01*
X169899142Y-89738592D01*
X169968834Y-89743576D01*
G37*
%TD.AperFunction*%
%TA.AperFunction,Conductor*%
G36*
X169912084Y-79218532D02*
G01*
X169915772Y-79218242D01*
X169984149Y-79232606D01*
X170033905Y-79281658D01*
X170049500Y-79341860D01*
X170049500Y-80040242D01*
X170029815Y-80107281D01*
X169977011Y-80153036D01*
X169907853Y-80162980D01*
X169844297Y-80133955D01*
X169837819Y-80127923D01*
X169819786Y-80109890D01*
X169647820Y-79984951D01*
X169458414Y-79888444D01*
X169458413Y-79888443D01*
X169458412Y-79888443D01*
X169429246Y-79878966D01*
X169371571Y-79839529D01*
X169344373Y-79775171D01*
X169356288Y-79706324D01*
X169403532Y-79654849D01*
X169411270Y-79650551D01*
X169542732Y-79583566D01*
X169558532Y-79572085D01*
X169558533Y-79572085D01*
X169069410Y-79082962D01*
X169132993Y-79065925D01*
X169247007Y-79000099D01*
X169340099Y-78907007D01*
X169405925Y-78792993D01*
X169422962Y-78729410D01*
X169912084Y-79218532D01*
G37*
%TD.AperFunction*%
%TA.AperFunction,Conductor*%
G36*
X150694075Y-78792993D02*
G01*
X150759901Y-78907007D01*
X150852993Y-79000099D01*
X150967007Y-79065925D01*
X151030590Y-79082962D01*
X150541466Y-79572085D01*
X150541466Y-79572086D01*
X150557267Y-79583566D01*
X150557275Y-79583571D01*
X150688729Y-79650551D01*
X150739525Y-79698526D01*
X150756320Y-79766347D01*
X150733782Y-79832482D01*
X150679067Y-79875933D01*
X150670761Y-79878964D01*
X150660716Y-79882227D01*
X150641583Y-79888444D01*
X150452179Y-79984951D01*
X150280213Y-80109890D01*
X150280209Y-80109894D01*
X150262181Y-80127923D01*
X150200858Y-80161408D01*
X150131166Y-80156424D01*
X150075233Y-80114552D01*
X150050816Y-80049088D01*
X150050500Y-80040242D01*
X150050500Y-79341861D01*
X150070185Y-79274822D01*
X150122989Y-79229067D01*
X150184229Y-79218243D01*
X150187913Y-79218533D01*
X150677037Y-78729409D01*
X150694075Y-78792993D01*
G37*
%TD.AperFunction*%
%TA.AperFunction,Conductor*%
G36*
X150255703Y-77066045D02*
G01*
X150262181Y-77072077D01*
X150280213Y-77090109D01*
X150452179Y-77215048D01*
X150452181Y-77215049D01*
X150452184Y-77215051D01*
X150641588Y-77311557D01*
X150670753Y-77321033D01*
X150728426Y-77360468D01*
X150755625Y-77424826D01*
X150743712Y-77493673D01*
X150696469Y-77545149D01*
X150688730Y-77549447D01*
X150557269Y-77616431D01*
X150541466Y-77627912D01*
X150541466Y-77627913D01*
X151030591Y-78117037D01*
X150967007Y-78134075D01*
X150852993Y-78199901D01*
X150759901Y-78292993D01*
X150694075Y-78407007D01*
X150677037Y-78470590D01*
X150187913Y-77981466D01*
X150184229Y-77981756D01*
X150115852Y-77967392D01*
X150066095Y-77918340D01*
X150050500Y-77858138D01*
X150050500Y-77159758D01*
X150070185Y-77092719D01*
X150122989Y-77046964D01*
X150192147Y-77037020D01*
X150255703Y-77066045D01*
G37*
%TD.AperFunction*%
%TA.AperFunction,Conductor*%
G36*
X169968834Y-77043576D02*
G01*
X170024767Y-77085448D01*
X170049184Y-77150912D01*
X170049500Y-77159758D01*
X170049500Y-77858138D01*
X170029815Y-77925177D01*
X169977011Y-77970932D01*
X169915773Y-77981756D01*
X169912086Y-77981465D01*
X169422962Y-78470589D01*
X169405925Y-78407007D01*
X169340099Y-78292993D01*
X169247007Y-78199901D01*
X169132993Y-78134075D01*
X169069409Y-78117037D01*
X169558533Y-77627913D01*
X169542727Y-77616429D01*
X169411269Y-77549447D01*
X169360474Y-77501473D01*
X169343679Y-77433651D01*
X169366217Y-77367517D01*
X169420932Y-77324066D01*
X169429216Y-77321043D01*
X169458412Y-77311557D01*
X169647816Y-77215051D01*
X169726061Y-77158203D01*
X169819786Y-77090109D01*
X169819788Y-77090106D01*
X169819792Y-77090104D01*
X169837819Y-77072077D01*
X169899142Y-77038592D01*
X169968834Y-77043576D01*
G37*
%TD.AperFunction*%
%TA.AperFunction,Conductor*%
G36*
X167735895Y-57895852D02*
G01*
X167791828Y-57937724D01*
X167816245Y-58003188D01*
X167815034Y-58031431D01*
X167790000Y-58189492D01*
X167790000Y-58370506D01*
X167818317Y-58549293D01*
X167874251Y-58721444D01*
X167874252Y-58721447D01*
X167956431Y-58882730D01*
X167967913Y-58898532D01*
X167967913Y-58898533D01*
X168457037Y-58409408D01*
X168474075Y-58472993D01*
X168539901Y-58587007D01*
X168632993Y-58680099D01*
X168747007Y-58745925D01*
X168810590Y-58762962D01*
X168321466Y-59252085D01*
X168321466Y-59252086D01*
X168337267Y-59263566D01*
X168337275Y-59263571D01*
X168468729Y-59330551D01*
X168519525Y-59378526D01*
X168536320Y-59446347D01*
X168513782Y-59512482D01*
X168459067Y-59555933D01*
X168450761Y-59558964D01*
X168440716Y-59562227D01*
X168421583Y-59568444D01*
X168232179Y-59664951D01*
X168060213Y-59789890D01*
X167909890Y-59940213D01*
X167784951Y-60112179D01*
X167688444Y-60301585D01*
X167622753Y-60503760D01*
X167589500Y-60713713D01*
X167589500Y-60926286D01*
X167622754Y-61136244D01*
X167622754Y-61136247D01*
X167636491Y-61178523D01*
X167638486Y-61248364D01*
X167606241Y-61304522D01*
X167019286Y-61891478D01*
X166907481Y-62003282D01*
X166907479Y-62003285D01*
X166898663Y-62018556D01*
X166868063Y-62071557D01*
X166828423Y-62140215D01*
X166787499Y-62292943D01*
X166787499Y-62292945D01*
X166787499Y-62461046D01*
X166787500Y-62461059D01*
X166787500Y-72800537D01*
X166767815Y-72867576D01*
X166751181Y-72888218D01*
X166149220Y-73490178D01*
X166119067Y-73506642D01*
X166088978Y-73523423D01*
X166088320Y-73523431D01*
X166087897Y-73523663D01*
X166053798Y-73526255D01*
X166045496Y-73525735D01*
X165974027Y-73511520D01*
X165818221Y-73511520D01*
X165814352Y-73511278D01*
X165785001Y-73500628D01*
X165755054Y-73491835D01*
X165752434Y-73488812D01*
X165748672Y-73487447D01*
X165729733Y-73462613D01*
X165709299Y-73439031D01*
X165708321Y-73434536D01*
X165706303Y-73431890D01*
X165705455Y-73421363D01*
X165698093Y-73387520D01*
X165698093Y-59882503D01*
X165717778Y-59815464D01*
X165734407Y-59794827D01*
X167604882Y-57924351D01*
X167666203Y-57890868D01*
X167735895Y-57895852D01*
G37*
%TD.AperFunction*%
%TA.AperFunction,Conductor*%
G36*
X155036881Y-47270185D02*
G01*
X155082636Y-47322989D01*
X155092580Y-47392147D01*
X155072944Y-47443391D01*
X155021052Y-47521051D01*
X155021047Y-47521060D01*
X154960743Y-47666648D01*
X154960741Y-47666656D01*
X154930000Y-47821202D01*
X154930000Y-47950000D01*
X155430000Y-47950000D01*
X155430000Y-48450000D01*
X154930000Y-48450000D01*
X154930000Y-48578797D01*
X154960741Y-48733343D01*
X154960743Y-48733351D01*
X155021047Y-48878939D01*
X155021052Y-48878948D01*
X155108598Y-49009969D01*
X155108601Y-49009973D01*
X155220026Y-49121398D01*
X155220034Y-49121404D01*
X155351047Y-49208944D01*
X155351065Y-49208954D01*
X155479999Y-49262360D01*
X155480000Y-49262360D01*
X155480000Y-48666988D01*
X155489940Y-48684205D01*
X155545795Y-48740060D01*
X155614204Y-48779556D01*
X155690504Y-48800000D01*
X155769496Y-48800000D01*
X155845796Y-48779556D01*
X155914205Y-48740060D01*
X155970060Y-48684205D01*
X155980000Y-48666988D01*
X155980000Y-49262360D01*
X156108934Y-49208954D01*
X156108952Y-49208944D01*
X156239965Y-49121404D01*
X156239973Y-49121398D01*
X156351398Y-49009973D01*
X156351401Y-49009969D01*
X156438947Y-48878948D01*
X156438952Y-48878939D01*
X156499256Y-48733351D01*
X156499258Y-48733343D01*
X156529999Y-48578797D01*
X156530000Y-48578794D01*
X156530000Y-48450000D01*
X156030000Y-48450000D01*
X156030000Y-47950000D01*
X156530000Y-47950000D01*
X156530000Y-47821206D01*
X156529999Y-47821202D01*
X156499258Y-47666656D01*
X156499256Y-47666648D01*
X156438952Y-47521060D01*
X156438947Y-47521051D01*
X156387056Y-47443391D01*
X156366178Y-47376714D01*
X156384662Y-47309333D01*
X156436641Y-47262643D01*
X156490158Y-47250500D01*
X163609842Y-47250500D01*
X163676881Y-47270185D01*
X163722636Y-47322989D01*
X163732580Y-47392147D01*
X163712944Y-47443391D01*
X163661052Y-47521051D01*
X163661047Y-47521060D01*
X163600743Y-47666648D01*
X163600741Y-47666656D01*
X163570000Y-47821202D01*
X163570000Y-47950000D01*
X164070000Y-47950000D01*
X164070000Y-48450000D01*
X163570000Y-48450000D01*
X163570000Y-48578797D01*
X163600741Y-48733343D01*
X163600743Y-48733351D01*
X163661047Y-48878939D01*
X163661052Y-48878948D01*
X163748598Y-49009969D01*
X163748601Y-49009973D01*
X163860026Y-49121398D01*
X163860034Y-49121404D01*
X163991047Y-49208944D01*
X163991065Y-49208954D01*
X164119999Y-49262360D01*
X164120000Y-49262360D01*
X164120000Y-48666988D01*
X164129940Y-48684205D01*
X164185795Y-48740060D01*
X164254204Y-48779556D01*
X164330504Y-48800000D01*
X164409496Y-48800000D01*
X164485796Y-48779556D01*
X164554205Y-48740060D01*
X164610060Y-48684205D01*
X164620000Y-48666988D01*
X164620000Y-49262360D01*
X164748934Y-49208954D01*
X164748952Y-49208944D01*
X164879965Y-49121404D01*
X164879973Y-49121398D01*
X164991398Y-49009973D01*
X164991401Y-49009969D01*
X165078947Y-48878948D01*
X165078952Y-48878939D01*
X165139256Y-48733351D01*
X165139258Y-48733343D01*
X165169999Y-48578797D01*
X165170000Y-48578794D01*
X165170000Y-48450000D01*
X164670000Y-48450000D01*
X164670000Y-47950000D01*
X165170000Y-47950000D01*
X165170000Y-47821206D01*
X165169999Y-47821202D01*
X165139258Y-47666656D01*
X165139256Y-47666648D01*
X165078952Y-47521060D01*
X165078947Y-47521051D01*
X165027056Y-47443391D01*
X165006178Y-47376714D01*
X165024662Y-47309333D01*
X165076641Y-47262643D01*
X165130158Y-47250500D01*
X167664981Y-47250500D01*
X167732020Y-47270185D01*
X167777775Y-47322989D01*
X167787719Y-47392147D01*
X167775466Y-47430795D01*
X167688444Y-47601585D01*
X167622753Y-47803760D01*
X167619990Y-47821206D01*
X167589500Y-48013713D01*
X167589500Y-48226287D01*
X167622754Y-48436243D01*
X167682871Y-48621264D01*
X167688444Y-48638414D01*
X167784951Y-48827820D01*
X167909890Y-48999786D01*
X168060213Y-49150109D01*
X168232182Y-49275050D01*
X168240946Y-49279516D01*
X168291742Y-49327491D01*
X168308536Y-49395312D01*
X168285998Y-49461447D01*
X168240946Y-49500484D01*
X168232182Y-49504949D01*
X168060213Y-49629890D01*
X167909890Y-49780213D01*
X167784951Y-49952179D01*
X167688444Y-50141585D01*
X167622753Y-50343760D01*
X167589500Y-50553713D01*
X167589500Y-50766286D01*
X167622754Y-50976244D01*
X167622754Y-50976247D01*
X167636491Y-51018523D01*
X167638486Y-51088364D01*
X167606241Y-51144522D01*
X165238491Y-53512272D01*
X165177168Y-53545757D01*
X165107476Y-53540773D01*
X165051543Y-53498901D01*
X165027126Y-53433437D01*
X165041978Y-53365164D01*
X165047709Y-53355699D01*
X165078946Y-53308950D01*
X165078952Y-53308939D01*
X165139256Y-53163351D01*
X165139258Y-53163343D01*
X165169999Y-53008797D01*
X165170000Y-53008794D01*
X165170000Y-52630000D01*
X164670000Y-52630000D01*
X164670000Y-52130000D01*
X165170000Y-52130000D01*
X165170000Y-51751206D01*
X165169999Y-51751202D01*
X165139258Y-51596656D01*
X165139256Y-51596648D01*
X165078952Y-51451060D01*
X165078947Y-51451051D01*
X164991401Y-51320030D01*
X164991398Y-51320026D01*
X164879973Y-51208601D01*
X164879969Y-51208598D01*
X164748948Y-51121052D01*
X164748938Y-51121047D01*
X164620000Y-51067639D01*
X164620000Y-51663011D01*
X164610060Y-51645795D01*
X164554205Y-51589940D01*
X164485796Y-51550444D01*
X164409496Y-51530000D01*
X164330504Y-51530000D01*
X164254204Y-51550444D01*
X164185795Y-51589940D01*
X164129940Y-51645795D01*
X164120000Y-51663011D01*
X164120000Y-51067639D01*
X164119999Y-51067639D01*
X163991061Y-51121047D01*
X163991051Y-51121052D01*
X163860030Y-51208598D01*
X163860026Y-51208601D01*
X163748601Y-51320026D01*
X163748598Y-51320030D01*
X163661052Y-51451051D01*
X163661049Y-51451057D01*
X163637446Y-51508040D01*
X163593604Y-51562443D01*
X163527310Y-51584507D01*
X163459611Y-51567227D01*
X163415498Y-51522587D01*
X163400515Y-51496635D01*
X163293365Y-51389485D01*
X163227750Y-51351602D01*
X163162136Y-51313719D01*
X163088950Y-51294109D01*
X163015766Y-51274500D01*
X162864234Y-51274500D01*
X162717863Y-51313719D01*
X162586635Y-51389485D01*
X162586632Y-51389487D01*
X162479487Y-51496632D01*
X162479485Y-51496635D01*
X162403719Y-51627863D01*
X162364500Y-51774234D01*
X162364500Y-51925765D01*
X162403719Y-52072136D01*
X162438215Y-52131884D01*
X162479485Y-52203365D01*
X162586635Y-52310515D01*
X162717865Y-52386281D01*
X162864234Y-52425500D01*
X162864236Y-52425500D01*
X163015764Y-52425500D01*
X163015766Y-52425500D01*
X163162135Y-52386281D01*
X163293365Y-52310515D01*
X163400515Y-52203365D01*
X163408604Y-52189353D01*
X163459168Y-52141139D01*
X163527774Y-52127914D01*
X163532985Y-52130000D01*
X164070000Y-52130000D01*
X164070000Y-52630000D01*
X163570000Y-52630000D01*
X163570000Y-53008797D01*
X163600741Y-53163343D01*
X163600743Y-53163351D01*
X163661047Y-53308939D01*
X163661052Y-53308948D01*
X163748598Y-53439969D01*
X163748601Y-53439973D01*
X163860026Y-53551398D01*
X163860034Y-53551404D01*
X163991047Y-53638944D01*
X163991065Y-53638954D01*
X164119999Y-53692360D01*
X164120000Y-53692360D01*
X164120000Y-53096988D01*
X164129940Y-53114205D01*
X164185795Y-53170060D01*
X164254204Y-53209556D01*
X164330504Y-53230000D01*
X164409496Y-53230000D01*
X164485796Y-53209556D01*
X164554205Y-53170060D01*
X164610060Y-53114205D01*
X164620000Y-53096988D01*
X164620000Y-53692360D01*
X164748934Y-53638954D01*
X164748941Y-53638950D01*
X164795700Y-53607707D01*
X164862378Y-53586829D01*
X164929758Y-53605313D01*
X164976449Y-53657292D01*
X164987625Y-53726261D01*
X164959740Y-53790325D01*
X164952273Y-53798490D01*
X164036057Y-54714707D01*
X163924252Y-54826511D01*
X163924250Y-54826514D01*
X163874132Y-54913323D01*
X163874130Y-54913325D01*
X163845196Y-54963438D01*
X163845195Y-54963439D01*
X163829315Y-55022701D01*
X163804270Y-55116172D01*
X163804270Y-55116174D01*
X163804270Y-55284275D01*
X163804271Y-55284288D01*
X163804271Y-72358085D01*
X163784586Y-72425124D01*
X163731782Y-72470879D01*
X163662624Y-72480823D01*
X163599068Y-72451798D01*
X163592590Y-72445766D01*
X163575037Y-72428213D01*
X163575033Y-72428210D01*
X163443930Y-72340609D01*
X163443917Y-72340602D01*
X163298246Y-72280264D01*
X163298234Y-72280261D01*
X163143590Y-72249500D01*
X163143587Y-72249500D01*
X162985903Y-72249500D01*
X162985900Y-72249500D01*
X162831255Y-72280261D01*
X162831243Y-72280264D01*
X162685572Y-72340602D01*
X162685559Y-72340609D01*
X162553870Y-72428602D01*
X162487192Y-72449480D01*
X162484979Y-72449500D01*
X161780940Y-72449500D01*
X161740019Y-72460464D01*
X161740019Y-72460465D01*
X161702751Y-72470451D01*
X161628214Y-72490423D01*
X161628209Y-72490426D01*
X161491290Y-72569475D01*
X161491282Y-72569481D01*
X161420556Y-72640208D01*
X161379480Y-72681284D01*
X161379478Y-72681286D01*
X161248581Y-72812184D01*
X161147584Y-72913181D01*
X161086261Y-72946666D01*
X161059903Y-72949500D01*
X160997808Y-72949500D01*
X160843163Y-72980261D01*
X160843151Y-72980264D01*
X160697480Y-73040602D01*
X160697467Y-73040609D01*
X160566365Y-73128209D01*
X160536491Y-73158084D01*
X160461507Y-73233067D01*
X160434576Y-73247773D01*
X160408763Y-73264362D01*
X160402563Y-73265253D01*
X160400187Y-73266551D01*
X160373828Y-73269385D01*
X160330387Y-73269385D01*
X160263348Y-73249700D01*
X160242412Y-73231063D01*
X160241671Y-73231805D01*
X160206819Y-73196953D01*
X160173334Y-73135630D01*
X160170500Y-73109272D01*
X160170500Y-66490945D01*
X160170500Y-66490943D01*
X160129577Y-66338216D01*
X160129577Y-66338215D01*
X160129577Y-66338214D01*
X160100639Y-66288095D01*
X160100637Y-66288092D01*
X160050520Y-66201284D01*
X159938716Y-66089480D01*
X159938715Y-66089479D01*
X159934385Y-66085149D01*
X159934374Y-66085139D01*
X155565819Y-61716584D01*
X155532334Y-61655261D01*
X155529500Y-61628903D01*
X155529500Y-53153765D01*
X155545795Y-53170060D01*
X155614204Y-53209556D01*
X155690504Y-53230000D01*
X155769496Y-53230000D01*
X155845796Y-53209556D01*
X155914205Y-53170060D01*
X155970060Y-53114205D01*
X155980000Y-53096988D01*
X155980000Y-53692360D01*
X156108934Y-53638954D01*
X156108952Y-53638944D01*
X156239965Y-53551404D01*
X156239973Y-53551398D01*
X156351398Y-53439973D01*
X156351401Y-53439969D01*
X156438947Y-53308948D01*
X156438952Y-53308939D01*
X156499256Y-53163351D01*
X156499258Y-53163343D01*
X156529999Y-53008797D01*
X156530000Y-53008794D01*
X156530000Y-52630000D01*
X156030000Y-52630000D01*
X156030000Y-52130000D01*
X156581362Y-52130000D01*
X156581362Y-52131884D01*
X156627320Y-52135163D01*
X156683261Y-52177024D01*
X156691391Y-52189346D01*
X156699485Y-52203365D01*
X156806635Y-52310515D01*
X156937865Y-52386281D01*
X157084234Y-52425500D01*
X157084236Y-52425500D01*
X157235764Y-52425500D01*
X157235766Y-52425500D01*
X157382135Y-52386281D01*
X157513365Y-52310515D01*
X157620515Y-52203365D01*
X157696281Y-52072135D01*
X157735500Y-51925766D01*
X157735500Y-51774234D01*
X157696281Y-51627865D01*
X157620515Y-51496635D01*
X157513365Y-51389485D01*
X157447750Y-51351602D01*
X157382136Y-51313719D01*
X157308950Y-51294109D01*
X157235766Y-51274500D01*
X157084234Y-51274500D01*
X156937863Y-51313719D01*
X156806635Y-51389485D01*
X156806632Y-51389487D01*
X156699487Y-51496632D01*
X156699481Y-51496641D01*
X156684499Y-51522589D01*
X156633931Y-51570803D01*
X156565324Y-51584024D01*
X156500460Y-51558054D01*
X156462553Y-51508038D01*
X156438954Y-51451064D01*
X156438947Y-51451051D01*
X156351401Y-51320030D01*
X156351398Y-51320026D01*
X156239973Y-51208601D01*
X156239969Y-51208598D01*
X156108948Y-51121052D01*
X156108938Y-51121047D01*
X155980000Y-51067639D01*
X155980000Y-51663011D01*
X155970060Y-51645795D01*
X155914205Y-51589940D01*
X155845796Y-51550444D01*
X155769496Y-51530000D01*
X155690504Y-51530000D01*
X155614204Y-51550444D01*
X155545795Y-51589940D01*
X155489940Y-51645795D01*
X155486918Y-51651028D01*
X155486473Y-51649365D01*
X155487412Y-51649113D01*
X155480000Y-51611843D01*
X155480000Y-51067639D01*
X155479999Y-51067639D01*
X155351061Y-51121047D01*
X155351046Y-51121055D01*
X155231391Y-51201006D01*
X155164714Y-51221884D01*
X155097334Y-51203399D01*
X155074820Y-51185585D01*
X152546818Y-48657583D01*
X152532114Y-48630655D01*
X152515522Y-48604837D01*
X152514630Y-48598636D01*
X152513333Y-48596260D01*
X152510499Y-48569902D01*
X152510499Y-47374500D01*
X152530184Y-47307461D01*
X152582988Y-47261706D01*
X152634499Y-47250500D01*
X154969842Y-47250500D01*
X155036881Y-47270185D01*
G37*
%TD.AperFunction*%
%TA.AperFunction,Conductor*%
G36*
X169912084Y-66518532D02*
G01*
X169915772Y-66518242D01*
X169984149Y-66532606D01*
X170033905Y-66581658D01*
X170049500Y-66641860D01*
X170049500Y-67340242D01*
X170029815Y-67407281D01*
X169977011Y-67453036D01*
X169907853Y-67462980D01*
X169844297Y-67433955D01*
X169837819Y-67427923D01*
X169819786Y-67409890D01*
X169647820Y-67284951D01*
X169458414Y-67188444D01*
X169458413Y-67188443D01*
X169458412Y-67188443D01*
X169429246Y-67178966D01*
X169371571Y-67139529D01*
X169344373Y-67075171D01*
X169356288Y-67006324D01*
X169403532Y-66954849D01*
X169411270Y-66950551D01*
X169542732Y-66883566D01*
X169558532Y-66872085D01*
X169069409Y-66382962D01*
X169132993Y-66365925D01*
X169247007Y-66300099D01*
X169340099Y-66207007D01*
X169405925Y-66092993D01*
X169422962Y-66029410D01*
X169912084Y-66518532D01*
G37*
%TD.AperFunction*%
%TA.AperFunction,Conductor*%
G36*
X150694075Y-66092993D02*
G01*
X150759901Y-66207007D01*
X150852993Y-66300099D01*
X150967007Y-66365925D01*
X151030590Y-66382962D01*
X150541466Y-66872085D01*
X150541466Y-66872086D01*
X150557267Y-66883566D01*
X150557275Y-66883571D01*
X150688729Y-66950551D01*
X150739525Y-66998526D01*
X150756320Y-67066347D01*
X150733782Y-67132482D01*
X150679067Y-67175933D01*
X150670761Y-67178964D01*
X150660716Y-67182227D01*
X150641583Y-67188444D01*
X150452179Y-67284951D01*
X150280213Y-67409890D01*
X150280209Y-67409894D01*
X150262181Y-67427923D01*
X150200858Y-67461408D01*
X150131166Y-67456424D01*
X150075233Y-67414552D01*
X150050816Y-67349088D01*
X150050500Y-67340242D01*
X150050500Y-66641861D01*
X150070185Y-66574822D01*
X150122989Y-66529067D01*
X150184229Y-66518243D01*
X150187913Y-66518533D01*
X150677037Y-66029409D01*
X150694075Y-66092993D01*
G37*
%TD.AperFunction*%
%TA.AperFunction,Conductor*%
G36*
X150255703Y-64366045D02*
G01*
X150262181Y-64372077D01*
X150280213Y-64390109D01*
X150452179Y-64515048D01*
X150452181Y-64515049D01*
X150452184Y-64515051D01*
X150641588Y-64611557D01*
X150670753Y-64621033D01*
X150728426Y-64660468D01*
X150755625Y-64724826D01*
X150743712Y-64793673D01*
X150696469Y-64845149D01*
X150688730Y-64849447D01*
X150557269Y-64916431D01*
X150541466Y-64927912D01*
X150541466Y-64927913D01*
X151030591Y-65417037D01*
X150967007Y-65434075D01*
X150852993Y-65499901D01*
X150759901Y-65592993D01*
X150694075Y-65707007D01*
X150677037Y-65770590D01*
X150187913Y-65281466D01*
X150184229Y-65281756D01*
X150115852Y-65267392D01*
X150066095Y-65218340D01*
X150050500Y-65158138D01*
X150050500Y-64459758D01*
X150070185Y-64392719D01*
X150122989Y-64346964D01*
X150192147Y-64337020D01*
X150255703Y-64366045D01*
G37*
%TD.AperFunction*%
%TA.AperFunction,Conductor*%
G36*
X169968834Y-64343576D02*
G01*
X170024767Y-64385448D01*
X170049184Y-64450912D01*
X170049500Y-64459758D01*
X170049500Y-65158138D01*
X170029815Y-65225177D01*
X169977011Y-65270932D01*
X169915773Y-65281756D01*
X169912086Y-65281465D01*
X169422962Y-65770589D01*
X169405925Y-65707007D01*
X169340099Y-65592993D01*
X169247007Y-65499901D01*
X169132993Y-65434075D01*
X169069408Y-65417037D01*
X169558533Y-64927913D01*
X169542727Y-64916429D01*
X169411269Y-64849447D01*
X169360474Y-64801473D01*
X169343679Y-64733651D01*
X169366217Y-64667517D01*
X169420932Y-64624066D01*
X169429216Y-64621043D01*
X169458412Y-64611557D01*
X169647816Y-64515051D01*
X169723921Y-64459758D01*
X169819786Y-64390109D01*
X169819788Y-64390106D01*
X169819792Y-64390104D01*
X169837819Y-64372077D01*
X169899142Y-64338592D01*
X169968834Y-64343576D01*
G37*
%TD.AperFunction*%
%TA.AperFunction,Conductor*%
G36*
X152472981Y-52826773D02*
G01*
X152495119Y-52844354D01*
X153891181Y-54240416D01*
X153924666Y-54301739D01*
X153927500Y-54328097D01*
X153927500Y-61871802D01*
X153907815Y-61938841D01*
X153855011Y-61984596D01*
X153785853Y-61994540D01*
X153722297Y-61965515D01*
X153715819Y-61959483D01*
X152947819Y-61191483D01*
X152914334Y-61130160D01*
X152911500Y-61103802D01*
X152911500Y-56980060D01*
X152911501Y-56980047D01*
X152911501Y-56811945D01*
X152911501Y-56811943D01*
X152870577Y-56659215D01*
X152841639Y-56609095D01*
X152791520Y-56522284D01*
X152679716Y-56410480D01*
X152679715Y-56410479D01*
X152675385Y-56406149D01*
X152675374Y-56406139D01*
X152493757Y-56224522D01*
X152460272Y-56163199D01*
X152463507Y-56098523D01*
X152477246Y-56056243D01*
X152510500Y-55846287D01*
X152510500Y-55633713D01*
X152477246Y-55423757D01*
X152411557Y-55221588D01*
X152315051Y-55032184D01*
X152315049Y-55032181D01*
X152315048Y-55032179D01*
X152190109Y-54860213D01*
X152039786Y-54709890D01*
X151867820Y-54584951D01*
X151678414Y-54488444D01*
X151678413Y-54488443D01*
X151678412Y-54488443D01*
X151649246Y-54478966D01*
X151591571Y-54439529D01*
X151564373Y-54375171D01*
X151576288Y-54306324D01*
X151623532Y-54254849D01*
X151631270Y-54250551D01*
X151762732Y-54183566D01*
X151778532Y-54172085D01*
X151778533Y-54172085D01*
X151289410Y-53682962D01*
X151352993Y-53665925D01*
X151467007Y-53600099D01*
X151560099Y-53507007D01*
X151625925Y-53392993D01*
X151642962Y-53329409D01*
X152132085Y-53818532D01*
X152143568Y-53802730D01*
X152225745Y-53641452D01*
X152225748Y-53641444D01*
X152281682Y-53469293D01*
X152310000Y-53290506D01*
X152310000Y-53109494D01*
X152284965Y-52951433D01*
X152293919Y-52882140D01*
X152338915Y-52828688D01*
X152405667Y-52808048D01*
X152472981Y-52826773D01*
G37*
%TD.AperFunction*%
%TA.AperFunction,Conductor*%
G36*
X169912084Y-58898532D02*
G01*
X169915772Y-58898242D01*
X169984149Y-58912606D01*
X170033905Y-58961658D01*
X170049500Y-59021860D01*
X170049500Y-59720242D01*
X170029815Y-59787281D01*
X169977011Y-59833036D01*
X169907853Y-59842980D01*
X169844297Y-59813955D01*
X169837819Y-59807923D01*
X169819786Y-59789890D01*
X169647820Y-59664951D01*
X169458414Y-59568444D01*
X169458413Y-59568443D01*
X169458412Y-59568443D01*
X169429246Y-59558966D01*
X169371571Y-59519529D01*
X169344373Y-59455171D01*
X169356288Y-59386324D01*
X169403532Y-59334849D01*
X169411270Y-59330551D01*
X169542732Y-59263566D01*
X169558532Y-59252085D01*
X169558533Y-59252085D01*
X169069410Y-58762962D01*
X169132993Y-58745925D01*
X169247007Y-58680099D01*
X169340099Y-58587007D01*
X169405925Y-58472993D01*
X169422962Y-58409410D01*
X169912084Y-58898532D01*
G37*
%TD.AperFunction*%
%TA.AperFunction,Conductor*%
G36*
X167735895Y-52815852D02*
G01*
X167791828Y-52857724D01*
X167816245Y-52923188D01*
X167815034Y-52951431D01*
X167790000Y-53109492D01*
X167790000Y-53290506D01*
X167818317Y-53469293D01*
X167874251Y-53641444D01*
X167874252Y-53641447D01*
X167956431Y-53802730D01*
X167967913Y-53818532D01*
X167967913Y-53818533D01*
X168457037Y-53329408D01*
X168474075Y-53392993D01*
X168539901Y-53507007D01*
X168632993Y-53600099D01*
X168747007Y-53665925D01*
X168810590Y-53682962D01*
X168321466Y-54172085D01*
X168321466Y-54172086D01*
X168337267Y-54183566D01*
X168337275Y-54183571D01*
X168468729Y-54250551D01*
X168519525Y-54298526D01*
X168536320Y-54366347D01*
X168513782Y-54432482D01*
X168459067Y-54475933D01*
X168450761Y-54478964D01*
X168440716Y-54482227D01*
X168421583Y-54488444D01*
X168232179Y-54584951D01*
X168060213Y-54709890D01*
X167909890Y-54860213D01*
X167784951Y-55032179D01*
X167688444Y-55221585D01*
X167622753Y-55423760D01*
X167589500Y-55633713D01*
X167589500Y-55846286D01*
X167622754Y-56056244D01*
X167622754Y-56056247D01*
X167636491Y-56098523D01*
X167638486Y-56168364D01*
X167606241Y-56224522D01*
X165216952Y-58613812D01*
X165155629Y-58647297D01*
X165085937Y-58642313D01*
X165030004Y-58600441D01*
X165005587Y-58534977D01*
X165005271Y-58526131D01*
X165005271Y-55495325D01*
X165024956Y-55428286D01*
X165041585Y-55407649D01*
X167604882Y-52844351D01*
X167666203Y-52810868D01*
X167735895Y-52815852D01*
G37*
%TD.AperFunction*%
%TA.AperFunction,Conductor*%
G36*
X169968834Y-56723576D02*
G01*
X170024767Y-56765448D01*
X170049184Y-56830912D01*
X170049500Y-56839758D01*
X170049500Y-57538138D01*
X170029815Y-57605177D01*
X169977011Y-57650932D01*
X169915773Y-57661756D01*
X169912086Y-57661465D01*
X169422962Y-58150589D01*
X169405925Y-58087007D01*
X169340099Y-57972993D01*
X169247007Y-57879901D01*
X169132993Y-57814075D01*
X169069408Y-57797037D01*
X169558533Y-57307913D01*
X169542727Y-57296429D01*
X169411269Y-57229447D01*
X169360474Y-57181473D01*
X169343679Y-57113651D01*
X169366217Y-57047517D01*
X169420932Y-57004066D01*
X169429216Y-57001043D01*
X169458412Y-56991557D01*
X169647816Y-56895051D01*
X169723921Y-56839758D01*
X169819786Y-56770109D01*
X169819788Y-56770106D01*
X169819792Y-56770104D01*
X169837819Y-56752077D01*
X169899142Y-56718592D01*
X169968834Y-56723576D01*
G37*
%TD.AperFunction*%
%TA.AperFunction,Conductor*%
G36*
X169912084Y-53818532D02*
G01*
X169915772Y-53818242D01*
X169984149Y-53832606D01*
X170033905Y-53881658D01*
X170049500Y-53941860D01*
X170049500Y-54640242D01*
X170029815Y-54707281D01*
X169977011Y-54753036D01*
X169907853Y-54762980D01*
X169844297Y-54733955D01*
X169837819Y-54727923D01*
X169819786Y-54709890D01*
X169647820Y-54584951D01*
X169458414Y-54488444D01*
X169458413Y-54488443D01*
X169458412Y-54488443D01*
X169429246Y-54478966D01*
X169371571Y-54439529D01*
X169344373Y-54375171D01*
X169356288Y-54306324D01*
X169403532Y-54254849D01*
X169411270Y-54250551D01*
X169542732Y-54183566D01*
X169558532Y-54172085D01*
X169558533Y-54172085D01*
X169069410Y-53682962D01*
X169132993Y-53665925D01*
X169247007Y-53600099D01*
X169340099Y-53507007D01*
X169405925Y-53392993D01*
X169422962Y-53329410D01*
X169912084Y-53818532D01*
G37*
%TD.AperFunction*%
%TA.AperFunction,Conductor*%
G36*
X150694075Y-53392993D02*
G01*
X150759901Y-53507007D01*
X150852993Y-53600099D01*
X150967007Y-53665925D01*
X151030590Y-53682962D01*
X150541466Y-54172085D01*
X150541466Y-54172086D01*
X150557267Y-54183566D01*
X150557275Y-54183571D01*
X150688729Y-54250551D01*
X150739525Y-54298526D01*
X150756320Y-54366347D01*
X150733782Y-54432482D01*
X150679067Y-54475933D01*
X150670761Y-54478964D01*
X150660716Y-54482227D01*
X150641583Y-54488444D01*
X150452179Y-54584951D01*
X150280213Y-54709890D01*
X150280209Y-54709894D01*
X150262181Y-54727923D01*
X150200858Y-54761408D01*
X150131166Y-54756424D01*
X150075233Y-54714552D01*
X150050816Y-54649088D01*
X150050500Y-54640242D01*
X150050500Y-53941861D01*
X150070185Y-53874822D01*
X150122989Y-53829067D01*
X150184229Y-53818243D01*
X150187913Y-53818533D01*
X150677037Y-53329409D01*
X150694075Y-53392993D01*
G37*
%TD.AperFunction*%
%TA.AperFunction,Conductor*%
G36*
X150255703Y-51666045D02*
G01*
X150262181Y-51672077D01*
X150280213Y-51690109D01*
X150452179Y-51815048D01*
X150452181Y-51815049D01*
X150452184Y-51815051D01*
X150641588Y-51911557D01*
X150670753Y-51921033D01*
X150728426Y-51960468D01*
X150755625Y-52024826D01*
X150743712Y-52093673D01*
X150696469Y-52145149D01*
X150688730Y-52149447D01*
X150557269Y-52216431D01*
X150541466Y-52227912D01*
X150541466Y-52227913D01*
X151030590Y-52717037D01*
X150967007Y-52734075D01*
X150852993Y-52799901D01*
X150759901Y-52892993D01*
X150694075Y-53007007D01*
X150677037Y-53070590D01*
X150187913Y-52581466D01*
X150184229Y-52581756D01*
X150115852Y-52567392D01*
X150066095Y-52518340D01*
X150050500Y-52458138D01*
X150050500Y-51759758D01*
X150070185Y-51692719D01*
X150122989Y-51646964D01*
X150192147Y-51637020D01*
X150255703Y-51666045D01*
G37*
%TD.AperFunction*%
%TA.AperFunction,Conductor*%
G36*
X169968834Y-51643576D02*
G01*
X170024767Y-51685448D01*
X170049184Y-51750912D01*
X170049500Y-51759758D01*
X170049500Y-52458138D01*
X170029815Y-52525177D01*
X169977011Y-52570932D01*
X169915773Y-52581756D01*
X169912086Y-52581465D01*
X169422962Y-53070589D01*
X169405925Y-53007007D01*
X169340099Y-52892993D01*
X169247007Y-52799901D01*
X169132993Y-52734075D01*
X169069408Y-52717037D01*
X169558533Y-52227913D01*
X169542727Y-52216429D01*
X169411269Y-52149447D01*
X169360474Y-52101473D01*
X169343679Y-52033651D01*
X169366217Y-51967517D01*
X169420932Y-51924066D01*
X169429216Y-51921043D01*
X169458412Y-51911557D01*
X169647816Y-51815051D01*
X169681602Y-51790504D01*
X169819786Y-51690109D01*
X169819788Y-51690106D01*
X169819792Y-51690104D01*
X169837819Y-51672077D01*
X169899142Y-51638592D01*
X169968834Y-51643576D01*
G37*
%TD.AperFunction*%
%TD*%
M02*
