%TF.GenerationSoftware,KiCad,Pcbnew,9.0.7*%
%TF.CreationDate,2026-03-01T17:39:18-05:00*%
%TF.ProjectId,devboard,64657662-6f61-4726-942e-6b696361645f,rev?*%
%TF.SameCoordinates,Original*%
%TF.FileFunction,Legend,Top*%
%TF.FilePolarity,Positive*%
%FSLAX46Y46*%
G04 Gerber Fmt 4.6, Leading zero omitted, Abs format (unit mm)*
G04 Created by KiCad (PCBNEW 9.0.7) date 2026-03-01 17:39:18*
%MOMM*%
%LPD*%
G01*
G04 APERTURE LIST*
%ADD10C,0.125000*%
%ADD11C,0.120000*%
G04 APERTURE END LIST*
D10*
X159878571Y-61677190D02*
X159854762Y-61701000D01*
X159854762Y-61701000D02*
X159783333Y-61724809D01*
X159783333Y-61724809D02*
X159735714Y-61724809D01*
X159735714Y-61724809D02*
X159664286Y-61701000D01*
X159664286Y-61701000D02*
X159616667Y-61653380D01*
X159616667Y-61653380D02*
X159592857Y-61605761D01*
X159592857Y-61605761D02*
X159569048Y-61510523D01*
X159569048Y-61510523D02*
X159569048Y-61439095D01*
X159569048Y-61439095D02*
X159592857Y-61343857D01*
X159592857Y-61343857D02*
X159616667Y-61296238D01*
X159616667Y-61296238D02*
X159664286Y-61248619D01*
X159664286Y-61248619D02*
X159735714Y-61224809D01*
X159735714Y-61224809D02*
X159783333Y-61224809D01*
X159783333Y-61224809D02*
X159854762Y-61248619D01*
X159854762Y-61248619D02*
X159878571Y-61272428D01*
X160354762Y-61724809D02*
X160069048Y-61724809D01*
X160211905Y-61724809D02*
X160211905Y-61224809D01*
X160211905Y-61224809D02*
X160164286Y-61296238D01*
X160164286Y-61296238D02*
X160116667Y-61343857D01*
X160116667Y-61343857D02*
X160069048Y-61367666D01*
X160783333Y-61391476D02*
X160783333Y-61724809D01*
X160664285Y-61201000D02*
X160545238Y-61558142D01*
X160545238Y-61558142D02*
X160854761Y-61558142D01*
X154278571Y-56777190D02*
X154254762Y-56801000D01*
X154254762Y-56801000D02*
X154183333Y-56824809D01*
X154183333Y-56824809D02*
X154135714Y-56824809D01*
X154135714Y-56824809D02*
X154064286Y-56801000D01*
X154064286Y-56801000D02*
X154016667Y-56753380D01*
X154016667Y-56753380D02*
X153992857Y-56705761D01*
X153992857Y-56705761D02*
X153969048Y-56610523D01*
X153969048Y-56610523D02*
X153969048Y-56539095D01*
X153969048Y-56539095D02*
X153992857Y-56443857D01*
X153992857Y-56443857D02*
X154016667Y-56396238D01*
X154016667Y-56396238D02*
X154064286Y-56348619D01*
X154064286Y-56348619D02*
X154135714Y-56324809D01*
X154135714Y-56324809D02*
X154183333Y-56324809D01*
X154183333Y-56324809D02*
X154254762Y-56348619D01*
X154254762Y-56348619D02*
X154278571Y-56372428D01*
X154754762Y-56824809D02*
X154469048Y-56824809D01*
X154611905Y-56824809D02*
X154611905Y-56324809D01*
X154611905Y-56324809D02*
X154564286Y-56396238D01*
X154564286Y-56396238D02*
X154516667Y-56443857D01*
X154516667Y-56443857D02*
X154469048Y-56467666D01*
X154921428Y-56324809D02*
X155230952Y-56324809D01*
X155230952Y-56324809D02*
X155064285Y-56515285D01*
X155064285Y-56515285D02*
X155135714Y-56515285D01*
X155135714Y-56515285D02*
X155183333Y-56539095D01*
X155183333Y-56539095D02*
X155207142Y-56562904D01*
X155207142Y-56562904D02*
X155230952Y-56610523D01*
X155230952Y-56610523D02*
X155230952Y-56729571D01*
X155230952Y-56729571D02*
X155207142Y-56777190D01*
X155207142Y-56777190D02*
X155183333Y-56801000D01*
X155183333Y-56801000D02*
X155135714Y-56824809D01*
X155135714Y-56824809D02*
X154992857Y-56824809D01*
X154992857Y-56824809D02*
X154945238Y-56801000D01*
X154945238Y-56801000D02*
X154921428Y-56777190D01*
X155278571Y-84877190D02*
X155254762Y-84901000D01*
X155254762Y-84901000D02*
X155183333Y-84924809D01*
X155183333Y-84924809D02*
X155135714Y-84924809D01*
X155135714Y-84924809D02*
X155064286Y-84901000D01*
X155064286Y-84901000D02*
X155016667Y-84853380D01*
X155016667Y-84853380D02*
X154992857Y-84805761D01*
X154992857Y-84805761D02*
X154969048Y-84710523D01*
X154969048Y-84710523D02*
X154969048Y-84639095D01*
X154969048Y-84639095D02*
X154992857Y-84543857D01*
X154992857Y-84543857D02*
X155016667Y-84496238D01*
X155016667Y-84496238D02*
X155064286Y-84448619D01*
X155064286Y-84448619D02*
X155135714Y-84424809D01*
X155135714Y-84424809D02*
X155183333Y-84424809D01*
X155183333Y-84424809D02*
X155254762Y-84448619D01*
X155254762Y-84448619D02*
X155278571Y-84472428D01*
X155754762Y-84924809D02*
X155469048Y-84924809D01*
X155611905Y-84924809D02*
X155611905Y-84424809D01*
X155611905Y-84424809D02*
X155564286Y-84496238D01*
X155564286Y-84496238D02*
X155516667Y-84543857D01*
X155516667Y-84543857D02*
X155469048Y-84567666D01*
X156207142Y-84424809D02*
X155969047Y-84424809D01*
X155969047Y-84424809D02*
X155945238Y-84662904D01*
X155945238Y-84662904D02*
X155969047Y-84639095D01*
X155969047Y-84639095D02*
X156016666Y-84615285D01*
X156016666Y-84615285D02*
X156135714Y-84615285D01*
X156135714Y-84615285D02*
X156183333Y-84639095D01*
X156183333Y-84639095D02*
X156207142Y-84662904D01*
X156207142Y-84662904D02*
X156230952Y-84710523D01*
X156230952Y-84710523D02*
X156230952Y-84829571D01*
X156230952Y-84829571D02*
X156207142Y-84877190D01*
X156207142Y-84877190D02*
X156183333Y-84901000D01*
X156183333Y-84901000D02*
X156135714Y-84924809D01*
X156135714Y-84924809D02*
X156016666Y-84924809D01*
X156016666Y-84924809D02*
X155969047Y-84901000D01*
X155969047Y-84901000D02*
X155945238Y-84877190D01*
X162978571Y-84177190D02*
X162954762Y-84201000D01*
X162954762Y-84201000D02*
X162883333Y-84224809D01*
X162883333Y-84224809D02*
X162835714Y-84224809D01*
X162835714Y-84224809D02*
X162764286Y-84201000D01*
X162764286Y-84201000D02*
X162716667Y-84153380D01*
X162716667Y-84153380D02*
X162692857Y-84105761D01*
X162692857Y-84105761D02*
X162669048Y-84010523D01*
X162669048Y-84010523D02*
X162669048Y-83939095D01*
X162669048Y-83939095D02*
X162692857Y-83843857D01*
X162692857Y-83843857D02*
X162716667Y-83796238D01*
X162716667Y-83796238D02*
X162764286Y-83748619D01*
X162764286Y-83748619D02*
X162835714Y-83724809D01*
X162835714Y-83724809D02*
X162883333Y-83724809D01*
X162883333Y-83724809D02*
X162954762Y-83748619D01*
X162954762Y-83748619D02*
X162978571Y-83772428D01*
X163454762Y-84224809D02*
X163169048Y-84224809D01*
X163311905Y-84224809D02*
X163311905Y-83724809D01*
X163311905Y-83724809D02*
X163264286Y-83796238D01*
X163264286Y-83796238D02*
X163216667Y-83843857D01*
X163216667Y-83843857D02*
X163169048Y-83867666D01*
X163883333Y-83724809D02*
X163788095Y-83724809D01*
X163788095Y-83724809D02*
X163740476Y-83748619D01*
X163740476Y-83748619D02*
X163716666Y-83772428D01*
X163716666Y-83772428D02*
X163669047Y-83843857D01*
X163669047Y-83843857D02*
X163645238Y-83939095D01*
X163645238Y-83939095D02*
X163645238Y-84129571D01*
X163645238Y-84129571D02*
X163669047Y-84177190D01*
X163669047Y-84177190D02*
X163692857Y-84201000D01*
X163692857Y-84201000D02*
X163740476Y-84224809D01*
X163740476Y-84224809D02*
X163835714Y-84224809D01*
X163835714Y-84224809D02*
X163883333Y-84201000D01*
X163883333Y-84201000D02*
X163907142Y-84177190D01*
X163907142Y-84177190D02*
X163930952Y-84129571D01*
X163930952Y-84129571D02*
X163930952Y-84010523D01*
X163930952Y-84010523D02*
X163907142Y-83962904D01*
X163907142Y-83962904D02*
X163883333Y-83939095D01*
X163883333Y-83939095D02*
X163835714Y-83915285D01*
X163835714Y-83915285D02*
X163740476Y-83915285D01*
X163740476Y-83915285D02*
X163692857Y-83939095D01*
X163692857Y-83939095D02*
X163669047Y-83962904D01*
X163669047Y-83962904D02*
X163645238Y-84010523D01*
X157278571Y-66277190D02*
X157254762Y-66301000D01*
X157254762Y-66301000D02*
X157183333Y-66324809D01*
X157183333Y-66324809D02*
X157135714Y-66324809D01*
X157135714Y-66324809D02*
X157064286Y-66301000D01*
X157064286Y-66301000D02*
X157016667Y-66253380D01*
X157016667Y-66253380D02*
X156992857Y-66205761D01*
X156992857Y-66205761D02*
X156969048Y-66110523D01*
X156969048Y-66110523D02*
X156969048Y-66039095D01*
X156969048Y-66039095D02*
X156992857Y-65943857D01*
X156992857Y-65943857D02*
X157016667Y-65896238D01*
X157016667Y-65896238D02*
X157064286Y-65848619D01*
X157064286Y-65848619D02*
X157135714Y-65824809D01*
X157135714Y-65824809D02*
X157183333Y-65824809D01*
X157183333Y-65824809D02*
X157254762Y-65848619D01*
X157254762Y-65848619D02*
X157278571Y-65872428D01*
X157754762Y-66324809D02*
X157469048Y-66324809D01*
X157611905Y-66324809D02*
X157611905Y-65824809D01*
X157611905Y-65824809D02*
X157564286Y-65896238D01*
X157564286Y-65896238D02*
X157516667Y-65943857D01*
X157516667Y-65943857D02*
X157469048Y-65967666D01*
X157921428Y-65824809D02*
X158254761Y-65824809D01*
X158254761Y-65824809D02*
X158040476Y-66324809D01*
X165733333Y-53924809D02*
X165733333Y-54281952D01*
X165733333Y-54281952D02*
X165709524Y-54353380D01*
X165709524Y-54353380D02*
X165661905Y-54401000D01*
X165661905Y-54401000D02*
X165590476Y-54424809D01*
X165590476Y-54424809D02*
X165542857Y-54424809D01*
X166233333Y-54424809D02*
X165947619Y-54424809D01*
X166090476Y-54424809D02*
X166090476Y-53924809D01*
X166090476Y-53924809D02*
X166042857Y-53996238D01*
X166042857Y-53996238D02*
X165995238Y-54043857D01*
X165995238Y-54043857D02*
X165947619Y-54067666D01*
X153233333Y-47024809D02*
X153233333Y-47381952D01*
X153233333Y-47381952D02*
X153209524Y-47453380D01*
X153209524Y-47453380D02*
X153161905Y-47501000D01*
X153161905Y-47501000D02*
X153090476Y-47524809D01*
X153090476Y-47524809D02*
X153042857Y-47524809D01*
X153447619Y-47072428D02*
X153471428Y-47048619D01*
X153471428Y-47048619D02*
X153519047Y-47024809D01*
X153519047Y-47024809D02*
X153638095Y-47024809D01*
X153638095Y-47024809D02*
X153685714Y-47048619D01*
X153685714Y-47048619D02*
X153709523Y-47072428D01*
X153709523Y-47072428D02*
X153733333Y-47120047D01*
X153733333Y-47120047D02*
X153733333Y-47167666D01*
X153733333Y-47167666D02*
X153709523Y-47239095D01*
X153709523Y-47239095D02*
X153423809Y-47524809D01*
X153423809Y-47524809D02*
X153733333Y-47524809D01*
X166433333Y-96924809D02*
X166433333Y-97281952D01*
X166433333Y-97281952D02*
X166409524Y-97353380D01*
X166409524Y-97353380D02*
X166361905Y-97401000D01*
X166361905Y-97401000D02*
X166290476Y-97424809D01*
X166290476Y-97424809D02*
X166242857Y-97424809D01*
X166623809Y-96924809D02*
X166933333Y-96924809D01*
X166933333Y-96924809D02*
X166766666Y-97115285D01*
X166766666Y-97115285D02*
X166838095Y-97115285D01*
X166838095Y-97115285D02*
X166885714Y-97139095D01*
X166885714Y-97139095D02*
X166909523Y-97162904D01*
X166909523Y-97162904D02*
X166933333Y-97210523D01*
X166933333Y-97210523D02*
X166933333Y-97329571D01*
X166933333Y-97329571D02*
X166909523Y-97377190D01*
X166909523Y-97377190D02*
X166885714Y-97401000D01*
X166885714Y-97401000D02*
X166838095Y-97424809D01*
X166838095Y-97424809D02*
X166695238Y-97424809D01*
X166695238Y-97424809D02*
X166647619Y-97401000D01*
X166647619Y-97401000D02*
X166623809Y-97377190D01*
X155133333Y-97124809D02*
X155133333Y-97481952D01*
X155133333Y-97481952D02*
X155109524Y-97553380D01*
X155109524Y-97553380D02*
X155061905Y-97601000D01*
X155061905Y-97601000D02*
X154990476Y-97624809D01*
X154990476Y-97624809D02*
X154942857Y-97624809D01*
X155585714Y-97291476D02*
X155585714Y-97624809D01*
X155466666Y-97101000D02*
X155347619Y-97458142D01*
X155347619Y-97458142D02*
X155657142Y-97458142D01*
X163586666Y-55304809D02*
X163420000Y-55066714D01*
X163300952Y-55304809D02*
X163300952Y-54804809D01*
X163300952Y-54804809D02*
X163491428Y-54804809D01*
X163491428Y-54804809D02*
X163539047Y-54828619D01*
X163539047Y-54828619D02*
X163562857Y-54852428D01*
X163562857Y-54852428D02*
X163586666Y-54900047D01*
X163586666Y-54900047D02*
X163586666Y-54971476D01*
X163586666Y-54971476D02*
X163562857Y-55019095D01*
X163562857Y-55019095D02*
X163539047Y-55042904D01*
X163539047Y-55042904D02*
X163491428Y-55066714D01*
X163491428Y-55066714D02*
X163300952Y-55066714D01*
X164062857Y-55304809D02*
X163777143Y-55304809D01*
X163920000Y-55304809D02*
X163920000Y-54804809D01*
X163920000Y-54804809D02*
X163872381Y-54876238D01*
X163872381Y-54876238D02*
X163824762Y-54923857D01*
X163824762Y-54923857D02*
X163777143Y-54947666D01*
X160316666Y-55324809D02*
X160150000Y-55086714D01*
X160030952Y-55324809D02*
X160030952Y-54824809D01*
X160030952Y-54824809D02*
X160221428Y-54824809D01*
X160221428Y-54824809D02*
X160269047Y-54848619D01*
X160269047Y-54848619D02*
X160292857Y-54872428D01*
X160292857Y-54872428D02*
X160316666Y-54920047D01*
X160316666Y-54920047D02*
X160316666Y-54991476D01*
X160316666Y-54991476D02*
X160292857Y-55039095D01*
X160292857Y-55039095D02*
X160269047Y-55062904D01*
X160269047Y-55062904D02*
X160221428Y-55086714D01*
X160221428Y-55086714D02*
X160030952Y-55086714D01*
X160507143Y-54872428D02*
X160530952Y-54848619D01*
X160530952Y-54848619D02*
X160578571Y-54824809D01*
X160578571Y-54824809D02*
X160697619Y-54824809D01*
X160697619Y-54824809D02*
X160745238Y-54848619D01*
X160745238Y-54848619D02*
X160769047Y-54872428D01*
X160769047Y-54872428D02*
X160792857Y-54920047D01*
X160792857Y-54920047D02*
X160792857Y-54967666D01*
X160792857Y-54967666D02*
X160769047Y-55039095D01*
X160769047Y-55039095D02*
X160483333Y-55324809D01*
X160483333Y-55324809D02*
X160792857Y-55324809D01*
X161116666Y-81424809D02*
X160950000Y-81186714D01*
X160830952Y-81424809D02*
X160830952Y-80924809D01*
X160830952Y-80924809D02*
X161021428Y-80924809D01*
X161021428Y-80924809D02*
X161069047Y-80948619D01*
X161069047Y-80948619D02*
X161092857Y-80972428D01*
X161092857Y-80972428D02*
X161116666Y-81020047D01*
X161116666Y-81020047D02*
X161116666Y-81091476D01*
X161116666Y-81091476D02*
X161092857Y-81139095D01*
X161092857Y-81139095D02*
X161069047Y-81162904D01*
X161069047Y-81162904D02*
X161021428Y-81186714D01*
X161021428Y-81186714D02*
X160830952Y-81186714D01*
X161569047Y-80924809D02*
X161330952Y-80924809D01*
X161330952Y-80924809D02*
X161307143Y-81162904D01*
X161307143Y-81162904D02*
X161330952Y-81139095D01*
X161330952Y-81139095D02*
X161378571Y-81115285D01*
X161378571Y-81115285D02*
X161497619Y-81115285D01*
X161497619Y-81115285D02*
X161545238Y-81139095D01*
X161545238Y-81139095D02*
X161569047Y-81162904D01*
X161569047Y-81162904D02*
X161592857Y-81210523D01*
X161592857Y-81210523D02*
X161592857Y-81329571D01*
X161592857Y-81329571D02*
X161569047Y-81377190D01*
X161569047Y-81377190D02*
X161545238Y-81401000D01*
X161545238Y-81401000D02*
X161497619Y-81424809D01*
X161497619Y-81424809D02*
X161378571Y-81424809D01*
X161378571Y-81424809D02*
X161330952Y-81401000D01*
X161330952Y-81401000D02*
X161307143Y-81377190D01*
X153416666Y-66524809D02*
X153250000Y-66286714D01*
X153130952Y-66524809D02*
X153130952Y-66024809D01*
X153130952Y-66024809D02*
X153321428Y-66024809D01*
X153321428Y-66024809D02*
X153369047Y-66048619D01*
X153369047Y-66048619D02*
X153392857Y-66072428D01*
X153392857Y-66072428D02*
X153416666Y-66120047D01*
X153416666Y-66120047D02*
X153416666Y-66191476D01*
X153416666Y-66191476D02*
X153392857Y-66239095D01*
X153392857Y-66239095D02*
X153369047Y-66262904D01*
X153369047Y-66262904D02*
X153321428Y-66286714D01*
X153321428Y-66286714D02*
X153130952Y-66286714D01*
X153845238Y-66024809D02*
X153750000Y-66024809D01*
X153750000Y-66024809D02*
X153702381Y-66048619D01*
X153702381Y-66048619D02*
X153678571Y-66072428D01*
X153678571Y-66072428D02*
X153630952Y-66143857D01*
X153630952Y-66143857D02*
X153607143Y-66239095D01*
X153607143Y-66239095D02*
X153607143Y-66429571D01*
X153607143Y-66429571D02*
X153630952Y-66477190D01*
X153630952Y-66477190D02*
X153654762Y-66501000D01*
X153654762Y-66501000D02*
X153702381Y-66524809D01*
X153702381Y-66524809D02*
X153797619Y-66524809D01*
X153797619Y-66524809D02*
X153845238Y-66501000D01*
X153845238Y-66501000D02*
X153869047Y-66477190D01*
X153869047Y-66477190D02*
X153892857Y-66429571D01*
X153892857Y-66429571D02*
X153892857Y-66310523D01*
X153892857Y-66310523D02*
X153869047Y-66262904D01*
X153869047Y-66262904D02*
X153845238Y-66239095D01*
X153845238Y-66239095D02*
X153797619Y-66215285D01*
X153797619Y-66215285D02*
X153702381Y-66215285D01*
X153702381Y-66215285D02*
X153654762Y-66239095D01*
X153654762Y-66239095D02*
X153630952Y-66262904D01*
X153630952Y-66262904D02*
X153607143Y-66310523D01*
X154616666Y-72224809D02*
X154450000Y-71986714D01*
X154330952Y-72224809D02*
X154330952Y-71724809D01*
X154330952Y-71724809D02*
X154521428Y-71724809D01*
X154521428Y-71724809D02*
X154569047Y-71748619D01*
X154569047Y-71748619D02*
X154592857Y-71772428D01*
X154592857Y-71772428D02*
X154616666Y-71820047D01*
X154616666Y-71820047D02*
X154616666Y-71891476D01*
X154616666Y-71891476D02*
X154592857Y-71939095D01*
X154592857Y-71939095D02*
X154569047Y-71962904D01*
X154569047Y-71962904D02*
X154521428Y-71986714D01*
X154521428Y-71986714D02*
X154330952Y-71986714D01*
X154783333Y-71724809D02*
X155116666Y-71724809D01*
X155116666Y-71724809D02*
X154902381Y-72224809D01*
X156033334Y-62001000D02*
X156104762Y-62024809D01*
X156104762Y-62024809D02*
X156223810Y-62024809D01*
X156223810Y-62024809D02*
X156271429Y-62001000D01*
X156271429Y-62001000D02*
X156295238Y-61977190D01*
X156295238Y-61977190D02*
X156319048Y-61929571D01*
X156319048Y-61929571D02*
X156319048Y-61881952D01*
X156319048Y-61881952D02*
X156295238Y-61834333D01*
X156295238Y-61834333D02*
X156271429Y-61810523D01*
X156271429Y-61810523D02*
X156223810Y-61786714D01*
X156223810Y-61786714D02*
X156128572Y-61762904D01*
X156128572Y-61762904D02*
X156080953Y-61739095D01*
X156080953Y-61739095D02*
X156057143Y-61715285D01*
X156057143Y-61715285D02*
X156033334Y-61667666D01*
X156033334Y-61667666D02*
X156033334Y-61620047D01*
X156033334Y-61620047D02*
X156057143Y-61572428D01*
X156057143Y-61572428D02*
X156080953Y-61548619D01*
X156080953Y-61548619D02*
X156128572Y-61524809D01*
X156128572Y-61524809D02*
X156247619Y-61524809D01*
X156247619Y-61524809D02*
X156319048Y-61548619D01*
X156485714Y-61524809D02*
X156604762Y-62024809D01*
X156604762Y-62024809D02*
X156700000Y-61667666D01*
X156700000Y-61667666D02*
X156795238Y-62024809D01*
X156795238Y-62024809D02*
X156914286Y-61524809D01*
X157366667Y-62024809D02*
X157080953Y-62024809D01*
X157223810Y-62024809D02*
X157223810Y-61524809D01*
X157223810Y-61524809D02*
X157176191Y-61596238D01*
X157176191Y-61596238D02*
X157128572Y-61643857D01*
X157128572Y-61643857D02*
X157080953Y-61667666D01*
X157219047Y-71424809D02*
X157219047Y-71829571D01*
X157219047Y-71829571D02*
X157242857Y-71877190D01*
X157242857Y-71877190D02*
X157266666Y-71901000D01*
X157266666Y-71901000D02*
X157314285Y-71924809D01*
X157314285Y-71924809D02*
X157409523Y-71924809D01*
X157409523Y-71924809D02*
X157457142Y-71901000D01*
X157457142Y-71901000D02*
X157480952Y-71877190D01*
X157480952Y-71877190D02*
X157504761Y-71829571D01*
X157504761Y-71829571D02*
X157504761Y-71424809D01*
X158004762Y-71924809D02*
X157719048Y-71924809D01*
X157861905Y-71924809D02*
X157861905Y-71424809D01*
X157861905Y-71424809D02*
X157814286Y-71496238D01*
X157814286Y-71496238D02*
X157766667Y-71543857D01*
X157766667Y-71543857D02*
X157719048Y-71567666D01*
X154919047Y-57324809D02*
X154919047Y-57729571D01*
X154919047Y-57729571D02*
X154942857Y-57777190D01*
X154942857Y-57777190D02*
X154966666Y-57801000D01*
X154966666Y-57801000D02*
X155014285Y-57824809D01*
X155014285Y-57824809D02*
X155109523Y-57824809D01*
X155109523Y-57824809D02*
X155157142Y-57801000D01*
X155157142Y-57801000D02*
X155180952Y-57777190D01*
X155180952Y-57777190D02*
X155204761Y-57729571D01*
X155204761Y-57729571D02*
X155204761Y-57324809D01*
X155419048Y-57372428D02*
X155442857Y-57348619D01*
X155442857Y-57348619D02*
X155490476Y-57324809D01*
X155490476Y-57324809D02*
X155609524Y-57324809D01*
X155609524Y-57324809D02*
X155657143Y-57348619D01*
X155657143Y-57348619D02*
X155680952Y-57372428D01*
X155680952Y-57372428D02*
X155704762Y-57420047D01*
X155704762Y-57420047D02*
X155704762Y-57467666D01*
X155704762Y-57467666D02*
X155680952Y-57539095D01*
X155680952Y-57539095D02*
X155395238Y-57824809D01*
X155395238Y-57824809D02*
X155704762Y-57824809D01*
D11*
%TO.C,C14*%
X159259420Y-59790000D02*
X159540580Y-59790000D01*
X159259420Y-60810000D02*
X159540580Y-60810000D01*
%TO.C,C13*%
X155540580Y-55910000D02*
X155259420Y-55910000D01*
X155540580Y-54890000D02*
X155259420Y-54890000D01*
%TO.C,C1*%
X160412164Y-68550000D02*
X160627836Y-68550000D01*
X160412164Y-67830000D02*
X160627836Y-67830000D01*
%TO.C,C2*%
X164842164Y-73100000D02*
X165057836Y-73100000D01*
X164842164Y-72380000D02*
X165057836Y-72380000D01*
%TO.C,C3*%
X160412164Y-68820000D02*
X160627836Y-68820000D01*
X160412164Y-69540000D02*
X160627836Y-69540000D01*
%TO.C,C4*%
X165152164Y-70120000D02*
X165367836Y-70120000D01*
X165152164Y-69400000D02*
X165367836Y-69400000D01*
%TO.C,C5*%
X165152164Y-71110000D02*
X165367836Y-71110000D01*
X165152164Y-70390000D02*
X165367836Y-70390000D01*
%TO.C,C6*%
X165152164Y-69140000D02*
X165367836Y-69140000D01*
X165152164Y-68420000D02*
X165367836Y-68420000D01*
%TO.C,C7*%
X165162164Y-72100000D02*
X165377836Y-72100000D01*
X165162164Y-71380000D02*
X165377836Y-71380000D01*
%TO.C,C8*%
X160412164Y-66860000D02*
X160627836Y-66860000D01*
X160412164Y-67580000D02*
X160627836Y-67580000D01*
%TO.C,C9*%
X160412164Y-65870000D02*
X160627836Y-65870000D01*
X160412164Y-66590000D02*
X160627836Y-66590000D01*
%TO.C,C10*%
X163272164Y-71230000D02*
X163487836Y-71230000D01*
X163272164Y-71950000D02*
X163487836Y-71950000D01*
%TO.C,C11*%
X163272164Y-69970000D02*
X163487836Y-69970000D01*
X163272164Y-69250000D02*
X163487836Y-69250000D01*
%TO.C,C12*%
X163272164Y-70960000D02*
X163487836Y-70960000D01*
X163272164Y-70240000D02*
X163487836Y-70240000D01*
%TO.C,C15*%
X157180000Y-84902164D02*
X157180000Y-85117836D01*
X156460000Y-84902164D02*
X156460000Y-85117836D01*
%TO.C,C16*%
X162430000Y-84062164D02*
X162430000Y-84277836D01*
X161710000Y-84062164D02*
X161710000Y-84277836D01*
%TO.C,C17*%
X157437164Y-66540000D02*
X157652836Y-66540000D01*
X157437164Y-67260000D02*
X157652836Y-67260000D01*
%TO.C,J1*%
X164750000Y-51150000D02*
X164750000Y-49150000D01*
X164750000Y-47250000D02*
X164750000Y-45350000D01*
X164750000Y-45350000D02*
X155350000Y-45350000D01*
X155350000Y-51150000D02*
X155350000Y-49150000D01*
X155350000Y-47250000D02*
X155350000Y-45350000D01*
%TO.C,J2*%
X152540000Y-49390000D02*
X152540000Y-97760000D01*
X149780000Y-97760000D02*
X152540000Y-97760000D01*
X149780000Y-49390000D02*
X152540000Y-49390000D01*
X149780000Y-49390000D02*
X149780000Y-97760000D01*
X149780000Y-48120000D02*
X149780000Y-46740000D01*
X149780000Y-46740000D02*
X151160000Y-46740000D01*
%TO.C,J3*%
X170320000Y-97760000D02*
X168940000Y-97760000D01*
X170320000Y-96380000D02*
X170320000Y-97760000D01*
X170320000Y-95110000D02*
X170320000Y-46740000D01*
X170320000Y-95110000D02*
X167560000Y-95110000D01*
X170320000Y-46740000D02*
X167560000Y-46740000D01*
X167560000Y-95110000D02*
X167560000Y-46740000D01*
%TO.C,J4*%
X163970000Y-97520000D02*
X163970000Y-94760000D01*
X158780000Y-97520000D02*
X163970000Y-97520000D01*
X158780000Y-97520000D02*
X158780000Y-94760000D01*
X158780000Y-94760000D02*
X163970000Y-94760000D01*
X157510000Y-97520000D02*
X156130000Y-97520000D01*
X156130000Y-97520000D02*
X156130000Y-96140000D01*
%TO.C,R1*%
X162086359Y-55450000D02*
X162393641Y-55450000D01*
X162086359Y-54690000D02*
X162393641Y-54690000D01*
%TO.C,R2*%
X158796359Y-55430000D02*
X159103641Y-55430000D01*
X158796359Y-54670000D02*
X159103641Y-54670000D01*
%TO.C,R3*%
X162130000Y-70886359D02*
X162130000Y-71193641D01*
X161370000Y-70886359D02*
X161370000Y-71193641D01*
%TO.C,R4*%
X161130000Y-70886359D02*
X161130000Y-71193641D01*
X160370000Y-70886359D02*
X160370000Y-71193641D01*
%TO.C,R5*%
X160560000Y-81543641D02*
X160560000Y-81236359D01*
X159800000Y-81543641D02*
X159800000Y-81236359D01*
%TO.C,R6*%
X154890000Y-66366359D02*
X154890000Y-66673641D01*
X154130000Y-66366359D02*
X154130000Y-66673641D01*
%TO.C,R7*%
X156130000Y-72116359D02*
X156130000Y-72423641D01*
X155370000Y-72116359D02*
X155370000Y-72423641D01*
%TO.C,SW1*%
X158850000Y-65360000D02*
X154710000Y-65360000D01*
X158850000Y-65060000D02*
X158850000Y-65360000D01*
X158850000Y-62220000D02*
X158850000Y-62520000D01*
X154710000Y-65360000D02*
X154710000Y-65060000D01*
X154710000Y-62520000D02*
X154710000Y-62220000D01*
X154710000Y-62220000D02*
X158850000Y-62220000D01*
%TO.C,U1*%
X155910000Y-73650000D02*
X155580000Y-73890000D01*
X155580000Y-73410000D01*
X155910000Y-73650000D01*
G36*
X155910000Y-73650000D02*
G01*
X155580000Y-73890000D01*
X155580000Y-73410000D01*
X155910000Y-73650000D01*
G37*
X163660000Y-79860000D02*
X163010000Y-79860000D01*
X163660000Y-79210000D02*
X163660000Y-79860000D01*
X163660000Y-72640000D02*
X163660000Y-73290000D01*
X163010000Y-72640000D02*
X163660000Y-72640000D01*
X157090000Y-79860000D02*
X156440000Y-79860000D01*
X156440000Y-79860000D02*
X156440000Y-79210000D01*
X156440000Y-73290000D02*
X156440000Y-72640000D01*
X156440000Y-72640000D02*
X157090000Y-72640000D01*
%TO.C,U2*%
X157450000Y-59040000D02*
X157120000Y-58800000D01*
X157450000Y-58560000D01*
X157450000Y-59040000D01*
G36*
X157450000Y-59040000D02*
G01*
X157120000Y-58800000D01*
X157450000Y-58560000D01*
X157450000Y-59040000D01*
G37*
X159060000Y-58260000D02*
X159010000Y-58260000D01*
X159060000Y-56740000D02*
X159060000Y-58260000D01*
X158060000Y-56740000D02*
X159060000Y-56740000D01*
X157890000Y-58260000D02*
X157110000Y-58260000D01*
X155990000Y-58260000D02*
X155940000Y-58260000D01*
X155940000Y-58260000D02*
X155940000Y-56740000D01*
X155940000Y-56740000D02*
X156940000Y-56740000D01*
%TO.C,U3*%
X155295000Y-67510000D02*
X155155000Y-67320000D01*
X155435000Y-67320000D01*
X155295000Y-67510000D01*
G36*
X155295000Y-67510000D02*
G01*
X155155000Y-67320000D01*
X155435000Y-67320000D01*
X155295000Y-67510000D01*
G37*
X158385000Y-69785000D02*
X155165000Y-69785000D01*
X155589432Y-67515000D02*
X158385000Y-67515000D01*
%TO.C,Y1*%
X161510000Y-85880000D02*
X161510000Y-82460000D01*
X161510000Y-82460000D02*
X157390000Y-82460000D01*
%TD*%
M02*
