%TF.GenerationSoftware,KiCad,Pcbnew,9.0.7*%
%TF.CreationDate,2026-03-01T20:48:27-05:00*%
%TF.ProjectId,devboard,64657662-6f61-4726-942e-6b696361645f,rev?*%
%TF.SameCoordinates,Original*%
%TF.FileFunction,Soldermask,Bot*%
%TF.FilePolarity,Negative*%
%FSLAX46Y46*%
G04 Gerber Fmt 4.6, Leading zero omitted, Abs format (unit mm)*
G04 Created by KiCad (PCBNEW 9.0.7) date 2026-03-01 20:48:27*
%MOMM*%
%LPD*%
G01*
G04 APERTURE LIST*
%ADD10R,1.700000X1.700000*%
%ADD11C,1.700000*%
%ADD12C,0.650000*%
%ADD13O,1.000000X2.100000*%
%ADD14O,1.000000X1.600000*%
G04 APERTURE END LIST*
D10*
%TO.C,J2*%
X151160000Y-48120000D03*
D11*
X151160000Y-50660000D03*
X151160000Y-53200000D03*
X151160000Y-55740000D03*
X151160000Y-58280000D03*
X151160000Y-60820000D03*
X151160000Y-63360000D03*
X151160000Y-65900000D03*
X151160000Y-68440000D03*
X151160000Y-70980000D03*
X151160000Y-73520000D03*
X151160000Y-76060000D03*
X151160000Y-78600000D03*
X151160000Y-81140000D03*
X151160000Y-83680000D03*
X151160000Y-86220000D03*
X151160000Y-88760000D03*
X151160000Y-91300000D03*
X151160000Y-93840000D03*
X151160000Y-96380000D03*
%TD*%
D10*
%TO.C,J4*%
X157510000Y-96140000D03*
D11*
X160050000Y-96140000D03*
X162590000Y-96140000D03*
%TD*%
D10*
%TO.C,J3*%
X168940000Y-96380000D03*
D11*
X168940000Y-93840000D03*
X168940000Y-91300000D03*
X168940000Y-88760000D03*
X168940000Y-86220000D03*
X168940000Y-83680000D03*
X168940000Y-81140000D03*
X168940000Y-78600000D03*
X168940000Y-76060000D03*
X168940000Y-73520000D03*
X168940000Y-70980000D03*
X168940000Y-68440000D03*
X168940000Y-65900000D03*
X168940000Y-63360000D03*
X168940000Y-60820000D03*
X168940000Y-58280000D03*
X168940000Y-55740000D03*
X168940000Y-53200000D03*
X168940000Y-50660000D03*
X168940000Y-48120000D03*
%TD*%
D12*
%TO.C,J1*%
X162940000Y-51850000D03*
X157160000Y-51850000D03*
D13*
X164370000Y-52380000D03*
D14*
X164370000Y-48200000D03*
D13*
X155730000Y-52380000D03*
D14*
X155730000Y-48200000D03*
%TD*%
M02*
