%TF.GenerationSoftware,KiCad,Pcbnew,9.0.7*%
%TF.CreationDate,2026-03-01T20:48:27-05:00*%
%TF.ProjectId,devboard,64657662-6f61-4726-942e-6b696361645f,rev?*%
%TF.SameCoordinates,Original*%
%TF.FileFunction,Copper,L1,Top*%
%TF.FilePolarity,Positive*%
%FSLAX46Y46*%
G04 Gerber Fmt 4.6, Leading zero omitted, Abs format (unit mm)*
G04 Created by KiCad (PCBNEW 9.0.7) date 2026-03-01 20:48:27*
%MOMM*%
%LPD*%
G01*
G04 APERTURE LIST*
G04 Aperture macros list*
%AMRoundRect*
0 Rectangle with rounded corners*
0 $1 Rounding radius*
0 $2 $3 $4 $5 $6 $7 $8 $9 X,Y pos of 4 corners*
0 Add a 4 corners polygon primitive as box body*
4,1,4,$2,$3,$4,$5,$6,$7,$8,$9,$2,$3,0*
0 Add four circle primitives for the rounded corners*
1,1,$1+$1,$2,$3*
1,1,$1+$1,$4,$5*
1,1,$1+$1,$6,$7*
1,1,$1+$1,$8,$9*
0 Add four rect primitives between the rounded corners*
20,1,$1+$1,$2,$3,$4,$5,0*
20,1,$1+$1,$4,$5,$6,$7,0*
20,1,$1+$1,$6,$7,$8,$9,0*
20,1,$1+$1,$8,$9,$2,$3,0*%
G04 Aperture macros list end*
%TA.AperFunction,SMDPad,CuDef*%
%ADD10RoundRect,0.140000X0.170000X-0.140000X0.170000X0.140000X-0.170000X0.140000X-0.170000X-0.140000X0*%
%TD*%
%TA.AperFunction,SMDPad,CuDef*%
%ADD11RoundRect,0.140000X-0.140000X-0.170000X0.140000X-0.170000X0.140000X0.170000X-0.140000X0.170000X0*%
%TD*%
%TA.AperFunction,SMDPad,CuDef*%
%ADD12RoundRect,0.225000X0.225000X0.250000X-0.225000X0.250000X-0.225000X-0.250000X0.225000X-0.250000X0*%
%TD*%
%TA.AperFunction,ComponentPad*%
%ADD13R,1.700000X1.700000*%
%TD*%
%TA.AperFunction,ComponentPad*%
%ADD14C,1.700000*%
%TD*%
%TA.AperFunction,SMDPad,CuDef*%
%ADD15RoundRect,0.135000X0.185000X-0.135000X0.185000X0.135000X-0.185000X0.135000X-0.185000X-0.135000X0*%
%TD*%
%TA.AperFunction,SMDPad,CuDef*%
%ADD16RoundRect,0.135000X-0.185000X0.135000X-0.185000X-0.135000X0.185000X-0.135000X0.185000X0.135000X0*%
%TD*%
%TA.AperFunction,SMDPad,CuDef*%
%ADD17RoundRect,0.140000X-0.170000X0.140000X-0.170000X-0.140000X0.170000X-0.140000X0.170000X0.140000X0*%
%TD*%
%TA.AperFunction,SMDPad,CuDef*%
%ADD18RoundRect,0.225000X-0.225000X-0.250000X0.225000X-0.250000X0.225000X0.250000X-0.225000X0.250000X0*%
%TD*%
%TA.AperFunction,SMDPad,CuDef*%
%ADD19RoundRect,0.062500X-0.387500X-0.062500X0.387500X-0.062500X0.387500X0.062500X-0.387500X0.062500X0*%
%TD*%
%TA.AperFunction,HeatsinkPad*%
%ADD20R,0.200000X1.600000*%
%TD*%
%TA.AperFunction,SMDPad,CuDef*%
%ADD21RoundRect,0.050000X-0.387500X-0.050000X0.387500X-0.050000X0.387500X0.050000X-0.387500X0.050000X0*%
%TD*%
%TA.AperFunction,SMDPad,CuDef*%
%ADD22RoundRect,0.050000X-0.050000X-0.387500X0.050000X-0.387500X0.050000X0.387500X-0.050000X0.387500X0*%
%TD*%
%TA.AperFunction,HeatsinkPad*%
%ADD23R,3.200000X3.200000*%
%TD*%
%TA.AperFunction,SMDPad,CuDef*%
%ADD24RoundRect,0.135000X-0.135000X-0.185000X0.135000X-0.185000X0.135000X0.185000X-0.135000X0.185000X0*%
%TD*%
%TA.AperFunction,SMDPad,CuDef*%
%ADD25RoundRect,0.150000X0.150000X-0.587500X0.150000X0.587500X-0.150000X0.587500X-0.150000X-0.587500X0*%
%TD*%
%TA.AperFunction,SMDPad,CuDef*%
%ADD26RoundRect,0.200000X0.200000X0.800000X-0.200000X0.800000X-0.200000X-0.800000X0.200000X-0.800000X0*%
%TD*%
%TA.AperFunction,SMDPad,CuDef*%
%ADD27RoundRect,0.250000X0.450000X0.350000X-0.450000X0.350000X-0.450000X-0.350000X0.450000X-0.350000X0*%
%TD*%
%TA.AperFunction,SMDPad,CuDef*%
%ADD28RoundRect,0.140000X0.140000X0.170000X-0.140000X0.170000X-0.140000X-0.170000X0.140000X-0.170000X0*%
%TD*%
%TA.AperFunction,SMDPad,CuDef*%
%ADD29R,0.600000X1.450000*%
%TD*%
%TA.AperFunction,SMDPad,CuDef*%
%ADD30R,0.300000X1.450000*%
%TD*%
%TA.AperFunction,HeatsinkPad*%
%ADD31O,1.000000X2.100000*%
%TD*%
%TA.AperFunction,HeatsinkPad*%
%ADD32O,1.000000X1.600000*%
%TD*%
%TA.AperFunction,ViaPad*%
%ADD33C,0.600000*%
%TD*%
%TA.AperFunction,Conductor*%
%ADD34C,0.200000*%
%TD*%
G04 APERTURE END LIST*
D10*
%TO.P,C6,1*%
%TO.N,+3V3*%
X154750000Y-72750000D03*
%TO.P,C6,2*%
%TO.N,GND*%
X154750000Y-71790000D03*
%TD*%
D11*
%TO.P,C3,1*%
%TO.N,+3V3*%
X160040000Y-69180000D03*
%TO.P,C3,2*%
%TO.N,GND*%
X161000000Y-69180000D03*
%TD*%
D12*
%TO.P,C13,1*%
%TO.N,VBUS*%
X156175000Y-55400000D03*
%TO.P,C13,2*%
%TO.N,GND*%
X154625000Y-55400000D03*
%TD*%
D13*
%TO.P,J2,1,Pin_1*%
%TO.N,GPIO0*%
X151160000Y-48120000D03*
D14*
%TO.P,J2,2,Pin_2*%
%TO.N,GPIO1*%
X151160000Y-50660000D03*
%TO.P,J2,3,Pin_3*%
%TO.N,GND*%
X151160000Y-53200000D03*
%TO.P,J2,4,Pin_4*%
%TO.N,GPIO2*%
X151160000Y-55740000D03*
%TO.P,J2,5,Pin_5*%
%TO.N,GPIO3*%
X151160000Y-58280000D03*
%TO.P,J2,6,Pin_6*%
%TO.N,GPIO4*%
X151160000Y-60820000D03*
%TO.P,J2,7,Pin_7*%
%TO.N,GPIO5*%
X151160000Y-63360000D03*
%TO.P,J2,8,Pin_8*%
%TO.N,GND*%
X151160000Y-65900000D03*
%TO.P,J2,9,Pin_9*%
%TO.N,GPIO6*%
X151160000Y-68440000D03*
%TO.P,J2,10,Pin_10*%
%TO.N,GPIO7*%
X151160000Y-70980000D03*
%TO.P,J2,11,Pin_11*%
%TO.N,GPIO8*%
X151160000Y-73520000D03*
%TO.P,J2,12,Pin_12*%
%TO.N,GPIO9*%
X151160000Y-76060000D03*
%TO.P,J2,13,Pin_13*%
%TO.N,GND*%
X151160000Y-78600000D03*
%TO.P,J2,14,Pin_14*%
%TO.N,GPIO10*%
X151160000Y-81140000D03*
%TO.P,J2,15,Pin_15*%
%TO.N,GPIO11*%
X151160000Y-83680000D03*
%TO.P,J2,16,Pin_16*%
%TO.N,GPIO12*%
X151160000Y-86220000D03*
%TO.P,J2,17,Pin_17*%
%TO.N,GPIO13*%
X151160000Y-88760000D03*
%TO.P,J2,18,Pin_18*%
%TO.N,GND*%
X151160000Y-91300000D03*
%TO.P,J2,19,Pin_19*%
%TO.N,GPIO14*%
X151160000Y-93840000D03*
%TO.P,J2,20,Pin_20*%
%TO.N,GPIO15*%
X151160000Y-96380000D03*
%TD*%
D11*
%TO.P,C1,1*%
%TO.N,+3V3*%
X160040000Y-68190000D03*
%TO.P,C1,2*%
%TO.N,GND*%
X161000000Y-68190000D03*
%TD*%
D15*
%TO.P,R5,1*%
%TO.N,Net-(Y1-Tri-State)*%
X160180000Y-81900000D03*
%TO.P,R5,2*%
%TO.N,XOUT*%
X160180000Y-80880000D03*
%TD*%
D16*
%TO.P,R6,1*%
%TO.N,Net-(R6-Pad1)*%
X154510000Y-66010000D03*
%TO.P,R6,2*%
%TO.N,QSPI_SS*%
X154510000Y-67030000D03*
%TD*%
D17*
%TO.P,C8,1*%
%TO.N,+3V3*%
X162200000Y-81820000D03*
%TO.P,C8,2*%
%TO.N,GND*%
X162200000Y-82780000D03*
%TD*%
D10*
%TO.P,C15,1*%
%TO.N,GND*%
X156800000Y-85480000D03*
%TO.P,C15,2*%
%TO.N,XIN*%
X156800000Y-84520000D03*
%TD*%
D18*
%TO.P,C14,1*%
%TO.N,+3V3*%
X158625000Y-60300000D03*
%TO.P,C14,2*%
%TO.N,GND*%
X160175000Y-60300000D03*
%TD*%
D11*
%TO.P,C17,1*%
%TO.N,GND*%
X157065000Y-66900000D03*
%TO.P,C17,2*%
%TO.N,+3V3*%
X158025000Y-66900000D03*
%TD*%
D13*
%TO.P,J4,1,Pin_1*%
%TO.N,SWDI0*%
X157510000Y-96140000D03*
D14*
%TO.P,J4,2,Pin_2*%
%TO.N,GND*%
X160050000Y-96140000D03*
%TO.P,J4,3,Pin_3*%
%TO.N,SWCLK*%
X162590000Y-96140000D03*
%TD*%
D19*
%TO.P,U3,1,~{CS}*%
%TO.N,QSPI_SS*%
X155350000Y-67900000D03*
%TO.P,U3,2,DO/IO_{1}*%
%TO.N,QSPI_SD1*%
X155350000Y-68400000D03*
%TO.P,U3,3,~{WP}/IO_{2}*%
%TO.N,QSPI_SD2*%
X155350000Y-68900000D03*
%TO.P,U3,4,GND*%
%TO.N,GND*%
X155350000Y-69400000D03*
%TO.P,U3,5,DI/IO_{0}*%
%TO.N,QSPI_SD0*%
X158200000Y-69400000D03*
%TO.P,U3,6,CLK*%
%TO.N,QSPI_SCLK*%
X158200000Y-68900000D03*
%TO.P,U3,7,~{HOLD}/~{RESET}/IO_{3}*%
%TO.N,QSPI_SD3*%
X158200000Y-68400000D03*
%TO.P,U3,8,VCC*%
%TO.N,+3V3*%
X158200000Y-67900000D03*
D20*
%TO.P,U3,9*%
%TO.N,N/C*%
X156775000Y-68650000D03*
%TD*%
D21*
%TO.P,U1,1,IOVDD*%
%TO.N,+3V3*%
X156612500Y-73650000D03*
%TO.P,U1,2,GPIO0*%
%TO.N,GPIO0*%
X156612500Y-74050000D03*
%TO.P,U1,3,GPIO1*%
%TO.N,GPIO1*%
X156612500Y-74450000D03*
%TO.P,U1,4,GPIO2*%
%TO.N,GPIO2*%
X156612500Y-74850000D03*
%TO.P,U1,5,GPIO3*%
%TO.N,GPIO3*%
X156612500Y-75250000D03*
%TO.P,U1,6,GPIO4*%
%TO.N,GPIO4*%
X156612500Y-75650000D03*
%TO.P,U1,7,GPIO5*%
%TO.N,GPIO5*%
X156612500Y-76050000D03*
%TO.P,U1,8,GPIO6*%
%TO.N,GPIO6*%
X156612500Y-76450000D03*
%TO.P,U1,9,GPIO7*%
%TO.N,GPIO7*%
X156612500Y-76850000D03*
%TO.P,U1,10,IOVDD*%
%TO.N,+3V3*%
X156612500Y-77250000D03*
%TO.P,U1,11,GPIO8*%
%TO.N,GPIO8*%
X156612500Y-77650000D03*
%TO.P,U1,12,GPIO9*%
%TO.N,GPIO9*%
X156612500Y-78050000D03*
%TO.P,U1,13,GPIO10*%
%TO.N,GPIO10*%
X156612500Y-78450000D03*
%TO.P,U1,14,GPIO11*%
%TO.N,GPIO11*%
X156612500Y-78850000D03*
D22*
%TO.P,U1,15,GPIO12*%
%TO.N,GPIO12*%
X157450000Y-79687500D03*
%TO.P,U1,16,GPIO13*%
%TO.N,GPIO13*%
X157850000Y-79687500D03*
%TO.P,U1,17,GPIO14*%
%TO.N,GPIO14*%
X158250000Y-79687500D03*
%TO.P,U1,18,GPIO15*%
%TO.N,GPIO15*%
X158650000Y-79687500D03*
%TO.P,U1,19,TESTEN*%
%TO.N,GND*%
X159050000Y-79687500D03*
%TO.P,U1,20,XIN*%
%TO.N,XIN*%
X159450000Y-79687500D03*
%TO.P,U1,21,XOUT*%
%TO.N,XOUT*%
X159850000Y-79687500D03*
%TO.P,U1,22,IOVDD*%
%TO.N,+3V3*%
X160250000Y-79687500D03*
%TO.P,U1,23,DVDD*%
X160650000Y-79687500D03*
%TO.P,U1,24,SWCLK*%
%TO.N,SWCLK*%
X161050000Y-79687500D03*
%TO.P,U1,25,SWDIO*%
%TO.N,SWDI0*%
X161450000Y-79687500D03*
%TO.P,U1,26,RUN*%
%TO.N,RUN*%
X161850000Y-79687500D03*
%TO.P,U1,27,GPIO16*%
%TO.N,GPIO16*%
X162250000Y-79687500D03*
%TO.P,U1,28,GPIO17*%
%TO.N,GPIO17*%
X162650000Y-79687500D03*
D21*
%TO.P,U1,29,GPIO18*%
%TO.N,GPIO18*%
X163487500Y-78850000D03*
%TO.P,U1,30,GPIO19*%
%TO.N,GPIO19*%
X163487500Y-78450000D03*
%TO.P,U1,31,GPIO20*%
%TO.N,GPIO20*%
X163487500Y-78050000D03*
%TO.P,U1,32,GPIO21*%
%TO.N,GPIO21*%
X163487500Y-77650000D03*
%TO.P,U1,33,IOVDD*%
%TO.N,+3V3*%
X163487500Y-77250000D03*
%TO.P,U1,34,GPIO22*%
%TO.N,GPIO22*%
X163487500Y-76850000D03*
%TO.P,U1,35,GPIO23*%
%TO.N,GPIO23*%
X163487500Y-76450000D03*
%TO.P,U1,36,GPIO24*%
%TO.N,GPIO24*%
X163487500Y-76050000D03*
%TO.P,U1,37,GPIO25*%
%TO.N,unconnected-(U1-GPIO25-Pad37)*%
X163487500Y-75650000D03*
%TO.P,U1,38,GPIO26/ADC0*%
%TO.N,GPIO26_ADC0*%
X163487500Y-75250000D03*
%TO.P,U1,39,GPIO27/ADC1*%
%TO.N,GPIO27_ADC1*%
X163487500Y-74850000D03*
%TO.P,U1,40,GPIO28/ADC2*%
%TO.N,GPIO28_ADC2*%
X163487500Y-74450000D03*
%TO.P,U1,41,GPIO29/ADC3*%
%TO.N,GPIO29_ADC3*%
X163487500Y-74050000D03*
%TO.P,U1,42,IOVDD*%
%TO.N,+3V3*%
X163487500Y-73650000D03*
D22*
%TO.P,U1,43,ADC_AVDD*%
%TO.N,+1V1*%
X162650000Y-72812500D03*
%TO.P,U1,44,VREG_VIN*%
%TO.N,+3V3*%
X162250000Y-72812500D03*
%TO.P,U1,45,VREG_VOUT*%
X161850000Y-72812500D03*
%TO.P,U1,46,USB_DM*%
%TO.N,Net-(U1-USB_DM)*%
X161450000Y-72812500D03*
%TO.P,U1,47,USB_DP*%
%TO.N,Net-(U1-USB_DP)*%
X161050000Y-72812500D03*
%TO.P,U1,48,USB_VDD*%
%TO.N,+1V1*%
X160650000Y-72812500D03*
%TO.P,U1,49,IOVDD*%
%TO.N,+3V3*%
X160250000Y-72812500D03*
%TO.P,U1,50,DVDD*%
X159850000Y-72812500D03*
%TO.P,U1,51,QSPI_SD3*%
%TO.N,QSPI_SD3*%
X159450000Y-72812500D03*
%TO.P,U1,52,QSPI_SCLK*%
%TO.N,QSPI_SCLK*%
X159050000Y-72812500D03*
%TO.P,U1,53,QSPI_SD0*%
%TO.N,QSPI_SD0*%
X158650000Y-72812500D03*
%TO.P,U1,54,QSPI_SD2*%
%TO.N,QSPI_SD2*%
X158250000Y-72812500D03*
%TO.P,U1,55,QSPI_SD1*%
%TO.N,QSPI_SD1*%
X157850000Y-72812500D03*
%TO.P,U1,56,~{QSPI_SS}*%
%TO.N,QSPI_SS*%
X157450000Y-72812500D03*
D23*
%TO.P,U1,57,GND*%
%TO.N,GND*%
X160050000Y-76250000D03*
%TD*%
D11*
%TO.P,C4,2*%
%TO.N,GND*%
X166700000Y-77500000D03*
%TO.P,C4,1*%
%TO.N,+3V3*%
X165740000Y-77500000D03*
%TD*%
%TO.P,C2,1*%
%TO.N,+3V3*%
X164320000Y-72750000D03*
%TO.P,C2,2*%
%TO.N,GND*%
X165280000Y-72750000D03*
%TD*%
%TO.P,C12,1*%
%TO.N,+1V1*%
X162740000Y-70600000D03*
%TO.P,C12,2*%
%TO.N,GND*%
X163700000Y-70600000D03*
%TD*%
D16*
%TO.P,R7,1*%
%TO.N,QSPI_SS*%
X155750000Y-71760000D03*
%TO.P,R7,2*%
%TO.N,+3V3*%
X155750000Y-72780000D03*
%TD*%
D11*
%TO.P,C7,1*%
%TO.N,+3V3*%
X164620000Y-71750000D03*
%TO.P,C7,2*%
%TO.N,GND*%
X165580000Y-71750000D03*
%TD*%
%TO.P,C11,1*%
%TO.N,+1V1*%
X162740000Y-69610000D03*
%TO.P,C11,2*%
%TO.N,GND*%
X163700000Y-69610000D03*
%TD*%
D24*
%TO.P,R1,1*%
%TO.N,Net-(J1-CC1)*%
X161730000Y-55070000D03*
%TO.P,R1,2*%
%TO.N,GND*%
X162750000Y-55070000D03*
%TD*%
D25*
%TO.P,U2,1,GND*%
%TO.N,GND*%
X156550000Y-58437500D03*
%TO.P,U2,2,VO*%
%TO.N,+3V3*%
X158450000Y-58437500D03*
%TO.P,U2,3,VI*%
%TO.N,VBUS*%
X157500000Y-56562500D03*
%TD*%
D16*
%TO.P,R4,1*%
%TO.N,USB_D+*%
X160750000Y-70530000D03*
%TO.P,R4,2*%
%TO.N,Net-(U1-USB_DP)*%
X160750000Y-71550000D03*
%TD*%
D17*
%TO.P,C9,1*%
%TO.N,+3V3*%
X161200000Y-80920000D03*
%TO.P,C9,2*%
%TO.N,GND*%
X161200000Y-81880000D03*
%TD*%
D26*
%TO.P,SW1,1,1*%
%TO.N,GND*%
X158880000Y-63790000D03*
%TO.P,SW1,2,2*%
%TO.N,Net-(R6-Pad1)*%
X154680000Y-63790000D03*
%TD*%
D24*
%TO.P,R2,1*%
%TO.N,Net-(J1-CC2)*%
X158440000Y-55050000D03*
%TO.P,R2,2*%
%TO.N,GND*%
X159460000Y-55050000D03*
%TD*%
D16*
%TO.P,R3,1*%
%TO.N,USB_D-*%
X161750000Y-70530000D03*
%TO.P,R3,2*%
%TO.N,Net-(U1-USB_DM)*%
X161750000Y-71550000D03*
%TD*%
D11*
%TO.P,C10,1*%
%TO.N,+1V1*%
X162740000Y-71590000D03*
%TO.P,C10,2*%
%TO.N,GND*%
X163700000Y-71590000D03*
%TD*%
D27*
%TO.P,Y1,1,Tri-State*%
%TO.N,Net-(Y1-Tri-State)*%
X160550000Y-83320000D03*
%TO.P,Y1,2,GND*%
%TO.N,GND*%
X158350000Y-83320000D03*
%TO.P,Y1,3,OUT*%
%TO.N,XIN*%
X158350000Y-85020000D03*
%TO.P,Y1,4,VDD*%
%TO.N,GND*%
X160550000Y-85020000D03*
%TD*%
D28*
%TO.P,C5,1*%
%TO.N,+3V3*%
X154950000Y-77150000D03*
%TO.P,C5,2*%
%TO.N,GND*%
X153990000Y-77150000D03*
%TD*%
D13*
%TO.P,J3,1,Pin_1*%
%TO.N,GPIO16*%
X168940000Y-96380000D03*
D14*
%TO.P,J3,2,Pin_2*%
%TO.N,GPIO17*%
X168940000Y-93840000D03*
%TO.P,J3,3,Pin_3*%
%TO.N,GND*%
X168940000Y-91300000D03*
%TO.P,J3,4,Pin_4*%
%TO.N,GPIO18*%
X168940000Y-88760000D03*
%TO.P,J3,5,Pin_5*%
%TO.N,GPIO19*%
X168940000Y-86220000D03*
%TO.P,J3,6,Pin_6*%
%TO.N,GPIO20*%
X168940000Y-83680000D03*
%TO.P,J3,7,Pin_7*%
%TO.N,GPIO21*%
X168940000Y-81140000D03*
%TO.P,J3,8,Pin_8*%
%TO.N,GND*%
X168940000Y-78600000D03*
%TO.P,J3,9,Pin_9*%
%TO.N,GPIO22*%
X168940000Y-76060000D03*
%TO.P,J3,10,Pin_10*%
%TO.N,RUN*%
X168940000Y-73520000D03*
%TO.P,J3,11,Pin_11*%
%TO.N,GPIO23*%
X168940000Y-70980000D03*
%TO.P,J3,12,Pin_12*%
%TO.N,GPIO24*%
X168940000Y-68440000D03*
%TO.P,J3,13,Pin_13*%
%TO.N,GND*%
X168940000Y-65900000D03*
%TO.P,J3,14,Pin_14*%
%TO.N,GPIO26_ADC0*%
X168940000Y-63360000D03*
%TO.P,J3,15,Pin_15*%
%TO.N,GPIO27_ADC1*%
X168940000Y-60820000D03*
%TO.P,J3,16,Pin_16*%
%TO.N,GND*%
X168940000Y-58280000D03*
%TO.P,J3,17,Pin_17*%
%TO.N,GPIO28_ADC2*%
X168940000Y-55740000D03*
%TO.P,J3,18,Pin_18*%
%TO.N,GND*%
X168940000Y-53200000D03*
%TO.P,J3,19,Pin_19*%
%TO.N,GPIO29_ADC3*%
X168940000Y-50660000D03*
%TO.P,J3,20,Pin_20*%
%TO.N,VBUS*%
X168940000Y-48120000D03*
%TD*%
D29*
%TO.P,J1,A1,GND*%
%TO.N,GND*%
X163300000Y-53295000D03*
%TO.P,J1,A4,VBUS*%
%TO.N,VBUS*%
X162500000Y-53295000D03*
D30*
%TO.P,J1,A5,CC1*%
%TO.N,Net-(J1-CC1)*%
X161300000Y-53295000D03*
%TO.P,J1,A6,D+*%
%TO.N,USB_D+*%
X160300000Y-53295000D03*
%TO.P,J1,A7,D-*%
%TO.N,USB_D-*%
X159800000Y-53295000D03*
%TO.P,J1,A8*%
%TO.N,N/C*%
X158800000Y-53295000D03*
D29*
%TO.P,J1,A9,VBUS*%
%TO.N,VBUS*%
X157600000Y-53295000D03*
%TO.P,J1,A12,GND*%
%TO.N,GND*%
X156800000Y-53295000D03*
%TO.P,J1,B1,GND*%
X156800000Y-53295000D03*
%TO.P,J1,B4,VBUS*%
%TO.N,VBUS*%
X157600000Y-53295000D03*
D30*
%TO.P,J1,B5,CC2*%
%TO.N,Net-(J1-CC2)*%
X158300000Y-53295000D03*
%TO.P,J1,B6,D+*%
%TO.N,USB_D+*%
X159300000Y-53295000D03*
%TO.P,J1,B7,D-*%
%TO.N,USB_D-*%
X160800000Y-53295000D03*
%TO.P,J1,B8*%
%TO.N,N/C*%
X161800000Y-53295000D03*
D29*
%TO.P,J1,B9,VBUS*%
%TO.N,VBUS*%
X162500000Y-53295000D03*
%TO.P,J1,B12,GND*%
%TO.N,GND*%
X163300000Y-53295000D03*
D31*
%TO.P,J1,S1,SHIELD*%
X164370000Y-52380000D03*
D32*
X164370000Y-48200000D03*
D31*
X155730000Y-52380000D03*
D32*
X155730000Y-48200000D03*
%TD*%
D17*
%TO.P,C16,1*%
%TO.N,Net-(Y1-Tri-State)*%
X162070000Y-83690000D03*
%TO.P,C16,2*%
%TO.N,GND*%
X162070000Y-84650000D03*
%TD*%
D33*
%TO.N,SWCLK*%
X163600000Y-91300000D03*
%TO.N,GND*%
X153400000Y-76000000D03*
X155100000Y-70951000D03*
X162040000Y-85900000D03*
%TO.N,SWCLK*%
X161200000Y-78651000D03*
%TO.N,+3V3*%
X155675329Y-73976924D03*
X160343387Y-74069885D03*
X161773194Y-74143490D03*
X157949998Y-76647911D03*
%TO.N,GND*%
X155830000Y-66800000D03*
X161940000Y-76240000D03*
X159370000Y-56060000D03*
X159050000Y-78860000D03*
X156209265Y-69760735D03*
%TO.N,+1V1*%
X163064745Y-73050000D03*
X161076653Y-73750000D03*
%TO.N,GPIO1*%
X158228947Y-74190000D03*
%TO.N,GPIO2*%
X157890727Y-75050000D03*
%TO.N,GPIO4*%
X157949998Y-75847908D03*
%TO.N,GPIO0*%
X159615574Y-73737787D03*
%TO.N,GPIO28_ADC2*%
X165097593Y-74250000D03*
%TO.N,GPIO29_ADC3*%
X164404771Y-73850001D03*
%TO.N,GPIO26_ADC0*%
X165605735Y-75450000D03*
%TO.N,GPIO27_ADC1*%
X165895185Y-74312020D03*
%TO.N,RUN*%
X162550000Y-78448254D03*
%TD*%
D34*
%TO.N,SWCLK*%
X163550000Y-95180000D02*
X162590000Y-96140000D01*
X163550000Y-91350000D02*
X163550000Y-95180000D01*
X163600000Y-91300000D02*
X163550000Y-91350000D01*
%TO.N,XIN*%
X159450000Y-83920000D02*
X159450000Y-79687500D01*
X158350000Y-85020000D02*
X159450000Y-83920000D01*
X157850000Y-84520000D02*
X158350000Y-85020000D01*
X156800000Y-84520000D02*
X157850000Y-84520000D01*
%TO.N,+3V3*%
X164320000Y-72817500D02*
X163487500Y-73650000D01*
X164470000Y-72600000D02*
X164470000Y-71900000D01*
X164470000Y-71900000D02*
X164620000Y-71750000D01*
X164320000Y-72750000D02*
X164320000Y-72817500D01*
X164320000Y-72750000D02*
X164470000Y-72600000D01*
X164760000Y-71750000D02*
X164620000Y-71750000D01*
X164780000Y-71730000D02*
X164760000Y-71750000D01*
%TO.N,+1V1*%
X162740000Y-69610000D02*
X162740000Y-70600000D01*
X162740000Y-71590000D02*
X162740000Y-70600000D01*
X162650000Y-71680000D02*
X162740000Y-71590000D01*
X162650000Y-72812500D02*
X162650000Y-71680000D01*
%TO.N,GND*%
X153990000Y-76590000D02*
X153400000Y-76000000D01*
X153990000Y-77150000D02*
X153990000Y-76590000D01*
%TO.N,GPIO9*%
X153162000Y-78062000D02*
X151160000Y-76060000D01*
X156600500Y-78062000D02*
X153162000Y-78062000D01*
X156612500Y-78050000D02*
X156600500Y-78062000D01*
%TO.N,GPIO8*%
X153684162Y-77711000D02*
X152261000Y-76287838D01*
X152261000Y-76287838D02*
X152261000Y-74621000D01*
X155255838Y-77711000D02*
X153684162Y-77711000D01*
X152261000Y-74621000D02*
X151160000Y-73520000D01*
X155316838Y-77650000D02*
X155255838Y-77711000D01*
X156612500Y-77650000D02*
X155316838Y-77650000D01*
%TO.N,+3V3*%
X155050000Y-77250000D02*
X154950000Y-77150000D01*
X156612500Y-77250000D02*
X155050000Y-77250000D01*
%TO.N,GPIO10*%
X155893612Y-78450000D02*
X156612500Y-78450000D01*
X153203612Y-81140000D02*
X155893612Y-78450000D01*
X151160000Y-81140000D02*
X153203612Y-81140000D01*
%TO.N,GND*%
X154750000Y-71301000D02*
X155100000Y-70951000D01*
X154750000Y-71790000D02*
X154750000Y-71301000D01*
X161000000Y-61125000D02*
X160175000Y-60300000D01*
X161000000Y-68190000D02*
X161000000Y-61125000D01*
X162631000Y-85309000D02*
X162040000Y-85900000D01*
X162631000Y-83211000D02*
X162631000Y-85309000D01*
X162200000Y-82780000D02*
X162631000Y-83211000D01*
%TO.N,SWDI0*%
X163510000Y-90140000D02*
X157510000Y-96140000D01*
X163510000Y-82212064D02*
X163510000Y-90140000D01*
X161450000Y-80152064D02*
X163510000Y-82212064D01*
X161450000Y-79687500D02*
X161450000Y-80152064D01*
%TO.N,GND*%
X162100000Y-82780000D02*
X161200000Y-81880000D01*
X162200000Y-82780000D02*
X162100000Y-82780000D01*
%TO.N,SWCLK*%
X161050000Y-78801000D02*
X161200000Y-78651000D01*
X161050000Y-79687500D02*
X161050000Y-78801000D01*
%TO.N,+3V3*%
X162552226Y-77398774D02*
X162552226Y-76852226D01*
X161850000Y-78101000D02*
X162552226Y-77398774D01*
X160650000Y-78301000D02*
X160850000Y-78101000D01*
X160650000Y-79687500D02*
X160650000Y-78301000D01*
X160850000Y-78101000D02*
X161850000Y-78101000D01*
X162100000Y-81820000D02*
X161200000Y-80920000D01*
X162200000Y-81820000D02*
X162100000Y-81820000D01*
X161173612Y-80920000D02*
X160650000Y-80396388D01*
X161200000Y-80920000D02*
X161173612Y-80920000D01*
X160650000Y-80396388D02*
X160650000Y-79687500D01*
%TO.N,GPIO21*%
X168513162Y-81140000D02*
X168940000Y-81140000D01*
X165023162Y-77650000D02*
X168513162Y-81140000D01*
X163487500Y-77650000D02*
X165023162Y-77650000D01*
%TO.N,+3V3*%
X165490000Y-77250000D02*
X163487500Y-77250000D01*
X165740000Y-77500000D02*
X165490000Y-77250000D01*
X155720000Y-72750000D02*
X155750000Y-72780000D01*
X154750000Y-72750000D02*
X155720000Y-72750000D01*
X160250000Y-73976498D02*
X160343387Y-74069885D01*
X158625000Y-60300000D02*
X160040000Y-61715000D01*
X160650000Y-79687500D02*
X160250000Y-79687500D01*
X160040000Y-68190000D02*
X160040000Y-69180000D01*
X160040000Y-66230000D02*
X160040000Y-67220000D01*
X158450000Y-60125000D02*
X158625000Y-60300000D01*
X158025000Y-67725000D02*
X158200000Y-67900000D01*
X157160000Y-77250000D02*
X157949998Y-78039998D01*
X155750000Y-72780000D02*
X155750000Y-73902253D01*
X158061000Y-78151000D02*
X159248774Y-78151000D01*
X155750000Y-72787500D02*
X156612500Y-73650000D01*
X162058736Y-74143490D02*
X162552226Y-73650000D01*
X160250000Y-72812500D02*
X160250000Y-73976498D01*
X158200000Y-67900000D02*
X159750000Y-67900000D01*
X163487500Y-77250000D02*
X162950000Y-77250000D01*
X158025000Y-66900000D02*
X158025000Y-67725000D01*
X162250000Y-73347774D02*
X162250000Y-72812500D01*
X162250000Y-72812500D02*
X161850000Y-72812500D01*
X160250000Y-79152226D02*
X160250000Y-79687500D01*
X156612500Y-77250000D02*
X157160000Y-77250000D01*
X158450000Y-58437500D02*
X158450000Y-60125000D01*
X157949998Y-76647911D02*
X157949998Y-78039998D01*
X162950000Y-77250000D02*
X162552226Y-76852226D01*
X163487500Y-73650000D02*
X162552226Y-73650000D01*
X159750000Y-67900000D02*
X160040000Y-68190000D01*
X159850000Y-69370000D02*
X160040000Y-69180000D01*
X159248774Y-78151000D02*
X160250000Y-79152226D01*
X159850000Y-72812500D02*
X159850000Y-69370000D01*
X162552226Y-76852226D02*
X162552226Y-73650000D01*
X157949998Y-78039998D02*
X158061000Y-78151000D01*
X161773194Y-74143490D02*
X162058736Y-74143490D01*
X160040000Y-61715000D02*
X160040000Y-66230000D01*
X155750000Y-73902253D02*
X155675329Y-73976924D01*
X155750000Y-72780000D02*
X155750000Y-72787500D01*
X160040000Y-67220000D02*
X160040000Y-68190000D01*
X162552226Y-73650000D02*
X162250000Y-73347774D01*
X160250000Y-72812500D02*
X159850000Y-72812500D01*
%TO.N,GND*%
X155848530Y-69400000D02*
X156209265Y-69760735D01*
X159460000Y-55970000D02*
X159370000Y-56060000D01*
X161682226Y-76250000D02*
X160050000Y-76250000D01*
X159460000Y-55050000D02*
X159460000Y-55970000D01*
X155350000Y-69400000D02*
X155848530Y-69400000D01*
X161940000Y-76240000D02*
X161682226Y-76250000D01*
X161000000Y-69180000D02*
X161000000Y-68190000D01*
X159050000Y-79687500D02*
X159050000Y-78860000D01*
%TO.N,+1V1*%
X161040000Y-73750000D02*
X160650000Y-73360000D01*
X160650000Y-73360000D02*
X160650000Y-72812500D01*
X161076653Y-73750000D02*
X161040000Y-73750000D01*
X162650000Y-72812500D02*
X162827245Y-72812500D01*
X162827245Y-72812500D02*
X163064745Y-73050000D01*
%TO.N,VBUS*%
X162804992Y-51029000D02*
X162251000Y-51582992D01*
X157320000Y-56382500D02*
X157500000Y-56562500D01*
X158186008Y-51780000D02*
X157600000Y-52366008D01*
X157320000Y-55000000D02*
X157600000Y-54720000D01*
X156175000Y-55400000D02*
X156337500Y-55400000D01*
X162251000Y-53046000D02*
X162500000Y-53295000D01*
X162251000Y-51780000D02*
X158186008Y-51780000D01*
X166031000Y-51029000D02*
X162804992Y-51029000D01*
X162251000Y-51780000D02*
X162251000Y-53046000D01*
X157320000Y-55000000D02*
X157320000Y-56382500D01*
X156337500Y-55400000D02*
X157500000Y-56562500D01*
X168940000Y-48120000D02*
X166031000Y-51029000D01*
X162251000Y-51582992D02*
X162251000Y-51780000D01*
X157600000Y-52366008D02*
X157600000Y-53295000D01*
X157600000Y-54720000D02*
X157600000Y-53295000D01*
%TO.N,Net-(Y1-Tri-State)*%
X162070000Y-83690000D02*
X160920000Y-83690000D01*
X160000000Y-82770000D02*
X160550000Y-83320000D01*
X160920000Y-83690000D02*
X160550000Y-83320000D01*
X160000000Y-82080000D02*
X160000000Y-82770000D01*
X160180000Y-81900000D02*
X160000000Y-82080000D01*
%TO.N,Net-(J1-CC1)*%
X161730000Y-55070000D02*
X161420000Y-55070000D01*
X161300000Y-54950000D02*
X161300000Y-53295000D01*
X161420000Y-55070000D02*
X161300000Y-54950000D01*
%TO.N,USB_D-*%
X162270980Y-63220000D02*
X162499157Y-63220000D01*
X162030980Y-62380000D02*
X162030980Y-62260000D01*
X160775000Y-54407501D02*
X160800000Y-54382501D01*
X162030980Y-61012110D02*
X162030980Y-59344742D01*
X159800000Y-52318000D02*
X159849000Y-52269000D01*
X159800000Y-53295000D02*
X159800000Y-52318000D01*
X162030980Y-70249020D02*
X162030980Y-63460000D01*
X160839000Y-52269000D02*
X160849000Y-52279000D01*
X161750000Y-70530000D02*
X162030980Y-70249020D01*
X162739157Y-62980000D02*
X162739157Y-62860000D01*
X162030980Y-59344742D02*
X160775000Y-58088762D01*
X159849000Y-52269000D02*
X160839000Y-52269000D01*
X162499157Y-62620000D02*
X162270980Y-62620000D01*
X160800000Y-54382501D02*
X160800000Y-53295000D01*
X160849000Y-53246000D02*
X160800000Y-53295000D01*
X160849000Y-52279000D02*
X160849000Y-53246000D01*
X162030980Y-62260000D02*
X162030980Y-61012110D01*
X160775000Y-58088762D02*
X160775000Y-54407501D01*
X162499157Y-63220000D02*
G75*
G03*
X162739200Y-62980000I43J240000D01*
G01*
X162739157Y-62860000D02*
G75*
G03*
X162499157Y-62620043I-239957J0D01*
G01*
X162270980Y-62620000D02*
G75*
G02*
X162031000Y-62380000I20J240000D01*
G01*
X162030980Y-63460000D02*
G75*
G02*
X162270980Y-63219980I240020J0D01*
G01*
%TO.N,USB_D+*%
X160325000Y-54407501D02*
X160300000Y-54382501D01*
X159349000Y-54321000D02*
X160251000Y-54321000D01*
X160374603Y-69791000D02*
X161326550Y-69791000D01*
X161326550Y-69791000D02*
X161581000Y-69536550D01*
X159300000Y-54272000D02*
X159349000Y-54321000D01*
X160300000Y-54272000D02*
X160300000Y-53295000D01*
X159300000Y-53295000D02*
X159300000Y-54272000D01*
X160750000Y-70530000D02*
X160750000Y-70166397D01*
X161581000Y-59531130D02*
X160325000Y-58275130D01*
X160300000Y-54382501D02*
X160300000Y-53295000D01*
X161581000Y-69536550D02*
X161581000Y-59531130D01*
X160750000Y-70166397D02*
X160374603Y-69791000D01*
X160251000Y-54321000D02*
X160300000Y-54272000D01*
X160325000Y-58275130D02*
X160325000Y-54407501D01*
%TO.N,Net-(J1-CC2)*%
X158440000Y-55050000D02*
X158440000Y-54820000D01*
X158300000Y-54680000D02*
X158300000Y-53295000D01*
X158440000Y-54820000D02*
X158300000Y-54680000D01*
%TO.N,GPIO1*%
X157968947Y-74450000D02*
X158228947Y-74190000D01*
X156612500Y-74450000D02*
X157968947Y-74450000D01*
%TO.N,GPIO11*%
X155990000Y-78850000D02*
X151160000Y-83680000D01*
X156612500Y-78850000D02*
X155990000Y-78850000D01*
%TO.N,GPIO2*%
X156612500Y-74850000D02*
X157690727Y-74850000D01*
X157690727Y-74850000D02*
X157890727Y-75050000D01*
%TO.N,GPIO13*%
X152712000Y-87208000D02*
X152712000Y-83262200D01*
X152712000Y-83262200D02*
X155548200Y-80426000D01*
X157646774Y-80426000D02*
X157850000Y-80222774D01*
X157850000Y-80222774D02*
X157850000Y-79687500D01*
X151160000Y-88760000D02*
X152712000Y-87208000D01*
X155548200Y-80426000D02*
X157646774Y-80426000D01*
%TO.N,GPIO15*%
X153514000Y-83594400D02*
X155756750Y-81351650D01*
X155756750Y-81351650D02*
X157855324Y-81351650D01*
X158650000Y-80552974D02*
X158652000Y-80554974D01*
X158650000Y-79687500D02*
X158650000Y-80552974D01*
X157855324Y-81351650D02*
X158652000Y-80554974D01*
X153514000Y-94026000D02*
X153514000Y-83594400D01*
X151160000Y-96380000D02*
X153514000Y-94026000D01*
%TO.N,GPIO12*%
X157263950Y-79873550D02*
X157450000Y-79687500D01*
X152311000Y-85069000D02*
X152311000Y-83096100D01*
X151160000Y-86220000D02*
X152311000Y-85069000D01*
X155533550Y-79873550D02*
X157263950Y-79873550D01*
X152311000Y-83096100D02*
X155533550Y-79873550D01*
%TO.N,GPIO6*%
X152720000Y-70000000D02*
X151160000Y-68440000D01*
X155842450Y-76450000D02*
X152720000Y-73327550D01*
X152720000Y-70000000D02*
X152720000Y-73327550D01*
X156612500Y-76450000D02*
X155842450Y-76450000D01*
%TO.N,GPIO5*%
X156612500Y-76050000D02*
X156020000Y-76050000D01*
X153250000Y-73280000D02*
X153250000Y-65450000D01*
X156020000Y-76050000D02*
X153250000Y-73280000D01*
X153250000Y-65450000D02*
X151160000Y-63360000D01*
%TO.N,GPIO4*%
X156612500Y-75650000D02*
X157752090Y-75650000D01*
X157752090Y-75650000D02*
X157949998Y-75847908D01*
%TO.N,GPIO0*%
X156612500Y-74050000D02*
X157150000Y-74050000D01*
X159467787Y-73590000D02*
X159615574Y-73737787D01*
X157610000Y-73590000D02*
X159467787Y-73590000D01*
X157150000Y-74050000D02*
X157610000Y-73590000D01*
%TO.N,GPIO7*%
X151160000Y-70980000D02*
X152311000Y-72131000D01*
X152311000Y-73485650D02*
X155675350Y-76850000D01*
X152311000Y-72131000D02*
X152311000Y-73485650D01*
X155675350Y-76850000D02*
X156612500Y-76850000D01*
%TO.N,GPIO3*%
X153651000Y-60771000D02*
X151160000Y-58280000D01*
X153651000Y-72991000D02*
X153651000Y-60771000D01*
X155910000Y-75250000D02*
X153651000Y-72991000D01*
X156612500Y-75250000D02*
X155910000Y-75250000D01*
%TO.N,GPIO14*%
X158250000Y-80389874D02*
X157689224Y-80950650D01*
X155590650Y-80950650D02*
X157689224Y-80950650D01*
X153113000Y-83428300D02*
X155590650Y-80950650D01*
X158250000Y-79687500D02*
X158250000Y-80389874D01*
X151160000Y-93840000D02*
X153113000Y-91887000D01*
X153113000Y-91887000D02*
X153113000Y-83500650D01*
X153113000Y-83500650D02*
X153113000Y-83428300D01*
%TO.N,GPIO20*%
X165465000Y-79295000D02*
X165465000Y-80205000D01*
X165465000Y-80205000D02*
X168940000Y-83680000D01*
X164220000Y-78050000D02*
X165465000Y-79295000D01*
X163487500Y-78050000D02*
X164220000Y-78050000D01*
%TO.N,GPIO22*%
X168150000Y-76850000D02*
X168940000Y-76060000D01*
X163487500Y-76850000D02*
X168150000Y-76850000D01*
%TO.N,GPIO23*%
X167789000Y-72131000D02*
X168940000Y-70980000D01*
X166030000Y-76450000D02*
X167789000Y-74691000D01*
X163487500Y-76450000D02*
X166030000Y-76450000D01*
X167789000Y-74691000D02*
X167789000Y-72131000D01*
%TO.N,GPIO28_ADC2*%
X164897593Y-74450000D02*
X165097593Y-74250000D01*
X163487500Y-74450000D02*
X164897593Y-74450000D01*
%TO.N,GPIO29_ADC3*%
X163487500Y-74050000D02*
X164204772Y-74050000D01*
X164204772Y-74050000D02*
X164404771Y-73850001D01*
%TO.N,GPIO24*%
X167388000Y-69992000D02*
X168940000Y-68440000D01*
X167388000Y-74522000D02*
X167388000Y-69992000D01*
X165860000Y-76050000D02*
X167388000Y-74522000D01*
X163487500Y-76050000D02*
X165860000Y-76050000D01*
%TO.N,GPIO18*%
X164663000Y-84483000D02*
X168940000Y-88760000D01*
X163487500Y-78850000D02*
X164663000Y-80025500D01*
X164663000Y-80025500D02*
X164663000Y-84483000D01*
%TO.N,GPIO26_ADC0*%
X165405735Y-75250000D02*
X165605735Y-75450000D01*
X163487500Y-75250000D02*
X165405735Y-75250000D01*
%TO.N,GPIO27_ADC1*%
X165357205Y-74850000D02*
X165895185Y-74312020D01*
X163487500Y-74850000D02*
X165357205Y-74850000D01*
%TO.N,GPIO16*%
X163861000Y-81833774D02*
X162250000Y-80222774D01*
X168940000Y-96380000D02*
X168940000Y-95467760D01*
X163861000Y-90388760D02*
X163861000Y-81833774D01*
X162250000Y-80222774D02*
X162250000Y-79687500D01*
X168940000Y-95467760D02*
X163861000Y-90388760D01*
%TO.N,RUN*%
X161850000Y-79687500D02*
X161850000Y-79148254D01*
X161850000Y-79148254D02*
X162550000Y-78448254D01*
%TO.N,GPIO19*%
X163487500Y-78450000D02*
X164040000Y-78450000D01*
X165064000Y-82344000D02*
X168940000Y-86220000D01*
X164040000Y-78450000D02*
X165064000Y-79474000D01*
X165064000Y-79474000D02*
X165064000Y-82344000D01*
%TO.N,GPIO17*%
X164262000Y-81299500D02*
X162650000Y-79687500D01*
X164262000Y-89162000D02*
X164262000Y-81299500D01*
X168940000Y-93840000D02*
X164262000Y-89162000D01*
%TO.N,Net-(U1-USB_DM)*%
X161450000Y-71850000D02*
X161750000Y-71550000D01*
X161450000Y-72812500D02*
X161450000Y-71850000D01*
%TO.N,Net-(U1-USB_DP)*%
X160750000Y-71550000D02*
X161050000Y-71850000D01*
X161050000Y-71850000D02*
X161050000Y-72812500D01*
%TO.N,XOUT*%
X160000000Y-80680000D02*
X160000000Y-80700000D01*
X160000000Y-80700000D02*
X160180000Y-80880000D01*
X159850000Y-79687500D02*
X159850000Y-80530000D01*
X159850000Y-80530000D02*
X160000000Y-80680000D01*
%TO.N,Net-(R6-Pad1)*%
X155260000Y-64370000D02*
X155260000Y-65590000D01*
X155260000Y-65590000D02*
X154840000Y-66010000D01*
X154840000Y-66010000D02*
X154510000Y-66010000D01*
X154680000Y-63790000D02*
X155260000Y-64370000D01*
%TO.N,QSPI_SS*%
X157450000Y-72417100D02*
X157450000Y-72812500D01*
X155350000Y-67900000D02*
X154817102Y-67900000D01*
X154818102Y-70401000D02*
X155433900Y-70401000D01*
X154510000Y-67060000D02*
X155350000Y-67900000D01*
X154198000Y-68519102D02*
X154198000Y-69780898D01*
X156397500Y-71760000D02*
X157450000Y-72812500D01*
X154817102Y-67900000D02*
X154198000Y-68519102D01*
X154198000Y-69780898D02*
X154818102Y-70401000D01*
X155750000Y-71760000D02*
X156397500Y-71760000D01*
X155433900Y-70401000D02*
X157450000Y-72417100D01*
X154510000Y-67030000D02*
X154510000Y-67060000D01*
%TO.N,QSPI_SD3*%
X158732898Y-68400000D02*
X159450000Y-69117102D01*
X158200000Y-68400000D02*
X158732898Y-68400000D01*
X159450000Y-69117102D02*
X159450000Y-72812500D01*
%TO.N,QSPI_SD0*%
X158650000Y-69850000D02*
X158650000Y-72812500D01*
X158200000Y-69400000D02*
X158650000Y-69850000D01*
%TO.N,QSPI_SCLK*%
X159050000Y-69284202D02*
X159050000Y-72812500D01*
X158200000Y-68900000D02*
X158665798Y-68900000D01*
X158665798Y-68900000D02*
X159050000Y-69284202D01*
%TO.N,QSPI_SD1*%
X154884202Y-68400000D02*
X154599000Y-68685202D01*
X154599000Y-69614798D02*
X154984202Y-70000000D01*
X155600000Y-70000000D02*
X157850000Y-72250000D01*
X154599000Y-68685202D02*
X154599000Y-69614798D01*
X155350000Y-68400000D02*
X154884202Y-68400000D01*
X154984202Y-70000000D02*
X155600000Y-70000000D01*
X157850000Y-72250000D02*
X157850000Y-72812500D01*
%TO.N,QSPI_SD2*%
X157449000Y-67822000D02*
X157449000Y-71281900D01*
X156374000Y-67650000D02*
X156504000Y-67520000D01*
X157147000Y-67520000D02*
X157449000Y-67822000D01*
X156070000Y-68180000D02*
X156374000Y-67876000D01*
X157449000Y-71281900D02*
X158250000Y-72082900D01*
X155350000Y-68900000D02*
X155815798Y-68900000D01*
X155815798Y-68900000D02*
X156101000Y-68614798D01*
X158250000Y-72082900D02*
X158250000Y-72812500D01*
X156504000Y-67520000D02*
X157147000Y-67520000D01*
X156101000Y-68211000D02*
X156070000Y-68180000D01*
X156101000Y-68614798D02*
X156101000Y-68211000D01*
X156374000Y-67876000D02*
X156374000Y-67650000D01*
%TD*%
%TA.AperFunction,Conductor*%
%TO.N,GND*%
G36*
X158768834Y-81389888D02*
G01*
X158824767Y-81431760D01*
X158849184Y-81497224D01*
X158849500Y-81506070D01*
X158849500Y-82296000D01*
X158829815Y-82363039D01*
X158777011Y-82408794D01*
X158725500Y-82420000D01*
X158600000Y-82420000D01*
X158600000Y-83196000D01*
X158580315Y-83263039D01*
X158527511Y-83308794D01*
X158476000Y-83320000D01*
X158350000Y-83320000D01*
X158350000Y-83446000D01*
X158330315Y-83513039D01*
X158277511Y-83558794D01*
X158226000Y-83570000D01*
X157350000Y-83570000D01*
X157350000Y-83658263D01*
X157330315Y-83725302D01*
X157277511Y-83771057D01*
X157208353Y-83781001D01*
X157191406Y-83777340D01*
X157070991Y-83742356D01*
X157034697Y-83739500D01*
X157034690Y-83739500D01*
X156565310Y-83739500D01*
X156565302Y-83739500D01*
X156529008Y-83742356D01*
X156529002Y-83742357D01*
X156373609Y-83787504D01*
X156373606Y-83787505D01*
X156234315Y-83869881D01*
X156234307Y-83869887D01*
X156119887Y-83984307D01*
X156119881Y-83984315D01*
X156037505Y-84123606D01*
X156037504Y-84123609D01*
X155992357Y-84279002D01*
X155992356Y-84279008D01*
X155989500Y-84315302D01*
X155989500Y-84724697D01*
X155992356Y-84760991D01*
X155992357Y-84760997D01*
X156037504Y-84916390D01*
X156037505Y-84916393D01*
X156037506Y-84916395D01*
X156068287Y-84968443D01*
X156119881Y-85055684D01*
X156119887Y-85055692D01*
X156171049Y-85106854D01*
X156204534Y-85168177D01*
X156200872Y-85227944D01*
X156202330Y-85230000D01*
X156301648Y-85230000D01*
X156364766Y-85247267D01*
X156373605Y-85252494D01*
X156373608Y-85252494D01*
X156373610Y-85252496D01*
X156529002Y-85297642D01*
X156529005Y-85297642D01*
X156529007Y-85297643D01*
X156565310Y-85300500D01*
X156565318Y-85300500D01*
X156676000Y-85300500D01*
X156743039Y-85320185D01*
X156788794Y-85372989D01*
X156800000Y-85424500D01*
X156800000Y-85480000D01*
X156926000Y-85480000D01*
X156993039Y-85499685D01*
X157038794Y-85552489D01*
X157050000Y-85604000D01*
X157050000Y-86057467D01*
X157052729Y-86057212D01*
X157177920Y-86013405D01*
X157267037Y-85947633D01*
X157332666Y-85923661D01*
X157400837Y-85938976D01*
X157428353Y-85959721D01*
X157431344Y-85962712D01*
X157580666Y-86054814D01*
X157747203Y-86109999D01*
X157849991Y-86120500D01*
X158850008Y-86120499D01*
X158850016Y-86120498D01*
X158850019Y-86120498D01*
X158916439Y-86113713D01*
X158952797Y-86109999D01*
X159119334Y-86054814D01*
X159268656Y-85962712D01*
X159392712Y-85838656D01*
X159464761Y-85721844D01*
X159516707Y-85675121D01*
X159585670Y-85663898D01*
X159649752Y-85691741D01*
X159669103Y-85712017D01*
X159707433Y-85762563D01*
X159827904Y-85853920D01*
X159968556Y-85909386D01*
X160056946Y-85920000D01*
X160300000Y-85920000D01*
X160300000Y-85144000D01*
X160319685Y-85076961D01*
X160372489Y-85031206D01*
X160424000Y-85020000D01*
X160676000Y-85020000D01*
X160743039Y-85039685D01*
X160788794Y-85092489D01*
X160800000Y-85144000D01*
X160800000Y-85920000D01*
X161043054Y-85920000D01*
X161131443Y-85909386D01*
X161272095Y-85853920D01*
X161392564Y-85762564D01*
X161483920Y-85642095D01*
X161539386Y-85501443D01*
X161550000Y-85413053D01*
X161550000Y-85308450D01*
X161569685Y-85241411D01*
X161622489Y-85195656D01*
X161691647Y-85185712D01*
X161714956Y-85191409D01*
X161817272Y-85227212D01*
X161820000Y-85227467D01*
X161820000Y-84774000D01*
X161839685Y-84706961D01*
X161892489Y-84661206D01*
X161944000Y-84650000D01*
X162196000Y-84650000D01*
X162263039Y-84669685D01*
X162308794Y-84722489D01*
X162320000Y-84774000D01*
X162320000Y-85227467D01*
X162322729Y-85227212D01*
X162447919Y-85183405D01*
X162554641Y-85104641D01*
X162633405Y-84997919D01*
X162668459Y-84897744D01*
X162709180Y-84840968D01*
X162774133Y-84815221D01*
X162842695Y-84828677D01*
X162893098Y-84877065D01*
X162909500Y-84938699D01*
X162909500Y-89839902D01*
X162889815Y-89906941D01*
X162873181Y-89927583D01*
X158047582Y-94753181D01*
X157986259Y-94786666D01*
X157959901Y-94789500D01*
X156612129Y-94789500D01*
X156612123Y-94789501D01*
X156552516Y-94795908D01*
X156417671Y-94846202D01*
X156417664Y-94846206D01*
X156302455Y-94932452D01*
X156302452Y-94932455D01*
X156216206Y-95047664D01*
X156216202Y-95047671D01*
X156165908Y-95182517D01*
X156159501Y-95242116D01*
X156159500Y-95242135D01*
X156159500Y-97037870D01*
X156159501Y-97037876D01*
X156166738Y-97105196D01*
X156165342Y-97105345D01*
X156162050Y-97166756D01*
X156121182Y-97223427D01*
X156056163Y-97249007D01*
X156045114Y-97249500D01*
X152435019Y-97249500D01*
X152367980Y-97229815D01*
X152322225Y-97177011D01*
X152312281Y-97107853D01*
X152324534Y-97069205D01*
X152349714Y-97019786D01*
X152411557Y-96898412D01*
X152477246Y-96696243D01*
X152510500Y-96486287D01*
X152510500Y-96273713D01*
X152477246Y-96063757D01*
X152463506Y-96021473D01*
X152461512Y-95951635D01*
X152493755Y-95895478D01*
X153994520Y-94394716D01*
X154073577Y-94257784D01*
X154114501Y-94105057D01*
X154114501Y-93946942D01*
X154114501Y-93939347D01*
X154114500Y-93939329D01*
X154114500Y-85730000D01*
X156202332Y-85730000D01*
X156236596Y-85827922D01*
X156315358Y-85934641D01*
X156422080Y-86013405D01*
X156547271Y-86057212D01*
X156547269Y-86057212D01*
X156550000Y-86057467D01*
X156550000Y-85730000D01*
X156202332Y-85730000D01*
X154114500Y-85730000D01*
X154114500Y-83894497D01*
X154134185Y-83827458D01*
X154150819Y-83806816D01*
X155030689Y-82926946D01*
X157350000Y-82926946D01*
X157350000Y-83070000D01*
X158100000Y-83070000D01*
X158100000Y-82420000D01*
X157856946Y-82420000D01*
X157768556Y-82430613D01*
X157627904Y-82486079D01*
X157507435Y-82577435D01*
X157416079Y-82697904D01*
X157360613Y-82838556D01*
X157350000Y-82926946D01*
X155030689Y-82926946D01*
X155969166Y-81988469D01*
X156030489Y-81954984D01*
X156056847Y-81952150D01*
X157768655Y-81952150D01*
X157768671Y-81952151D01*
X157776267Y-81952151D01*
X157934378Y-81952151D01*
X157934381Y-81952151D01*
X158087109Y-81911227D01*
X158169807Y-81863481D01*
X158224040Y-81832170D01*
X158335844Y-81720366D01*
X158335844Y-81720364D01*
X158346048Y-81710161D01*
X158346051Y-81710156D01*
X158637820Y-81418388D01*
X158699142Y-81384904D01*
X158768834Y-81389888D01*
G37*
%TD.AperFunction*%
%TA.AperFunction,Conductor*%
G36*
X159584075Y-96332993D02*
G01*
X159649901Y-96447007D01*
X159742993Y-96540099D01*
X159857007Y-96605925D01*
X159920590Y-96622962D01*
X159431466Y-97112085D01*
X159431757Y-97115771D01*
X159417393Y-97184149D01*
X159368341Y-97233905D01*
X159308139Y-97249500D01*
X158974886Y-97249500D01*
X158907847Y-97229815D01*
X158862092Y-97177011D01*
X158852148Y-97107853D01*
X158854060Y-97097765D01*
X158854090Y-97097485D01*
X158854091Y-97097483D01*
X158860500Y-97037873D01*
X158860499Y-96840920D01*
X158880183Y-96773883D01*
X158932987Y-96728128D01*
X159002145Y-96718184D01*
X159065701Y-96747209D01*
X159075953Y-96758378D01*
X159077913Y-96758533D01*
X159567037Y-96269408D01*
X159584075Y-96332993D01*
G37*
%TD.AperFunction*%
%TA.AperFunction,Conductor*%
G36*
X161022085Y-96758533D02*
G01*
X161022085Y-96758532D01*
X161033566Y-96742732D01*
X161100551Y-96611270D01*
X161148526Y-96560474D01*
X161216347Y-96543679D01*
X161282482Y-96566217D01*
X161325933Y-96620932D01*
X161328967Y-96629247D01*
X161338444Y-96658414D01*
X161434951Y-96847820D01*
X161559890Y-97019786D01*
X161577923Y-97037819D01*
X161611408Y-97099142D01*
X161606424Y-97168834D01*
X161564552Y-97224767D01*
X161499088Y-97249184D01*
X161490242Y-97249500D01*
X160791861Y-97249500D01*
X160724822Y-97229815D01*
X160679067Y-97177011D01*
X160668243Y-97115774D01*
X160668533Y-97112085D01*
X160179410Y-96622962D01*
X160242993Y-96605925D01*
X160357007Y-96540099D01*
X160450099Y-96447007D01*
X160515925Y-96332993D01*
X160532962Y-96269410D01*
X161022085Y-96758533D01*
G37*
%TD.AperFunction*%
%TA.AperFunction,Conductor*%
G36*
X162868834Y-91732914D02*
G01*
X162924767Y-91774786D01*
X162949184Y-91840250D01*
X162949500Y-91849096D01*
X162949500Y-94684420D01*
X162929815Y-94751459D01*
X162877011Y-94797214D01*
X162807853Y-94807158D01*
X162806102Y-94806893D01*
X162744991Y-94797214D01*
X162696287Y-94789500D01*
X162483713Y-94789500D01*
X162435042Y-94797208D01*
X162273760Y-94822753D01*
X162071585Y-94888444D01*
X161882179Y-94984951D01*
X161710213Y-95109890D01*
X161559890Y-95260213D01*
X161434951Y-95432179D01*
X161338444Y-95621583D01*
X161328967Y-95650753D01*
X161289529Y-95708428D01*
X161225170Y-95735626D01*
X161156323Y-95723711D01*
X161104848Y-95676466D01*
X161100551Y-95668729D01*
X161033571Y-95537275D01*
X161033566Y-95537267D01*
X161022085Y-95521466D01*
X160532962Y-96010589D01*
X160515925Y-95947007D01*
X160450099Y-95832993D01*
X160357007Y-95739901D01*
X160242993Y-95674075D01*
X160179408Y-95657037D01*
X160668533Y-95167913D01*
X160652730Y-95156431D01*
X160491447Y-95074252D01*
X160491444Y-95074251D01*
X160319293Y-95018317D01*
X160140506Y-94990000D01*
X159959493Y-94990000D01*
X159801431Y-95015034D01*
X159732138Y-95006079D01*
X159678686Y-94961083D01*
X159658047Y-94894331D01*
X159676772Y-94827018D01*
X159694349Y-94804884D01*
X162737819Y-91761415D01*
X162799142Y-91727930D01*
X162868834Y-91732914D01*
G37*
%TD.AperFunction*%
%TA.AperFunction,Conductor*%
G36*
X169912084Y-91918532D02*
G01*
X169915772Y-91918242D01*
X169984149Y-91932606D01*
X170033905Y-91981658D01*
X170049500Y-92041860D01*
X170049500Y-92740242D01*
X170029815Y-92807281D01*
X169977011Y-92853036D01*
X169907853Y-92862980D01*
X169844297Y-92833955D01*
X169837819Y-92827923D01*
X169819786Y-92809890D01*
X169647820Y-92684951D01*
X169458414Y-92588444D01*
X169458413Y-92588443D01*
X169458412Y-92588443D01*
X169429246Y-92578966D01*
X169371571Y-92539529D01*
X169344373Y-92475171D01*
X169356288Y-92406324D01*
X169403532Y-92354849D01*
X169411270Y-92350551D01*
X169542732Y-92283566D01*
X169558532Y-92272085D01*
X169069409Y-91782962D01*
X169132993Y-91765925D01*
X169247007Y-91700099D01*
X169340099Y-91607007D01*
X169405925Y-91492993D01*
X169422962Y-91429410D01*
X169912084Y-91918532D01*
G37*
%TD.AperFunction*%
%TA.AperFunction,Conductor*%
G36*
X150694075Y-91492993D02*
G01*
X150759901Y-91607007D01*
X150852993Y-91700099D01*
X150967007Y-91765925D01*
X151030590Y-91782962D01*
X150541466Y-92272085D01*
X150541466Y-92272086D01*
X150557267Y-92283566D01*
X150557275Y-92283571D01*
X150688729Y-92350551D01*
X150739525Y-92398526D01*
X150756320Y-92466347D01*
X150733782Y-92532482D01*
X150679067Y-92575933D01*
X150670761Y-92578964D01*
X150660716Y-92582227D01*
X150641583Y-92588444D01*
X150452179Y-92684951D01*
X150280213Y-92809890D01*
X150280209Y-92809894D01*
X150262181Y-92827923D01*
X150200858Y-92861408D01*
X150131166Y-92856424D01*
X150075233Y-92814552D01*
X150050816Y-92749088D01*
X150050500Y-92740242D01*
X150050500Y-92041861D01*
X150070185Y-91974822D01*
X150122989Y-91929067D01*
X150184229Y-91918243D01*
X150187913Y-91918533D01*
X150677037Y-91429409D01*
X150694075Y-91492993D01*
G37*
%TD.AperFunction*%
%TA.AperFunction,Conductor*%
G36*
X165067703Y-85737384D02*
G01*
X165074181Y-85743416D01*
X167606241Y-88275476D01*
X167639726Y-88336799D01*
X167636492Y-88401473D01*
X167622753Y-88443757D01*
X167589500Y-88653713D01*
X167589500Y-88866286D01*
X167622753Y-89076239D01*
X167688444Y-89278414D01*
X167784951Y-89467820D01*
X167909890Y-89639786D01*
X168060213Y-89790109D01*
X168232179Y-89915048D01*
X168232181Y-89915049D01*
X168232184Y-89915051D01*
X168421588Y-90011557D01*
X168450753Y-90021033D01*
X168508426Y-90060468D01*
X168535625Y-90124826D01*
X168523712Y-90193673D01*
X168476469Y-90245149D01*
X168468730Y-90249447D01*
X168337269Y-90316431D01*
X168321466Y-90327912D01*
X168321466Y-90327913D01*
X168810591Y-90817037D01*
X168747007Y-90834075D01*
X168632993Y-90899901D01*
X168539901Y-90992993D01*
X168474075Y-91107007D01*
X168457037Y-91170590D01*
X167967913Y-90681466D01*
X167967912Y-90681466D01*
X167956432Y-90697269D01*
X167874254Y-90858547D01*
X167874251Y-90858555D01*
X167818317Y-91030706D01*
X167790000Y-91209493D01*
X167790000Y-91390506D01*
X167815034Y-91548566D01*
X167806079Y-91617860D01*
X167761083Y-91671312D01*
X167694331Y-91691951D01*
X167627018Y-91673226D01*
X167604880Y-91655645D01*
X164898819Y-88949584D01*
X164865334Y-88888261D01*
X164862500Y-88861903D01*
X164862500Y-85831097D01*
X164882185Y-85764058D01*
X164934989Y-85718303D01*
X165004147Y-85708359D01*
X165067703Y-85737384D01*
G37*
%TD.AperFunction*%
%TA.AperFunction,Conductor*%
G36*
X150255703Y-89766045D02*
G01*
X150262181Y-89772077D01*
X150280213Y-89790109D01*
X150452179Y-89915048D01*
X150452181Y-89915049D01*
X150452184Y-89915051D01*
X150641588Y-90011557D01*
X150670753Y-90021033D01*
X150728426Y-90060468D01*
X150755625Y-90124826D01*
X150743712Y-90193673D01*
X150696469Y-90245149D01*
X150688730Y-90249447D01*
X150557269Y-90316431D01*
X150541466Y-90327912D01*
X150541466Y-90327913D01*
X151030591Y-90817037D01*
X150967007Y-90834075D01*
X150852993Y-90899901D01*
X150759901Y-90992993D01*
X150694075Y-91107007D01*
X150677037Y-91170590D01*
X150187913Y-90681466D01*
X150184229Y-90681756D01*
X150115852Y-90667392D01*
X150066095Y-90618340D01*
X150050500Y-90558138D01*
X150050500Y-89859758D01*
X150070185Y-89792719D01*
X150122989Y-89746964D01*
X150192147Y-89737020D01*
X150255703Y-89766045D01*
G37*
%TD.AperFunction*%
%TA.AperFunction,Conductor*%
G36*
X152474920Y-89488759D02*
G01*
X152509277Y-89549598D01*
X152512500Y-89577684D01*
X152512500Y-90958183D01*
X152492815Y-91025222D01*
X152440011Y-91070977D01*
X152370853Y-91080921D01*
X152307297Y-91051896D01*
X152270569Y-90996501D01*
X152225748Y-90858555D01*
X152225747Y-90858552D01*
X152143571Y-90697275D01*
X152143566Y-90697267D01*
X152132085Y-90681466D01*
X151642962Y-91170590D01*
X151625925Y-91107007D01*
X151560099Y-90992993D01*
X151467007Y-90899901D01*
X151352993Y-90834075D01*
X151289409Y-90817037D01*
X151778533Y-90327913D01*
X151762727Y-90316429D01*
X151631269Y-90249447D01*
X151580474Y-90201473D01*
X151563679Y-90133651D01*
X151586217Y-90067517D01*
X151640932Y-90024066D01*
X151649216Y-90021043D01*
X151678412Y-90011557D01*
X151867816Y-89915051D01*
X151943921Y-89859758D01*
X152039786Y-89790109D01*
X152039788Y-89790106D01*
X152039792Y-89790104D01*
X152190104Y-89639792D01*
X152288182Y-89504798D01*
X152343511Y-89462133D01*
X152413125Y-89456154D01*
X152474920Y-89488759D01*
G37*
%TD.AperFunction*%
%TA.AperFunction,Conductor*%
G36*
X169968834Y-89743576D02*
G01*
X170024767Y-89785448D01*
X170049184Y-89850912D01*
X170049500Y-89859758D01*
X170049500Y-90558138D01*
X170029815Y-90625177D01*
X169977011Y-90670932D01*
X169915773Y-90681756D01*
X169912086Y-90681465D01*
X169422962Y-91170589D01*
X169405925Y-91107007D01*
X169340099Y-90992993D01*
X169247007Y-90899901D01*
X169132993Y-90834075D01*
X169069409Y-90817037D01*
X169558533Y-90327913D01*
X169542727Y-90316429D01*
X169411269Y-90249447D01*
X169360474Y-90201473D01*
X169343679Y-90133651D01*
X169366217Y-90067517D01*
X169420932Y-90024066D01*
X169429216Y-90021043D01*
X169458412Y-90011557D01*
X169647816Y-89915051D01*
X169723921Y-89859758D01*
X169819786Y-89790109D01*
X169819788Y-89790106D01*
X169819792Y-89790104D01*
X169837819Y-89772077D01*
X169899142Y-89738592D01*
X169968834Y-89743576D01*
G37*
%TD.AperFunction*%
%TA.AperFunction,Conductor*%
G36*
X152472981Y-78226774D02*
G01*
X152495120Y-78244355D01*
X152793284Y-78542520D01*
X152793286Y-78542521D01*
X152793290Y-78542524D01*
X152892841Y-78599999D01*
X152930216Y-78621577D01*
X153082943Y-78662501D01*
X153082945Y-78662501D01*
X153248654Y-78662501D01*
X153248670Y-78662500D01*
X154532515Y-78662500D01*
X154599554Y-78682185D01*
X154645309Y-78734989D01*
X154655253Y-78804147D01*
X154626228Y-78867703D01*
X154620196Y-78874181D01*
X152991196Y-80503181D01*
X152929873Y-80536666D01*
X152903515Y-80539500D01*
X152445719Y-80539500D01*
X152378680Y-80519815D01*
X152335235Y-80471795D01*
X152315052Y-80432185D01*
X152315051Y-80432184D01*
X152190109Y-80260213D01*
X152039786Y-80109890D01*
X151867820Y-79984951D01*
X151678414Y-79888444D01*
X151678413Y-79888443D01*
X151678412Y-79888443D01*
X151649246Y-79878966D01*
X151591571Y-79839529D01*
X151564373Y-79775171D01*
X151576288Y-79706324D01*
X151623532Y-79654849D01*
X151631270Y-79650551D01*
X151762732Y-79583566D01*
X151778532Y-79572085D01*
X151778533Y-79572085D01*
X151289410Y-79082962D01*
X151352993Y-79065925D01*
X151467007Y-79000099D01*
X151560099Y-78907007D01*
X151625925Y-78792993D01*
X151642962Y-78729409D01*
X152132085Y-79218532D01*
X152143568Y-79202730D01*
X152225745Y-79041452D01*
X152225748Y-79041444D01*
X152281682Y-78869293D01*
X152310000Y-78690506D01*
X152310000Y-78509494D01*
X152284965Y-78351434D01*
X152293919Y-78282141D01*
X152338915Y-78228689D01*
X152405667Y-78208049D01*
X152472981Y-78226774D01*
G37*
%TD.AperFunction*%
%TA.AperFunction,Conductor*%
G36*
X169912084Y-79218532D02*
G01*
X169915772Y-79218242D01*
X169984149Y-79232606D01*
X170033905Y-79281658D01*
X170049500Y-79341860D01*
X170049500Y-80040242D01*
X170029815Y-80107281D01*
X169977011Y-80153036D01*
X169907853Y-80162980D01*
X169844297Y-80133955D01*
X169837819Y-80127923D01*
X169819786Y-80109890D01*
X169647820Y-79984951D01*
X169458414Y-79888444D01*
X169458413Y-79888443D01*
X169458412Y-79888443D01*
X169429246Y-79878966D01*
X169371571Y-79839529D01*
X169344373Y-79775171D01*
X169356288Y-79706324D01*
X169403532Y-79654849D01*
X169411270Y-79650551D01*
X169542732Y-79583566D01*
X169558532Y-79572085D01*
X169558533Y-79572085D01*
X169069410Y-79082962D01*
X169132993Y-79065925D01*
X169247007Y-79000099D01*
X169340099Y-78907007D01*
X169405925Y-78792993D01*
X169422962Y-78729410D01*
X169912084Y-79218532D01*
G37*
%TD.AperFunction*%
%TA.AperFunction,Conductor*%
G36*
X150694075Y-78792993D02*
G01*
X150759901Y-78907007D01*
X150852993Y-79000099D01*
X150967007Y-79065925D01*
X151030590Y-79082962D01*
X150541466Y-79572085D01*
X150541466Y-79572086D01*
X150557267Y-79583566D01*
X150557275Y-79583571D01*
X150688729Y-79650551D01*
X150739525Y-79698526D01*
X150756320Y-79766347D01*
X150733782Y-79832482D01*
X150679067Y-79875933D01*
X150670761Y-79878964D01*
X150660716Y-79882227D01*
X150641583Y-79888444D01*
X150452179Y-79984951D01*
X150280213Y-80109890D01*
X150280209Y-80109894D01*
X150262181Y-80127923D01*
X150200858Y-80161408D01*
X150131166Y-80156424D01*
X150075233Y-80114552D01*
X150050816Y-80049088D01*
X150050500Y-80040242D01*
X150050500Y-79341861D01*
X150070185Y-79274822D01*
X150122989Y-79229067D01*
X150184229Y-79218243D01*
X150187913Y-79218533D01*
X150677037Y-78729409D01*
X150694075Y-78792993D01*
G37*
%TD.AperFunction*%
%TA.AperFunction,Conductor*%
G36*
X168070943Y-77450501D02*
G01*
X168201288Y-77450501D01*
X168268327Y-77470186D01*
X168314082Y-77522990D01*
X168314086Y-77523020D01*
X168324905Y-77584231D01*
X168321466Y-77627913D01*
X168810591Y-78117037D01*
X168747007Y-78134075D01*
X168632993Y-78199901D01*
X168539901Y-78292993D01*
X168474075Y-78407007D01*
X168457037Y-78470590D01*
X167967913Y-77981466D01*
X167967912Y-77981466D01*
X167956432Y-77997269D01*
X167874254Y-78158547D01*
X167874251Y-78158555D01*
X167818317Y-78330706D01*
X167790000Y-78509493D01*
X167790000Y-78690506D01*
X167818317Y-78869293D01*
X167874251Y-79041444D01*
X167874252Y-79041447D01*
X167956431Y-79202730D01*
X167967913Y-79218532D01*
X167967913Y-79218533D01*
X168457037Y-78729409D01*
X168474075Y-78792993D01*
X168539901Y-78907007D01*
X168632993Y-79000099D01*
X168747007Y-79065925D01*
X168810590Y-79082962D01*
X168321466Y-79572085D01*
X168321466Y-79572086D01*
X168337267Y-79583566D01*
X168337275Y-79583571D01*
X168468729Y-79650551D01*
X168519525Y-79698526D01*
X168536320Y-79766347D01*
X168513782Y-79832482D01*
X168459067Y-79875933D01*
X168450761Y-79878964D01*
X168434878Y-79884124D01*
X168421581Y-79888445D01*
X168296000Y-79952432D01*
X168227331Y-79965328D01*
X168162591Y-79939051D01*
X168152025Y-79929628D01*
X166477830Y-78255433D01*
X166444345Y-78194110D01*
X166441666Y-78161546D01*
X166444867Y-78097667D01*
X166950000Y-78097667D01*
X167047922Y-78063403D01*
X167154641Y-77984641D01*
X167233405Y-77877919D01*
X167277212Y-77752727D01*
X167277213Y-77752725D01*
X167277469Y-77750000D01*
X166950000Y-77750000D01*
X166950000Y-78097667D01*
X166444867Y-78097667D01*
X166450155Y-77992146D01*
X166457301Y-77971663D01*
X166467267Y-77935233D01*
X166472494Y-77926395D01*
X166517643Y-77770993D01*
X166520500Y-77734690D01*
X166520500Y-77624000D01*
X166540185Y-77556961D01*
X166592989Y-77511206D01*
X166644500Y-77500000D01*
X166700000Y-77500000D01*
X166713181Y-77486819D01*
X166774504Y-77453334D01*
X166800862Y-77450500D01*
X168063332Y-77450500D01*
X168070939Y-77450500D01*
X168070943Y-77450501D01*
G37*
%TD.AperFunction*%
%TA.AperFunction,Conductor*%
G36*
X150255703Y-77066045D02*
G01*
X150262181Y-77072077D01*
X150280213Y-77090109D01*
X150452179Y-77215048D01*
X150452181Y-77215049D01*
X150452184Y-77215051D01*
X150641588Y-77311557D01*
X150670753Y-77321033D01*
X150728426Y-77360468D01*
X150755625Y-77424826D01*
X150743712Y-77493673D01*
X150696469Y-77545149D01*
X150688730Y-77549447D01*
X150557269Y-77616431D01*
X150541466Y-77627912D01*
X150541466Y-77627913D01*
X151030590Y-78117037D01*
X150967007Y-78134075D01*
X150852993Y-78199901D01*
X150759901Y-78292993D01*
X150694075Y-78407007D01*
X150677037Y-78470590D01*
X150187913Y-77981466D01*
X150184229Y-77981756D01*
X150115852Y-77967392D01*
X150066095Y-77918340D01*
X150050500Y-77858138D01*
X150050500Y-77159758D01*
X150070185Y-77092719D01*
X150122989Y-77046964D01*
X150192147Y-77037020D01*
X150255703Y-77066045D01*
G37*
%TD.AperFunction*%
%TA.AperFunction,Conductor*%
G36*
X169968834Y-77043576D02*
G01*
X170024767Y-77085448D01*
X170049184Y-77150912D01*
X170049500Y-77159758D01*
X170049500Y-77858138D01*
X170029815Y-77925177D01*
X169977011Y-77970932D01*
X169915773Y-77981756D01*
X169912086Y-77981465D01*
X169422962Y-78470589D01*
X169405925Y-78407007D01*
X169340099Y-78292993D01*
X169247007Y-78199901D01*
X169132993Y-78134075D01*
X169069409Y-78117037D01*
X169558533Y-77627913D01*
X169542727Y-77616429D01*
X169411269Y-77549447D01*
X169360474Y-77501473D01*
X169343679Y-77433651D01*
X169366217Y-77367517D01*
X169420932Y-77324066D01*
X169429216Y-77321043D01*
X169458412Y-77311557D01*
X169647816Y-77215051D01*
X169725260Y-77158785D01*
X169819786Y-77090109D01*
X169819788Y-77090106D01*
X169819792Y-77090104D01*
X169837819Y-77072077D01*
X169899142Y-77038592D01*
X169968834Y-77043576D01*
G37*
%TD.AperFunction*%
%TA.AperFunction,Conductor*%
G36*
X159162542Y-74398048D02*
G01*
X159168160Y-74401588D01*
X159236388Y-74447177D01*
X159236401Y-74447184D01*
X159380725Y-74506964D01*
X159382077Y-74507524D01*
X159536727Y-74538286D01*
X159536730Y-74538287D01*
X159536732Y-74538287D01*
X159628574Y-74538287D01*
X159695613Y-74557972D01*
X159716548Y-74576608D01*
X159717290Y-74575867D01*
X159833094Y-74691671D01*
X159833098Y-74691674D01*
X159964201Y-74779275D01*
X159964214Y-74779282D01*
X160109885Y-74839620D01*
X160109890Y-74839622D01*
X160264540Y-74870384D01*
X160264543Y-74870385D01*
X160264545Y-74870385D01*
X160422231Y-74870385D01*
X160422232Y-74870384D01*
X160576884Y-74839622D01*
X160722566Y-74779279D01*
X160853676Y-74691674D01*
X160940491Y-74604858D01*
X161001812Y-74571375D01*
X161071504Y-74576359D01*
X161127438Y-74618230D01*
X161131273Y-74623650D01*
X161151404Y-74653778D01*
X161151407Y-74653782D01*
X161262901Y-74765276D01*
X161262905Y-74765279D01*
X161394008Y-74852880D01*
X161394021Y-74852887D01*
X161539692Y-74913225D01*
X161539697Y-74913227D01*
X161674620Y-74940065D01*
X161694347Y-74943989D01*
X161694350Y-74943990D01*
X161827726Y-74943990D01*
X161894765Y-74963675D01*
X161940520Y-75016479D01*
X161951726Y-75067990D01*
X161951726Y-76773165D01*
X161951725Y-76773169D01*
X161951725Y-76931283D01*
X161951726Y-76931286D01*
X161951726Y-77098676D01*
X161932041Y-77165715D01*
X161915407Y-77186357D01*
X161637584Y-77464181D01*
X161576261Y-77497666D01*
X161549903Y-77500500D01*
X160936670Y-77500500D01*
X160936654Y-77500499D01*
X160929058Y-77500499D01*
X160770943Y-77500499D01*
X160697371Y-77520213D01*
X160618214Y-77541423D01*
X160618209Y-77541426D01*
X160481290Y-77620475D01*
X160481282Y-77620481D01*
X160169481Y-77932282D01*
X160169477Y-77932287D01*
X160144062Y-77976307D01*
X160093494Y-78024521D01*
X160024887Y-78037743D01*
X159960023Y-78011774D01*
X159948995Y-78001986D01*
X159736364Y-77789355D01*
X159736362Y-77789352D01*
X159617491Y-77670481D01*
X159617486Y-77670477D01*
X159507674Y-77607078D01*
X159507672Y-77607077D01*
X159480561Y-77591424D01*
X159480560Y-77591423D01*
X159480559Y-77591423D01*
X159327831Y-77550499D01*
X159169717Y-77550499D01*
X159162121Y-77550499D01*
X159162105Y-77550500D01*
X158674498Y-77550500D01*
X158665812Y-77547949D01*
X158656851Y-77549238D01*
X158632810Y-77538259D01*
X158607459Y-77530815D01*
X158601531Y-77523974D01*
X158593295Y-77520213D01*
X158579005Y-77497978D01*
X158561704Y-77478011D01*
X158559416Y-77467496D01*
X158555521Y-77461435D01*
X158550498Y-77426500D01*
X158550498Y-77227676D01*
X158570183Y-77160637D01*
X158571396Y-77158785D01*
X158659388Y-77027096D01*
X158659388Y-77027095D01*
X158659392Y-77027090D01*
X158719735Y-76881408D01*
X158750498Y-76726753D01*
X158750498Y-76569069D01*
X158750498Y-76569066D01*
X158750497Y-76569064D01*
X158739887Y-76515724D01*
X158719735Y-76414414D01*
X158670421Y-76295360D01*
X158662953Y-76225892D01*
X158670419Y-76200462D01*
X158719735Y-76081405D01*
X158750498Y-75926750D01*
X158750498Y-75769066D01*
X158750498Y-75769063D01*
X158750497Y-75769061D01*
X158719736Y-75614418D01*
X158719735Y-75614411D01*
X158659392Y-75468729D01*
X158649511Y-75453942D01*
X158628634Y-75387265D01*
X158638054Y-75337598D01*
X158660464Y-75283497D01*
X158691227Y-75128842D01*
X158691227Y-74971158D01*
X158690815Y-74969088D01*
X158685042Y-74940065D01*
X158691269Y-74870473D01*
X158734131Y-74815295D01*
X158737774Y-74812766D01*
X158738042Y-74812586D01*
X158739236Y-74811789D01*
X158850736Y-74700289D01*
X158938341Y-74569179D01*
X158938342Y-74569176D01*
X158938344Y-74569173D01*
X158984708Y-74457238D01*
X159028548Y-74402834D01*
X159094842Y-74380769D01*
X159162542Y-74398048D01*
G37*
%TD.AperFunction*%
%TA.AperFunction,Conductor*%
G36*
X153066703Y-75091034D02*
G01*
X153073181Y-75097066D01*
X154304891Y-76328776D01*
X154338376Y-76390099D01*
X154333392Y-76459791D01*
X154291520Y-76515724D01*
X154288966Y-76517586D01*
X154240000Y-76552329D01*
X154240000Y-76651645D01*
X154222734Y-76714763D01*
X154217507Y-76723600D01*
X154217504Y-76723608D01*
X154172357Y-76879002D01*
X154172356Y-76879008D01*
X154169500Y-76915302D01*
X154169500Y-76986500D01*
X154166949Y-76995185D01*
X154168238Y-77004147D01*
X154157259Y-77028187D01*
X154149815Y-77053539D01*
X154142974Y-77059466D01*
X154139213Y-77067703D01*
X154116978Y-77081992D01*
X154097011Y-77099294D01*
X154086496Y-77101581D01*
X154080435Y-77105477D01*
X154045500Y-77110500D01*
X153984259Y-77110500D01*
X153917220Y-77090815D01*
X153896578Y-77074181D01*
X153776319Y-76953922D01*
X153742834Y-76892599D01*
X153740000Y-76866241D01*
X153740000Y-76552330D01*
X153739999Y-76552330D01*
X153642077Y-76586595D01*
X153642076Y-76586595D01*
X153593827Y-76622205D01*
X153528198Y-76646176D01*
X153460028Y-76630860D01*
X153432513Y-76610116D01*
X152897819Y-76075422D01*
X152864334Y-76014099D01*
X152861500Y-75987741D01*
X152861500Y-75184747D01*
X152881185Y-75117708D01*
X152933989Y-75071953D01*
X153003147Y-75062009D01*
X153066703Y-75091034D01*
G37*
%TD.AperFunction*%
%TA.AperFunction,Conductor*%
G36*
X167508834Y-50502914D02*
G01*
X167564767Y-50544786D01*
X167589184Y-50610250D01*
X167589500Y-50619096D01*
X167589500Y-50766287D01*
X167622754Y-50976243D01*
X167663768Y-51102472D01*
X167688444Y-51178414D01*
X167784951Y-51367820D01*
X167909890Y-51539786D01*
X168060213Y-51690109D01*
X168232179Y-51815048D01*
X168232181Y-51815049D01*
X168232184Y-51815051D01*
X168421588Y-51911557D01*
X168450753Y-51921033D01*
X168508426Y-51960468D01*
X168535625Y-52024826D01*
X168523712Y-52093673D01*
X168476469Y-52145149D01*
X168468730Y-52149447D01*
X168337269Y-52216431D01*
X168321466Y-52227912D01*
X168321466Y-52227913D01*
X168810591Y-52717037D01*
X168747007Y-52734075D01*
X168632993Y-52799901D01*
X168539901Y-52892993D01*
X168474075Y-53007007D01*
X168457037Y-53070590D01*
X167967913Y-52581466D01*
X167967912Y-52581466D01*
X167956432Y-52597269D01*
X167874254Y-52758547D01*
X167874251Y-52758555D01*
X167818317Y-52930706D01*
X167790000Y-53109493D01*
X167790000Y-53290506D01*
X167818317Y-53469293D01*
X167874251Y-53641444D01*
X167874252Y-53641447D01*
X167956431Y-53802730D01*
X167967913Y-53818532D01*
X167967913Y-53818533D01*
X168457037Y-53329409D01*
X168474075Y-53392993D01*
X168539901Y-53507007D01*
X168632993Y-53600099D01*
X168747007Y-53665925D01*
X168810590Y-53682962D01*
X168321466Y-54172085D01*
X168321466Y-54172086D01*
X168337267Y-54183566D01*
X168337275Y-54183571D01*
X168468729Y-54250551D01*
X168519525Y-54298526D01*
X168536320Y-54366347D01*
X168513782Y-54432482D01*
X168459067Y-54475933D01*
X168450761Y-54478964D01*
X168440716Y-54482227D01*
X168421583Y-54488444D01*
X168232179Y-54584951D01*
X168060213Y-54709890D01*
X167909890Y-54860213D01*
X167784951Y-55032179D01*
X167688444Y-55221585D01*
X167622753Y-55423760D01*
X167589500Y-55633713D01*
X167589500Y-55846286D01*
X167615812Y-56012418D01*
X167622754Y-56056243D01*
X167676926Y-56222968D01*
X167688444Y-56258414D01*
X167784951Y-56447820D01*
X167909890Y-56619786D01*
X168060213Y-56770109D01*
X168232179Y-56895048D01*
X168232181Y-56895049D01*
X168232184Y-56895051D01*
X168421588Y-56991557D01*
X168450753Y-57001033D01*
X168508426Y-57040468D01*
X168535625Y-57104826D01*
X168523712Y-57173673D01*
X168476469Y-57225149D01*
X168468730Y-57229447D01*
X168337269Y-57296431D01*
X168321466Y-57307912D01*
X168321466Y-57307913D01*
X168810591Y-57797037D01*
X168747007Y-57814075D01*
X168632993Y-57879901D01*
X168539901Y-57972993D01*
X168474075Y-58087007D01*
X168457037Y-58150590D01*
X167967913Y-57661466D01*
X167967912Y-57661466D01*
X167956432Y-57677269D01*
X167874254Y-57838547D01*
X167874251Y-57838555D01*
X167818317Y-58010706D01*
X167790000Y-58189493D01*
X167790000Y-58370506D01*
X167818317Y-58549293D01*
X167874251Y-58721444D01*
X167874252Y-58721447D01*
X167956431Y-58882730D01*
X167967913Y-58898532D01*
X167967913Y-58898533D01*
X168457037Y-58409409D01*
X168474075Y-58472993D01*
X168539901Y-58587007D01*
X168632993Y-58680099D01*
X168747007Y-58745925D01*
X168810590Y-58762962D01*
X168321466Y-59252085D01*
X168321466Y-59252086D01*
X168337267Y-59263566D01*
X168337275Y-59263571D01*
X168468729Y-59330551D01*
X168519525Y-59378526D01*
X168536320Y-59446347D01*
X168513782Y-59512482D01*
X168459067Y-59555933D01*
X168450761Y-59558964D01*
X168440716Y-59562227D01*
X168421583Y-59568444D01*
X168232179Y-59664951D01*
X168060213Y-59789890D01*
X167909890Y-59940213D01*
X167784951Y-60112179D01*
X167688444Y-60301585D01*
X167622753Y-60503760D01*
X167589500Y-60713713D01*
X167589500Y-60926286D01*
X167620651Y-61122970D01*
X167622754Y-61136243D01*
X167668001Y-61275499D01*
X167688444Y-61338414D01*
X167784951Y-61527820D01*
X167909890Y-61699786D01*
X168060213Y-61850109D01*
X168232182Y-61975050D01*
X168240946Y-61979516D01*
X168291742Y-62027491D01*
X168308536Y-62095312D01*
X168285998Y-62161447D01*
X168240946Y-62200484D01*
X168232182Y-62204949D01*
X168060213Y-62329890D01*
X167909890Y-62480213D01*
X167784951Y-62652179D01*
X167688444Y-62841585D01*
X167688443Y-62841587D01*
X167688443Y-62841588D01*
X167675111Y-62882620D01*
X167622753Y-63043760D01*
X167589500Y-63253713D01*
X167589500Y-63466286D01*
X167622753Y-63676239D01*
X167622753Y-63676241D01*
X167622754Y-63676243D01*
X167677431Y-63844522D01*
X167688444Y-63878414D01*
X167784951Y-64067820D01*
X167909890Y-64239786D01*
X168060213Y-64390109D01*
X168232179Y-64515048D01*
X168232181Y-64515049D01*
X168232184Y-64515051D01*
X168421588Y-64611557D01*
X168450753Y-64621033D01*
X168508426Y-64660468D01*
X168535625Y-64724826D01*
X168523712Y-64793673D01*
X168476469Y-64845149D01*
X168468730Y-64849447D01*
X168337269Y-64916431D01*
X168321466Y-64927912D01*
X168321466Y-64927913D01*
X168810591Y-65417037D01*
X168747007Y-65434075D01*
X168632993Y-65499901D01*
X168539901Y-65592993D01*
X168474075Y-65707007D01*
X168457037Y-65770590D01*
X167967913Y-65281466D01*
X167967912Y-65281466D01*
X167956432Y-65297269D01*
X167874254Y-65458547D01*
X167874251Y-65458555D01*
X167818317Y-65630706D01*
X167790000Y-65809493D01*
X167790000Y-65990506D01*
X167818317Y-66169293D01*
X167874251Y-66341444D01*
X167874252Y-66341447D01*
X167956431Y-66502730D01*
X167967913Y-66518532D01*
X167967913Y-66518533D01*
X168457037Y-66029409D01*
X168474075Y-66092993D01*
X168539901Y-66207007D01*
X168632993Y-66300099D01*
X168747007Y-66365925D01*
X168810590Y-66382962D01*
X168321466Y-66872085D01*
X168321466Y-66872086D01*
X168337267Y-66883566D01*
X168337275Y-66883571D01*
X168468729Y-66950551D01*
X168519525Y-66998526D01*
X168536320Y-67066347D01*
X168513782Y-67132482D01*
X168459067Y-67175933D01*
X168450761Y-67178964D01*
X168440716Y-67182227D01*
X168421583Y-67188444D01*
X168232179Y-67284951D01*
X168060213Y-67409890D01*
X167909890Y-67560213D01*
X167784951Y-67732179D01*
X167688444Y-67921585D01*
X167622753Y-68123760D01*
X167589500Y-68333713D01*
X167589500Y-68546286D01*
X167622754Y-68756244D01*
X167622754Y-68756247D01*
X167636491Y-68798523D01*
X167638486Y-68868364D01*
X167606241Y-68924522D01*
X167019286Y-69511478D01*
X166907481Y-69623282D01*
X166907480Y-69623284D01*
X166868063Y-69691557D01*
X166828423Y-69760215D01*
X166787499Y-69912943D01*
X166787499Y-69912945D01*
X166787499Y-70081046D01*
X166787500Y-70081059D01*
X166787500Y-73797827D01*
X166767815Y-73864866D01*
X166715011Y-73910621D01*
X166645853Y-73920565D01*
X166582297Y-73891540D01*
X166560398Y-73866718D01*
X166516974Y-73801731D01*
X166516971Y-73801727D01*
X166405477Y-73690233D01*
X166405473Y-73690230D01*
X166274370Y-73602629D01*
X166274357Y-73602622D01*
X166128686Y-73542284D01*
X166128674Y-73542281D01*
X165974030Y-73511520D01*
X165974027Y-73511520D01*
X165816343Y-73511520D01*
X165735485Y-73527603D01*
X165665894Y-73521374D01*
X165610717Y-73478511D01*
X165587473Y-73412621D01*
X165603541Y-73344624D01*
X165637662Y-73306215D01*
X165734640Y-73234642D01*
X165813405Y-73127919D01*
X165857212Y-73002727D01*
X165857213Y-73002725D01*
X165857469Y-73000000D01*
X165404000Y-73000000D01*
X165336961Y-72980315D01*
X165291206Y-72927511D01*
X165280000Y-72876000D01*
X165280000Y-72624000D01*
X165299685Y-72556961D01*
X165352489Y-72511206D01*
X165404000Y-72500000D01*
X165857467Y-72500000D01*
X165857212Y-72497273D01*
X165848560Y-72472548D01*
X165844997Y-72402769D01*
X165879725Y-72342141D01*
X165924656Y-72314546D01*
X165927923Y-72313403D01*
X166034641Y-72234641D01*
X166113405Y-72127919D01*
X166157212Y-72002727D01*
X166157213Y-72002725D01*
X166157469Y-72000000D01*
X165704000Y-72000000D01*
X165636961Y-71980315D01*
X165591206Y-71927511D01*
X165580000Y-71876000D01*
X165580000Y-71750000D01*
X165524500Y-71750000D01*
X165457461Y-71730315D01*
X165411706Y-71677511D01*
X165400500Y-71626000D01*
X165400500Y-71515317D01*
X165400499Y-71515302D01*
X165400235Y-71511950D01*
X165399295Y-71500000D01*
X165830000Y-71500000D01*
X166157467Y-71500000D01*
X166157212Y-71497270D01*
X166113405Y-71372080D01*
X166034641Y-71265358D01*
X165927920Y-71186594D01*
X165830000Y-71152330D01*
X165830000Y-71500000D01*
X165399295Y-71500000D01*
X165397643Y-71479007D01*
X165366577Y-71372080D01*
X165352495Y-71323608D01*
X165352492Y-71323600D01*
X165347266Y-71314763D01*
X165342916Y-71298862D01*
X165335023Y-71286580D01*
X165330000Y-71251645D01*
X165330000Y-71152330D01*
X165327842Y-71150799D01*
X165265710Y-71153971D01*
X165206852Y-71121048D01*
X165155692Y-71069887D01*
X165155684Y-71069881D01*
X165040059Y-71001501D01*
X165016395Y-70987506D01*
X165016394Y-70987505D01*
X165016393Y-70987505D01*
X165016390Y-70987504D01*
X164860997Y-70942357D01*
X164860991Y-70942356D01*
X164824697Y-70939500D01*
X164824690Y-70939500D01*
X164415310Y-70939500D01*
X164415306Y-70939500D01*
X164415275Y-70939501D01*
X164414914Y-70939530D01*
X164414857Y-70939518D01*
X164412872Y-70939596D01*
X164412852Y-70939096D01*
X164346540Y-70925148D01*
X164296796Y-70876084D01*
X164295346Y-70869635D01*
X164277469Y-70850000D01*
X163950000Y-70850000D01*
X163950000Y-71184010D01*
X163932732Y-71247130D01*
X163887507Y-71323602D01*
X163887504Y-71323609D01*
X163842357Y-71479002D01*
X163841635Y-71482956D01*
X163841735Y-71483647D01*
X163841359Y-71484469D01*
X163841218Y-71485243D01*
X163841022Y-71485207D01*
X163828809Y-71511950D01*
X163817733Y-71541014D01*
X163814420Y-71543457D01*
X163812710Y-71547203D01*
X163786538Y-71564022D01*
X163761504Y-71582487D01*
X163756403Y-71583388D01*
X163753932Y-71584977D01*
X163718997Y-71590000D01*
X163644500Y-71590000D01*
X163577461Y-71570315D01*
X163531706Y-71517511D01*
X163520500Y-71466000D01*
X163520500Y-71355317D01*
X163520499Y-71355302D01*
X163517643Y-71319008D01*
X163517642Y-71319002D01*
X163472495Y-71163608D01*
X163472492Y-71163600D01*
X163469251Y-71158120D01*
X163452068Y-71090396D01*
X163469250Y-71031880D01*
X163472494Y-71026395D01*
X163479727Y-71001501D01*
X163517642Y-70870997D01*
X163517643Y-70870991D01*
X163520499Y-70834697D01*
X163520500Y-70834690D01*
X163520500Y-70365310D01*
X163519295Y-70350000D01*
X163950000Y-70350000D01*
X164277467Y-70350000D01*
X164277212Y-70347270D01*
X164233405Y-70222079D01*
X164201341Y-70178635D01*
X164177369Y-70113006D01*
X164192684Y-70044836D01*
X164201341Y-70031365D01*
X164233405Y-69987920D01*
X164277212Y-69862727D01*
X164277213Y-69862725D01*
X164277469Y-69860000D01*
X163950000Y-69860000D01*
X163950000Y-70350000D01*
X163519295Y-70350000D01*
X163517643Y-70329007D01*
X163473955Y-70178635D01*
X163472495Y-70173608D01*
X163472492Y-70173600D01*
X163469251Y-70168120D01*
X163452068Y-70100396D01*
X163469250Y-70041880D01*
X163472494Y-70036395D01*
X163473956Y-70031365D01*
X163517642Y-69880997D01*
X163517643Y-69880991D01*
X163517702Y-69880242D01*
X163520500Y-69844690D01*
X163520500Y-69375310D01*
X163519295Y-69360000D01*
X163950000Y-69360000D01*
X164277467Y-69360000D01*
X164277212Y-69357270D01*
X164233405Y-69232080D01*
X164154641Y-69125358D01*
X164047920Y-69046594D01*
X163950000Y-69012330D01*
X163950000Y-69360000D01*
X163519295Y-69360000D01*
X163517643Y-69339007D01*
X163512060Y-69319792D01*
X163472495Y-69183608D01*
X163472492Y-69183600D01*
X163467266Y-69174763D01*
X163462916Y-69158862D01*
X163455023Y-69146580D01*
X163450000Y-69111645D01*
X163450000Y-69012330D01*
X163447842Y-69010799D01*
X163385710Y-69013971D01*
X163326852Y-68981048D01*
X163275692Y-68929887D01*
X163275684Y-68929881D01*
X163136393Y-68847505D01*
X163136390Y-68847504D01*
X162980997Y-68802357D01*
X162980991Y-68802356D01*
X162944697Y-68799500D01*
X162944690Y-68799500D01*
X162755480Y-68799500D01*
X162688441Y-68779815D01*
X162642686Y-68727011D01*
X162631480Y-68675500D01*
X162631480Y-63912385D01*
X162651165Y-63845346D01*
X162703969Y-63799591D01*
X162731311Y-63790763D01*
X162744235Y-63788195D01*
X162897214Y-63724853D01*
X163034895Y-63632880D01*
X163151984Y-63515812D01*
X163243981Y-63378148D01*
X163307351Y-63225180D01*
X163339656Y-63062787D01*
X163339656Y-63059060D01*
X163339657Y-63059057D01*
X163339657Y-62911368D01*
X163339700Y-62911218D01*
X163339699Y-62841588D01*
X163339699Y-62777209D01*
X163307392Y-62614808D01*
X163244019Y-62461832D01*
X163225772Y-62434528D01*
X163152019Y-62324164D01*
X163152017Y-62324161D01*
X163034922Y-62207087D01*
X162897234Y-62115109D01*
X162744247Y-62051764D01*
X162744243Y-62051763D01*
X162731304Y-62049191D01*
X162669389Y-62016814D01*
X162634807Y-61956102D01*
X162631480Y-61927571D01*
X162631480Y-59433801D01*
X162631481Y-59433788D01*
X162631481Y-59265687D01*
X162631481Y-59265685D01*
X162590557Y-59112957D01*
X162554561Y-59050610D01*
X162511500Y-58976026D01*
X162399696Y-58864222D01*
X162399695Y-58864221D01*
X162395365Y-58859891D01*
X162395354Y-58859881D01*
X161411819Y-57876346D01*
X161378334Y-57815023D01*
X161375500Y-57788665D01*
X161375500Y-56012418D01*
X161395185Y-55945379D01*
X161447989Y-55899624D01*
X161509232Y-55888801D01*
X161530819Y-55890500D01*
X161929180Y-55890499D01*
X161965204Y-55887665D01*
X162119393Y-55842869D01*
X162257598Y-55761135D01*
X162328686Y-55690046D01*
X162390006Y-55656562D01*
X162457321Y-55660686D01*
X162500000Y-55675620D01*
X163000000Y-55675620D01*
X163090557Y-55643934D01*
X163196065Y-55566065D01*
X163273933Y-55460559D01*
X163273934Y-55460557D01*
X163317244Y-55336787D01*
X163317244Y-55336785D01*
X163318818Y-55320000D01*
X163000000Y-55320000D01*
X163000000Y-55675620D01*
X162500000Y-55675620D01*
X162500000Y-55330408D01*
X162500004Y-55329404D01*
X162500039Y-55325034D01*
X162500500Y-55319181D01*
X162500499Y-55193999D01*
X162520183Y-55126962D01*
X162572986Y-55081206D01*
X162624499Y-55070000D01*
X162750000Y-55070000D01*
X162750000Y-54944000D01*
X162769685Y-54876961D01*
X162822489Y-54831206D01*
X162874000Y-54820000D01*
X163318818Y-54820000D01*
X163318818Y-54819999D01*
X163317244Y-54803214D01*
X163317244Y-54803212D01*
X163273934Y-54679442D01*
X163273933Y-54679440D01*
X163196064Y-54573934D01*
X163176841Y-54559746D01*
X163134591Y-54504098D01*
X163129134Y-54434442D01*
X163154839Y-54386596D01*
X163152232Y-54384645D01*
X163243793Y-54262335D01*
X163243792Y-54262335D01*
X163243796Y-54262331D01*
X163294091Y-54127483D01*
X163300500Y-54067873D01*
X163300499Y-53418998D01*
X163303049Y-53410313D01*
X163301761Y-53401353D01*
X163312738Y-53377316D01*
X163320183Y-53351961D01*
X163327025Y-53346032D01*
X163330786Y-53337797D01*
X163353017Y-53323510D01*
X163372987Y-53306206D01*
X163383502Y-53303918D01*
X163389564Y-53300023D01*
X163424499Y-53295000D01*
X163426000Y-53295000D01*
X163493039Y-53314685D01*
X163538794Y-53367489D01*
X163550000Y-53419000D01*
X163550000Y-54319999D01*
X163644786Y-54319999D01*
X163644808Y-54319997D01*
X163669869Y-54317091D01*
X163669873Y-54317090D01*
X163772474Y-54271788D01*
X163772479Y-54271785D01*
X163851785Y-54192479D01*
X163851788Y-54192474D01*
X163897089Y-54089877D01*
X163897089Y-54089875D01*
X163899999Y-54064794D01*
X163899999Y-53786812D01*
X163919683Y-53719773D01*
X163972487Y-53674018D01*
X164041646Y-53664074D01*
X164071451Y-53672251D01*
X164119999Y-53692360D01*
X164120000Y-53692360D01*
X164120000Y-53096988D01*
X164129940Y-53114205D01*
X164185795Y-53170060D01*
X164254204Y-53209556D01*
X164330504Y-53230000D01*
X164409496Y-53230000D01*
X164485796Y-53209556D01*
X164554205Y-53170060D01*
X164610060Y-53114205D01*
X164620000Y-53096988D01*
X164620000Y-53692360D01*
X164748934Y-53638954D01*
X164748952Y-53638944D01*
X164879965Y-53551404D01*
X164879973Y-53551398D01*
X164991398Y-53439973D01*
X164991401Y-53439969D01*
X165078947Y-53308948D01*
X165078952Y-53308939D01*
X165139256Y-53163352D01*
X165155750Y-53080430D01*
X165155751Y-53080426D01*
X165169999Y-53008796D01*
X165170000Y-53008794D01*
X165170000Y-52630000D01*
X164670000Y-52630000D01*
X164670000Y-52130000D01*
X165170000Y-52130000D01*
X165170000Y-51753500D01*
X165189685Y-51686461D01*
X165242489Y-51640706D01*
X165294000Y-51629500D01*
X165944331Y-51629500D01*
X165944347Y-51629501D01*
X165951943Y-51629501D01*
X166110054Y-51629501D01*
X166110057Y-51629501D01*
X166262785Y-51588577D01*
X166332692Y-51548216D01*
X166399716Y-51509520D01*
X166511520Y-51397716D01*
X166511520Y-51397714D01*
X166521724Y-51387511D01*
X166521728Y-51387506D01*
X167377819Y-50531415D01*
X167439142Y-50497930D01*
X167508834Y-50502914D01*
G37*
%TD.AperFunction*%
%TA.AperFunction,Conductor*%
G36*
X152472981Y-65526773D02*
G01*
X152495119Y-65544354D01*
X152613181Y-65662416D01*
X152646666Y-65723739D01*
X152649500Y-65750097D01*
X152649500Y-67872642D01*
X152629815Y-67939681D01*
X152577011Y-67985436D01*
X152507853Y-67995380D01*
X152444297Y-67966355D01*
X152414776Y-67925415D01*
X152413769Y-67925929D01*
X152386618Y-67872642D01*
X152315051Y-67732184D01*
X152315049Y-67732181D01*
X152315048Y-67732179D01*
X152190109Y-67560213D01*
X152039786Y-67409890D01*
X151867820Y-67284951D01*
X151678414Y-67188444D01*
X151678413Y-67188443D01*
X151678412Y-67188443D01*
X151649246Y-67178966D01*
X151591571Y-67139529D01*
X151564373Y-67075171D01*
X151576288Y-67006324D01*
X151623532Y-66954849D01*
X151631270Y-66950551D01*
X151762732Y-66883566D01*
X151778532Y-66872085D01*
X151778533Y-66872085D01*
X151289410Y-66382962D01*
X151352993Y-66365925D01*
X151467007Y-66300099D01*
X151560099Y-66207007D01*
X151625925Y-66092993D01*
X151642962Y-66029409D01*
X152132085Y-66518532D01*
X152143568Y-66502730D01*
X152225745Y-66341452D01*
X152225748Y-66341444D01*
X152281682Y-66169293D01*
X152310000Y-65990506D01*
X152310000Y-65809494D01*
X152284965Y-65651433D01*
X152293919Y-65582140D01*
X152338915Y-65528688D01*
X152405667Y-65508048D01*
X152472981Y-65526773D01*
G37*
%TD.AperFunction*%
%TA.AperFunction,Conductor*%
G36*
X160899834Y-60902123D02*
G01*
X160955767Y-60943995D01*
X160980184Y-61009459D01*
X160980500Y-61018305D01*
X160980500Y-67456000D01*
X160978608Y-67462441D01*
X160979812Y-67469049D01*
X160968886Y-67495549D01*
X160960815Y-67523039D01*
X160955741Y-67527435D01*
X160953182Y-67533644D01*
X160929664Y-67550031D01*
X160908011Y-67568794D01*
X160900343Y-67570462D01*
X160895856Y-67573589D01*
X160861133Y-67579913D01*
X160769133Y-67583353D01*
X160738504Y-67575590D01*
X160707484Y-67569555D01*
X160704887Y-67567070D01*
X160701405Y-67566188D01*
X160679832Y-67543094D01*
X160657003Y-67521249D01*
X160656162Y-67517756D01*
X160653709Y-67515130D01*
X160640500Y-67459440D01*
X160640500Y-61635945D01*
X160640500Y-61635943D01*
X160602100Y-61492630D01*
X160599577Y-61483215D01*
X160570639Y-61433095D01*
X160520520Y-61346284D01*
X160444422Y-61270186D01*
X160439459Y-61263712D01*
X160429693Y-61238419D01*
X160416702Y-61214626D01*
X160417296Y-61206310D01*
X160414293Y-61198531D01*
X160419753Y-61171970D01*
X160421687Y-61144935D01*
X160426682Y-61138261D01*
X160428362Y-61130093D01*
X160447311Y-61110704D01*
X160463558Y-61089001D01*
X160471717Y-61085732D01*
X160477198Y-61080125D01*
X160497148Y-61075545D01*
X160517873Y-61067243D01*
X160517765Y-61066815D01*
X160520954Y-61066008D01*
X160523091Y-61065153D01*
X160525469Y-61064867D01*
X160659729Y-61011922D01*
X160781480Y-60919596D01*
X160783686Y-60922505D01*
X160830142Y-60897139D01*
X160899834Y-60902123D01*
G37*
%TD.AperFunction*%
%TA.AperFunction,Conductor*%
G36*
X169912084Y-66518532D02*
G01*
X169915772Y-66518242D01*
X169984149Y-66532606D01*
X170033905Y-66581658D01*
X170049500Y-66641860D01*
X170049500Y-67340242D01*
X170029815Y-67407281D01*
X169977011Y-67453036D01*
X169907853Y-67462980D01*
X169844297Y-67433955D01*
X169837819Y-67427923D01*
X169819786Y-67409890D01*
X169647820Y-67284951D01*
X169458414Y-67188444D01*
X169458413Y-67188443D01*
X169458412Y-67188443D01*
X169429246Y-67178966D01*
X169371571Y-67139529D01*
X169344373Y-67075171D01*
X169356288Y-67006324D01*
X169403532Y-66954849D01*
X169411270Y-66950551D01*
X169542732Y-66883566D01*
X169558532Y-66872085D01*
X169558533Y-66872085D01*
X169069410Y-66382962D01*
X169132993Y-66365925D01*
X169247007Y-66300099D01*
X169340099Y-66207007D01*
X169405925Y-66092993D01*
X169422962Y-66029410D01*
X169912084Y-66518532D01*
G37*
%TD.AperFunction*%
%TA.AperFunction,Conductor*%
G36*
X150694075Y-66092993D02*
G01*
X150759901Y-66207007D01*
X150852993Y-66300099D01*
X150967007Y-66365925D01*
X151030590Y-66382962D01*
X150541466Y-66872085D01*
X150541466Y-66872086D01*
X150557267Y-66883566D01*
X150557275Y-66883571D01*
X150688729Y-66950551D01*
X150739525Y-66998526D01*
X150756320Y-67066347D01*
X150733782Y-67132482D01*
X150679067Y-67175933D01*
X150670761Y-67178964D01*
X150660716Y-67182227D01*
X150641583Y-67188444D01*
X150452179Y-67284951D01*
X150280213Y-67409890D01*
X150280209Y-67409894D01*
X150262181Y-67427923D01*
X150200858Y-67461408D01*
X150131166Y-67456424D01*
X150075233Y-67414552D01*
X150050816Y-67349088D01*
X150050500Y-67340242D01*
X150050500Y-66641861D01*
X150070185Y-66574822D01*
X150122989Y-66529067D01*
X150184229Y-66518243D01*
X150187913Y-66518533D01*
X150677037Y-66029409D01*
X150694075Y-66092993D01*
G37*
%TD.AperFunction*%
%TA.AperFunction,Conductor*%
G36*
X155036881Y-47270185D02*
G01*
X155082636Y-47322989D01*
X155092580Y-47392147D01*
X155072944Y-47443391D01*
X155021052Y-47521051D01*
X155021047Y-47521060D01*
X154960743Y-47666648D01*
X154960741Y-47666656D01*
X154930000Y-47821202D01*
X154930000Y-47950000D01*
X155430000Y-47950000D01*
X155430000Y-48450000D01*
X154930000Y-48450000D01*
X154930000Y-48578797D01*
X154960741Y-48733343D01*
X154960743Y-48733351D01*
X155021047Y-48878939D01*
X155021052Y-48878948D01*
X155108598Y-49009969D01*
X155108601Y-49009973D01*
X155220026Y-49121398D01*
X155220034Y-49121404D01*
X155351047Y-49208944D01*
X155351065Y-49208954D01*
X155479999Y-49262360D01*
X155480000Y-49262360D01*
X155480000Y-48666988D01*
X155489940Y-48684205D01*
X155545795Y-48740060D01*
X155614204Y-48779556D01*
X155690504Y-48800000D01*
X155769496Y-48800000D01*
X155845796Y-48779556D01*
X155914205Y-48740060D01*
X155970060Y-48684205D01*
X155980000Y-48666988D01*
X155980000Y-49262360D01*
X156108934Y-49208954D01*
X156108952Y-49208944D01*
X156239965Y-49121404D01*
X156239973Y-49121398D01*
X156351398Y-49009973D01*
X156351401Y-49009969D01*
X156438947Y-48878948D01*
X156438952Y-48878939D01*
X156499256Y-48733351D01*
X156499258Y-48733343D01*
X156529999Y-48578797D01*
X156530000Y-48578794D01*
X156530000Y-48450000D01*
X156030000Y-48450000D01*
X156030000Y-47950000D01*
X156530000Y-47950000D01*
X156530000Y-47821206D01*
X156529999Y-47821202D01*
X156499258Y-47666656D01*
X156499256Y-47666648D01*
X156438952Y-47521060D01*
X156438947Y-47521051D01*
X156387056Y-47443391D01*
X156366178Y-47376714D01*
X156384662Y-47309333D01*
X156436641Y-47262643D01*
X156490158Y-47250500D01*
X163609842Y-47250500D01*
X163676881Y-47270185D01*
X163722636Y-47322989D01*
X163732580Y-47392147D01*
X163712944Y-47443391D01*
X163661052Y-47521051D01*
X163661047Y-47521060D01*
X163600743Y-47666648D01*
X163600741Y-47666656D01*
X163570000Y-47821202D01*
X163570000Y-47950000D01*
X164070000Y-47950000D01*
X164070000Y-48450000D01*
X163570000Y-48450000D01*
X163570000Y-48578797D01*
X163600741Y-48733343D01*
X163600743Y-48733351D01*
X163661047Y-48878939D01*
X163661052Y-48878948D01*
X163748598Y-49009969D01*
X163748601Y-49009973D01*
X163860026Y-49121398D01*
X163860034Y-49121404D01*
X163991047Y-49208944D01*
X163991065Y-49208954D01*
X164119999Y-49262360D01*
X164120000Y-49262360D01*
X164120000Y-48666988D01*
X164129940Y-48684205D01*
X164185795Y-48740060D01*
X164254204Y-48779556D01*
X164330504Y-48800000D01*
X164409496Y-48800000D01*
X164485796Y-48779556D01*
X164554205Y-48740060D01*
X164610060Y-48684205D01*
X164620000Y-48666988D01*
X164620000Y-49262360D01*
X164748934Y-49208954D01*
X164748952Y-49208944D01*
X164879965Y-49121404D01*
X164879973Y-49121398D01*
X164991398Y-49009973D01*
X164991401Y-49009969D01*
X165078947Y-48878948D01*
X165078952Y-48878939D01*
X165139256Y-48733351D01*
X165139258Y-48733343D01*
X165169999Y-48578797D01*
X165170000Y-48578794D01*
X165170000Y-48450000D01*
X164670000Y-48450000D01*
X164670000Y-47950000D01*
X165170000Y-47950000D01*
X165170000Y-47821206D01*
X165169999Y-47821202D01*
X165139258Y-47666656D01*
X165139256Y-47666648D01*
X165078952Y-47521060D01*
X165078947Y-47521051D01*
X165027056Y-47443391D01*
X165006178Y-47376714D01*
X165024662Y-47309333D01*
X165076641Y-47262643D01*
X165130158Y-47250500D01*
X167664981Y-47250500D01*
X167732020Y-47270185D01*
X167777775Y-47322989D01*
X167787719Y-47392147D01*
X167775466Y-47430795D01*
X167688444Y-47601585D01*
X167622753Y-47803760D01*
X167589500Y-48013713D01*
X167589500Y-48226286D01*
X167622754Y-48436244D01*
X167622754Y-48436247D01*
X167636491Y-48478523D01*
X167638486Y-48548364D01*
X167606241Y-48604522D01*
X165818584Y-50392181D01*
X165757261Y-50425666D01*
X165730903Y-50428500D01*
X162891661Y-50428500D01*
X162891645Y-50428499D01*
X162884049Y-50428499D01*
X162725935Y-50428499D01*
X162618579Y-50457265D01*
X162573202Y-50469424D01*
X162573201Y-50469425D01*
X162523088Y-50498359D01*
X162523087Y-50498360D01*
X162479681Y-50523420D01*
X162436277Y-50548479D01*
X162436274Y-50548481D01*
X161841575Y-51143181D01*
X161780252Y-51176666D01*
X161753894Y-51179500D01*
X158106948Y-51179500D01*
X158066027Y-51190464D01*
X158066027Y-51190465D01*
X158028759Y-51200451D01*
X157954222Y-51220423D01*
X157954217Y-51220426D01*
X157817298Y-51299475D01*
X157817290Y-51299481D01*
X157708007Y-51408765D01*
X157646684Y-51442250D01*
X157576992Y-51437266D01*
X157532645Y-51408765D01*
X157513367Y-51389487D01*
X157513365Y-51389485D01*
X157447750Y-51351602D01*
X157382136Y-51313719D01*
X157308950Y-51294109D01*
X157235766Y-51274500D01*
X157084234Y-51274500D01*
X156937863Y-51313719D01*
X156806635Y-51389485D01*
X156806632Y-51389487D01*
X156699487Y-51496632D01*
X156699481Y-51496641D01*
X156684499Y-51522589D01*
X156633931Y-51570803D01*
X156565324Y-51584024D01*
X156500460Y-51558054D01*
X156462553Y-51508038D01*
X156438954Y-51451064D01*
X156438947Y-51451051D01*
X156351401Y-51320030D01*
X156351398Y-51320026D01*
X156239973Y-51208601D01*
X156239969Y-51208598D01*
X156108948Y-51121052D01*
X156108938Y-51121047D01*
X155980000Y-51067639D01*
X155980000Y-51663011D01*
X155970060Y-51645795D01*
X155914205Y-51589940D01*
X155845796Y-51550444D01*
X155769496Y-51530000D01*
X155690504Y-51530000D01*
X155614204Y-51550444D01*
X155545795Y-51589940D01*
X155489940Y-51645795D01*
X155480000Y-51663011D01*
X155480000Y-51067639D01*
X155479999Y-51067639D01*
X155351061Y-51121047D01*
X155351051Y-51121052D01*
X155220030Y-51208598D01*
X155220026Y-51208601D01*
X155108601Y-51320026D01*
X155108598Y-51320030D01*
X155021052Y-51451051D01*
X155021047Y-51451060D01*
X154960743Y-51596648D01*
X154960741Y-51596656D01*
X154930000Y-51751202D01*
X154930000Y-52130000D01*
X155430000Y-52130000D01*
X155430000Y-52630000D01*
X154930000Y-52630000D01*
X154930000Y-53008797D01*
X154960741Y-53163343D01*
X154960743Y-53163351D01*
X155021047Y-53308939D01*
X155021052Y-53308948D01*
X155108598Y-53439969D01*
X155108601Y-53439973D01*
X155220026Y-53551398D01*
X155220034Y-53551404D01*
X155351047Y-53638944D01*
X155351065Y-53638954D01*
X155479999Y-53692360D01*
X155480000Y-53692360D01*
X155480000Y-53096988D01*
X155489940Y-53114205D01*
X155545795Y-53170060D01*
X155614204Y-53209556D01*
X155690504Y-53230000D01*
X155769496Y-53230000D01*
X155845796Y-53209556D01*
X155914205Y-53170060D01*
X155970060Y-53114205D01*
X155980000Y-53096988D01*
X155980000Y-53692359D01*
X156028547Y-53672251D01*
X156098017Y-53664782D01*
X156160496Y-53696057D01*
X156196148Y-53756146D01*
X156200000Y-53786812D01*
X156200000Y-54064785D01*
X156200002Y-54064808D01*
X156202908Y-54089869D01*
X156202909Y-54089873D01*
X156248211Y-54192474D01*
X156248214Y-54192479D01*
X156268554Y-54212819D01*
X156302039Y-54274142D01*
X156297055Y-54343834D01*
X156255183Y-54399767D01*
X156189719Y-54424184D01*
X156180873Y-54424500D01*
X155901663Y-54424500D01*
X155901644Y-54424501D01*
X155802292Y-54434650D01*
X155802289Y-54434651D01*
X155641305Y-54487996D01*
X155641294Y-54488001D01*
X155496959Y-54577029D01*
X155496955Y-54577032D01*
X155377032Y-54696955D01*
X155367252Y-54712811D01*
X155315302Y-54759534D01*
X155246340Y-54770754D01*
X155186789Y-54746515D01*
X155109727Y-54688076D01*
X154975467Y-54635131D01*
X154891102Y-54625000D01*
X154875000Y-54625000D01*
X154875000Y-56175000D01*
X154891102Y-56175000D01*
X154975467Y-56164868D01*
X154975468Y-56164868D01*
X155109729Y-56111922D01*
X155186789Y-56053485D01*
X155252100Y-56028661D01*
X155320464Y-56043088D01*
X155367253Y-56087190D01*
X155377031Y-56103043D01*
X155496955Y-56222967D01*
X155496959Y-56222970D01*
X155641294Y-56311998D01*
X155641297Y-56311999D01*
X155641303Y-56312003D01*
X155802292Y-56365349D01*
X155901655Y-56375500D01*
X156412402Y-56375499D01*
X156441848Y-56384145D01*
X156471829Y-56390667D01*
X156476842Y-56394419D01*
X156479441Y-56395183D01*
X156500083Y-56411818D01*
X156663181Y-56574916D01*
X156696666Y-56636239D01*
X156699500Y-56662597D01*
X156699500Y-57215701D01*
X156702401Y-57252567D01*
X156702402Y-57252573D01*
X156748254Y-57410393D01*
X156748255Y-57410396D01*
X156748256Y-57410398D01*
X156782732Y-57468694D01*
X156800000Y-57531814D01*
X156800000Y-58187500D01*
X157149999Y-58187500D01*
X157149999Y-57924072D01*
X157169684Y-57857033D01*
X157222488Y-57811278D01*
X157281852Y-57800790D01*
X157281868Y-57800404D01*
X157283644Y-57800473D01*
X157283745Y-57800456D01*
X157284292Y-57800499D01*
X157284295Y-57800499D01*
X157284306Y-57800500D01*
X157525500Y-57800500D01*
X157592539Y-57820185D01*
X157638294Y-57872989D01*
X157649500Y-57924500D01*
X157649500Y-59090701D01*
X157652401Y-59127567D01*
X157652402Y-59127573D01*
X157698254Y-59285393D01*
X157698255Y-59285396D01*
X157780107Y-59423802D01*
X157781919Y-59426865D01*
X157805381Y-59450327D01*
X157838866Y-59511648D01*
X157833883Y-59581340D01*
X157823239Y-59603105D01*
X157737998Y-59741300D01*
X157737996Y-59741305D01*
X157684651Y-59902290D01*
X157674500Y-60001647D01*
X157674500Y-60598337D01*
X157674501Y-60598355D01*
X157684650Y-60697707D01*
X157684651Y-60697710D01*
X157737996Y-60858694D01*
X157738001Y-60858705D01*
X157827029Y-61003040D01*
X157827032Y-61003044D01*
X157946955Y-61122967D01*
X157946959Y-61122970D01*
X158091294Y-61211998D01*
X158091297Y-61211999D01*
X158091303Y-61212003D01*
X158252292Y-61265349D01*
X158351655Y-61275500D01*
X158699902Y-61275499D01*
X158766941Y-61295183D01*
X158787583Y-61311818D01*
X159403181Y-61927416D01*
X159436666Y-61988739D01*
X159439500Y-62015097D01*
X159439500Y-62411844D01*
X159419815Y-62478883D01*
X159367011Y-62524638D01*
X159297853Y-62534582D01*
X159272167Y-62528026D01*
X159187381Y-62496403D01*
X159187373Y-62496401D01*
X159130000Y-62490232D01*
X159130000Y-65089765D01*
X159187375Y-65083598D01*
X159272167Y-65051973D01*
X159341858Y-65046989D01*
X159403181Y-65080474D01*
X159436666Y-65141797D01*
X159439500Y-65168155D01*
X159439500Y-67175500D01*
X159419815Y-67242539D01*
X159367011Y-67288294D01*
X159315500Y-67299500D01*
X158926672Y-67299500D01*
X158859633Y-67279815D01*
X158813878Y-67227011D01*
X158803054Y-67165772D01*
X158805499Y-67134697D01*
X158805500Y-67134690D01*
X158805500Y-66665310D01*
X158802643Y-66629007D01*
X158757494Y-66473605D01*
X158675117Y-66334313D01*
X158675115Y-66334311D01*
X158675112Y-66334307D01*
X158560692Y-66219887D01*
X158560684Y-66219881D01*
X158421393Y-66137505D01*
X158421390Y-66137504D01*
X158265997Y-66092357D01*
X158265991Y-66092356D01*
X158229697Y-66089500D01*
X158229690Y-66089500D01*
X157820310Y-66089500D01*
X157820302Y-66089500D01*
X157784008Y-66092356D01*
X157784002Y-66092357D01*
X157628609Y-66137504D01*
X157628606Y-66137505D01*
X157489318Y-66219879D01*
X157489312Y-66219884D01*
X157438143Y-66271051D01*
X157376819Y-66304534D01*
X157317056Y-66300871D01*
X157315000Y-66302330D01*
X157315000Y-66401645D01*
X157297734Y-66464763D01*
X157292507Y-66473600D01*
X157292504Y-66473608D01*
X157247357Y-66629002D01*
X157247356Y-66629008D01*
X157244500Y-66665302D01*
X157244500Y-66776000D01*
X157224815Y-66843039D01*
X157172011Y-66888794D01*
X157139412Y-66898549D01*
X157013050Y-66918049D01*
X157010631Y-66917726D01*
X156994138Y-66919500D01*
X156590670Y-66919500D01*
X156590654Y-66919499D01*
X156583058Y-66919499D01*
X156424943Y-66919499D01*
X156348579Y-66939961D01*
X156272214Y-66960423D01*
X156272209Y-66960426D01*
X156135290Y-67039475D01*
X156135282Y-67039481D01*
X156005286Y-67169477D01*
X156005285Y-67169479D01*
X156005284Y-67169480D01*
X155947753Y-67227011D01*
X155928861Y-67245903D01*
X155867537Y-67279387D01*
X155824996Y-67281160D01*
X155774413Y-67274501D01*
X155774405Y-67274500D01*
X155774401Y-67274500D01*
X155774394Y-67274500D01*
X155625097Y-67274500D01*
X155558058Y-67254815D01*
X155537416Y-67238181D01*
X155366818Y-67067583D01*
X155333333Y-67006260D01*
X155330499Y-66979902D01*
X155330499Y-66830831D01*
X155330498Y-66830806D01*
X155330217Y-66827236D01*
X155327665Y-66794796D01*
X155285598Y-66649999D01*
X156487530Y-66649999D01*
X156487531Y-66650000D01*
X156815000Y-66650000D01*
X156815000Y-66302330D01*
X156814999Y-66302330D01*
X156717079Y-66336594D01*
X156610358Y-66415358D01*
X156531594Y-66522080D01*
X156487787Y-66647272D01*
X156487786Y-66647274D01*
X156487530Y-66649999D01*
X155285598Y-66649999D01*
X155282869Y-66640607D01*
X155244396Y-66575553D01*
X155241033Y-66567429D01*
X155238206Y-66541086D01*
X155231688Y-66515396D01*
X155234442Y-66506013D01*
X155233578Y-66497958D01*
X155241383Y-66482372D01*
X155248864Y-66456889D01*
X155250325Y-66454419D01*
X155264597Y-66436019D01*
X155264865Y-66435485D01*
X155265136Y-66435323D01*
X155269372Y-66429862D01*
X155320520Y-66378716D01*
X155320521Y-66378714D01*
X155740520Y-65958716D01*
X155819577Y-65821784D01*
X155860501Y-65669057D01*
X155860501Y-65510942D01*
X155860501Y-65503347D01*
X155860500Y-65503329D01*
X155860500Y-64637844D01*
X158180000Y-64637844D01*
X158186401Y-64697372D01*
X158186403Y-64697379D01*
X158236645Y-64832086D01*
X158236649Y-64832093D01*
X158322809Y-64947187D01*
X158322812Y-64947190D01*
X158437906Y-65033350D01*
X158437913Y-65033354D01*
X158572624Y-65083598D01*
X158630000Y-65089765D01*
X158630000Y-64040000D01*
X158180000Y-64040000D01*
X158180000Y-64637844D01*
X155860500Y-64637844D01*
X155860500Y-64459059D01*
X155860501Y-64459046D01*
X155860501Y-64290945D01*
X155860501Y-64290943D01*
X155819577Y-64138215D01*
X155777254Y-64064910D01*
X155740520Y-64001284D01*
X155628716Y-63889480D01*
X155628715Y-63889479D01*
X155624385Y-63885149D01*
X155624374Y-63885139D01*
X155616819Y-63877584D01*
X155583334Y-63816261D01*
X155580500Y-63789903D01*
X155580500Y-62942155D01*
X158180000Y-62942155D01*
X158180000Y-63540000D01*
X158630000Y-63540000D01*
X158630000Y-62490233D01*
X158629999Y-62490232D01*
X158572626Y-62496401D01*
X158572619Y-62496403D01*
X158437913Y-62546645D01*
X158437906Y-62546649D01*
X158322812Y-62632809D01*
X158322809Y-62632812D01*
X158236649Y-62747906D01*
X158236645Y-62747913D01*
X158186403Y-62882620D01*
X158186401Y-62882627D01*
X158180000Y-62942155D01*
X155580500Y-62942155D01*
X155580500Y-62933386D01*
X155578499Y-62911368D01*
X155574086Y-62862804D01*
X155523478Y-62700394D01*
X155435472Y-62554815D01*
X155435470Y-62554813D01*
X155435469Y-62554811D01*
X155315188Y-62434530D01*
X155229914Y-62382980D01*
X155169606Y-62346522D01*
X155007196Y-62295914D01*
X155007194Y-62295913D01*
X155007192Y-62295913D01*
X154957778Y-62291423D01*
X154936616Y-62289500D01*
X154423384Y-62289500D01*
X154423383Y-62289500D01*
X154386719Y-62292831D01*
X154318174Y-62279293D01*
X154267829Y-62230846D01*
X154251500Y-62169340D01*
X154251500Y-60860059D01*
X154251501Y-60860046D01*
X154251501Y-60691945D01*
X154251501Y-60691943D01*
X154210577Y-60539215D01*
X154160531Y-60452533D01*
X154131520Y-60402284D01*
X154019716Y-60290480D01*
X154015385Y-60286149D01*
X154015374Y-60286139D01*
X152808431Y-59079196D01*
X155950001Y-59079196D01*
X155952851Y-59109606D01*
X155997653Y-59237645D01*
X156078207Y-59346792D01*
X156187354Y-59427346D01*
X156300000Y-59466761D01*
X156300000Y-59466760D01*
X156800000Y-59466760D01*
X156912645Y-59427346D01*
X157021792Y-59346792D01*
X157102346Y-59237645D01*
X157147149Y-59109604D01*
X157147149Y-59109600D01*
X157150000Y-59079206D01*
X157150000Y-58687500D01*
X156800000Y-58687500D01*
X156800000Y-59466760D01*
X156300000Y-59466760D01*
X156300000Y-58687500D01*
X155950001Y-58687500D01*
X155950001Y-59079196D01*
X152808431Y-59079196D01*
X152493757Y-58764522D01*
X152486462Y-58751163D01*
X152475250Y-58740872D01*
X152470059Y-58721122D01*
X152460272Y-58703199D01*
X152461083Y-58686974D01*
X152457489Y-58673298D01*
X152463507Y-58638525D01*
X152477246Y-58596243D01*
X152510500Y-58386287D01*
X152510500Y-58173713D01*
X152477246Y-57963757D01*
X152422671Y-57795793D01*
X155950000Y-57795793D01*
X155950000Y-58187500D01*
X156300000Y-58187500D01*
X156300000Y-57408237D01*
X156299999Y-57408237D01*
X156187355Y-57447653D01*
X156078207Y-57528207D01*
X155997653Y-57637354D01*
X155952850Y-57765395D01*
X155952850Y-57765399D01*
X155950000Y-57795793D01*
X152422671Y-57795793D01*
X152411557Y-57761588D01*
X152315051Y-57572184D01*
X152315049Y-57572181D01*
X152315048Y-57572179D01*
X152190109Y-57400213D01*
X152039786Y-57249890D01*
X151867820Y-57124951D01*
X151867115Y-57124591D01*
X151859054Y-57120485D01*
X151808259Y-57072512D01*
X151791463Y-57004692D01*
X151813999Y-56938556D01*
X151859054Y-56899515D01*
X151867816Y-56895051D01*
X151943921Y-56839758D01*
X152039786Y-56770109D01*
X152039788Y-56770106D01*
X152039792Y-56770104D01*
X152190104Y-56619792D01*
X152190106Y-56619788D01*
X152190109Y-56619786D01*
X152315048Y-56447820D01*
X152315047Y-56447820D01*
X152315051Y-56447816D01*
X152411557Y-56258412D01*
X152477246Y-56056243D01*
X152510500Y-55846287D01*
X152510500Y-55691102D01*
X153875000Y-55691102D01*
X153885131Y-55775467D01*
X153885131Y-55775468D01*
X153938077Y-55909729D01*
X154025278Y-56024721D01*
X154140270Y-56111922D01*
X154274532Y-56164868D01*
X154358898Y-56175000D01*
X154375000Y-56175000D01*
X154375000Y-55650000D01*
X153875000Y-55650000D01*
X153875000Y-55691102D01*
X152510500Y-55691102D01*
X152510500Y-55633713D01*
X152510500Y-55633712D01*
X152508017Y-55618035D01*
X152499786Y-55566065D01*
X152477246Y-55423757D01*
X152411557Y-55221588D01*
X152354138Y-55108897D01*
X153875000Y-55108897D01*
X153875000Y-55150000D01*
X154375000Y-55150000D01*
X154375000Y-54625000D01*
X154358898Y-54625000D01*
X154274532Y-54635131D01*
X154274531Y-54635131D01*
X154140270Y-54688077D01*
X154025278Y-54775278D01*
X153938077Y-54890270D01*
X153885131Y-55024531D01*
X153885131Y-55024532D01*
X153875000Y-55108897D01*
X152354138Y-55108897D01*
X152315051Y-55032184D01*
X152315049Y-55032181D01*
X152315048Y-55032179D01*
X152190109Y-54860213D01*
X152039786Y-54709890D01*
X151867820Y-54584951D01*
X151678414Y-54488444D01*
X151678413Y-54488443D01*
X151678412Y-54488443D01*
X151649246Y-54478966D01*
X151591571Y-54439529D01*
X151564373Y-54375171D01*
X151576288Y-54306324D01*
X151623532Y-54254849D01*
X151631270Y-54250551D01*
X151762732Y-54183566D01*
X151778532Y-54172085D01*
X151778533Y-54172085D01*
X151289410Y-53682962D01*
X151352993Y-53665925D01*
X151467007Y-53600099D01*
X151560099Y-53507007D01*
X151625925Y-53392993D01*
X151642962Y-53329410D01*
X152132085Y-53818533D01*
X152132085Y-53818532D01*
X152143568Y-53802730D01*
X152225745Y-53641452D01*
X152225748Y-53641444D01*
X152281682Y-53469293D01*
X152310000Y-53290506D01*
X152310000Y-53109493D01*
X152281682Y-52930706D01*
X152225748Y-52758555D01*
X152225747Y-52758552D01*
X152162759Y-52634933D01*
X152143571Y-52597275D01*
X152143566Y-52597267D01*
X152132085Y-52581466D01*
X151642962Y-53070589D01*
X151625925Y-53007007D01*
X151560099Y-52892993D01*
X151467007Y-52799901D01*
X151352993Y-52734075D01*
X151289409Y-52717037D01*
X151778533Y-52227913D01*
X151762727Y-52216429D01*
X151631269Y-52149447D01*
X151580474Y-52101473D01*
X151563679Y-52033651D01*
X151586217Y-51967517D01*
X151640932Y-51924066D01*
X151649216Y-51921043D01*
X151678412Y-51911557D01*
X151867816Y-51815051D01*
X151943921Y-51759758D01*
X152039786Y-51690109D01*
X152039788Y-51690106D01*
X152039792Y-51690104D01*
X152190104Y-51539792D01*
X152190106Y-51539788D01*
X152190109Y-51539786D01*
X152315048Y-51367820D01*
X152315047Y-51367820D01*
X152315051Y-51367816D01*
X152411557Y-51178412D01*
X152477246Y-50976243D01*
X152510500Y-50766287D01*
X152510500Y-50553713D01*
X152477246Y-50343757D01*
X152411557Y-50141588D01*
X152315051Y-49952184D01*
X152315049Y-49952181D01*
X152315048Y-49952179D01*
X152190109Y-49780213D01*
X152076569Y-49666673D01*
X152043084Y-49605350D01*
X152048068Y-49535658D01*
X152089940Y-49479725D01*
X152120915Y-49462810D01*
X152252331Y-49413796D01*
X152367546Y-49327546D01*
X152453796Y-49212331D01*
X152504091Y-49077483D01*
X152510500Y-49017873D01*
X152510499Y-48013713D01*
X152510499Y-47374500D01*
X152530183Y-47307461D01*
X152582987Y-47261706D01*
X152634499Y-47250500D01*
X154969842Y-47250500D01*
X155036881Y-47270185D01*
G37*
%TD.AperFunction*%
%TA.AperFunction,Conductor*%
G36*
X150255703Y-64366045D02*
G01*
X150262181Y-64372077D01*
X150280213Y-64390109D01*
X150452179Y-64515048D01*
X150452181Y-64515049D01*
X150452184Y-64515051D01*
X150641588Y-64611557D01*
X150670753Y-64621033D01*
X150728426Y-64660468D01*
X150755625Y-64724826D01*
X150743712Y-64793673D01*
X150696469Y-64845149D01*
X150688730Y-64849447D01*
X150557269Y-64916431D01*
X150541466Y-64927912D01*
X150541466Y-64927913D01*
X151030590Y-65417037D01*
X150967007Y-65434075D01*
X150852993Y-65499901D01*
X150759901Y-65592993D01*
X150694075Y-65707007D01*
X150677037Y-65770590D01*
X150187913Y-65281466D01*
X150184229Y-65281756D01*
X150115852Y-65267392D01*
X150066095Y-65218340D01*
X150050500Y-65158138D01*
X150050500Y-64459758D01*
X150070185Y-64392719D01*
X150122989Y-64346964D01*
X150192147Y-64337020D01*
X150255703Y-64366045D01*
G37*
%TD.AperFunction*%
%TA.AperFunction,Conductor*%
G36*
X169968834Y-64343576D02*
G01*
X170024767Y-64385448D01*
X170049184Y-64450912D01*
X170049500Y-64459758D01*
X170049500Y-65158138D01*
X170029815Y-65225177D01*
X169977011Y-65270932D01*
X169915773Y-65281756D01*
X169912086Y-65281465D01*
X169422962Y-65770589D01*
X169405925Y-65707007D01*
X169340099Y-65592993D01*
X169247007Y-65499901D01*
X169132993Y-65434075D01*
X169069409Y-65417037D01*
X169558533Y-64927913D01*
X169542727Y-64916429D01*
X169411269Y-64849447D01*
X169360474Y-64801473D01*
X169343679Y-64733651D01*
X169366217Y-64667517D01*
X169420932Y-64624066D01*
X169429216Y-64621043D01*
X169458412Y-64611557D01*
X169647816Y-64515051D01*
X169724901Y-64459046D01*
X169819786Y-64390109D01*
X169819788Y-64390106D01*
X169819792Y-64390104D01*
X169837819Y-64372077D01*
X169899142Y-64338592D01*
X169968834Y-64343576D01*
G37*
%TD.AperFunction*%
%TA.AperFunction,Conductor*%
G36*
X159653039Y-55069685D02*
G01*
X159698794Y-55122489D01*
X159710000Y-55174000D01*
X159710000Y-55676668D01*
X159715538Y-55683686D01*
X159724500Y-55729969D01*
X159724500Y-58188460D01*
X159724499Y-58188478D01*
X159724499Y-58354184D01*
X159724498Y-58354184D01*
X159724499Y-58354187D01*
X159765423Y-58506915D01*
X159768228Y-58511773D01*
X159768231Y-58511786D01*
X159768235Y-58511785D01*
X159844477Y-58643842D01*
X159844481Y-58643847D01*
X159963349Y-58762715D01*
X159963355Y-58762720D01*
X160513954Y-59313319D01*
X160547439Y-59374642D01*
X160542455Y-59444334D01*
X160500583Y-59500267D01*
X160435119Y-59524684D01*
X160426273Y-59525000D01*
X160425000Y-59525000D01*
X160425000Y-60176000D01*
X160405315Y-60243039D01*
X160352511Y-60288794D01*
X160301000Y-60300000D01*
X160049000Y-60300000D01*
X159981961Y-60280315D01*
X159936206Y-60227511D01*
X159925000Y-60176000D01*
X159925000Y-59525000D01*
X159908898Y-59525000D01*
X159824532Y-59535131D01*
X159824531Y-59535131D01*
X159690270Y-59588077D01*
X159613209Y-59646515D01*
X159547898Y-59671338D01*
X159479534Y-59656910D01*
X159432745Y-59612807D01*
X159422968Y-59596956D01*
X159303045Y-59477033D01*
X159303044Y-59477032D01*
X159248940Y-59443660D01*
X159202218Y-59391714D01*
X159190995Y-59322751D01*
X159200243Y-59288863D01*
X159201739Y-59285405D01*
X159201744Y-59285398D01*
X159201746Y-59285389D01*
X159201748Y-59285386D01*
X159247597Y-59127573D01*
X159247598Y-59127567D01*
X159248748Y-59112955D01*
X159250500Y-59090694D01*
X159250500Y-57784306D01*
X159247598Y-57747431D01*
X159224544Y-57668081D01*
X159201745Y-57589606D01*
X159201744Y-57589603D01*
X159201744Y-57589602D01*
X159118081Y-57448135D01*
X159118079Y-57448133D01*
X159118076Y-57448129D01*
X159001870Y-57331923D01*
X159001862Y-57331917D01*
X158871044Y-57254552D01*
X158860398Y-57248256D01*
X158860397Y-57248255D01*
X158860396Y-57248255D01*
X158860393Y-57248254D01*
X158702573Y-57202402D01*
X158702567Y-57202401D01*
X158665701Y-57199500D01*
X158665694Y-57199500D01*
X158424500Y-57199500D01*
X158357461Y-57179815D01*
X158311706Y-57127011D01*
X158300500Y-57075500D01*
X158300500Y-55994499D01*
X158320185Y-55927460D01*
X158372989Y-55881705D01*
X158424500Y-55870499D01*
X158639168Y-55870499D01*
X158639180Y-55870499D01*
X158675204Y-55867665D01*
X158829393Y-55822869D01*
X158967598Y-55741135D01*
X159038686Y-55670046D01*
X159100006Y-55636562D01*
X159167321Y-55640686D01*
X159210000Y-55655620D01*
X159210000Y-55310408D01*
X159210001Y-55309954D01*
X159210018Y-55305305D01*
X159210500Y-55299181D01*
X159210500Y-55173546D01*
X159220417Y-55140218D01*
X159230183Y-55106961D01*
X159230361Y-55106806D01*
X159230429Y-55106579D01*
X159256834Y-55083867D01*
X159282987Y-55061206D01*
X159283247Y-55061149D01*
X159283400Y-55061018D01*
X159284666Y-55060840D01*
X159334499Y-55050000D01*
X159586000Y-55050000D01*
X159653039Y-55069685D01*
G37*
%TD.AperFunction*%
%TA.AperFunction,Conductor*%
G36*
X169912084Y-58898532D02*
G01*
X169915772Y-58898242D01*
X169984149Y-58912606D01*
X170033905Y-58961658D01*
X170049500Y-59021860D01*
X170049500Y-59720242D01*
X170029815Y-59787281D01*
X169977011Y-59833036D01*
X169907853Y-59842980D01*
X169844297Y-59813955D01*
X169837819Y-59807923D01*
X169819786Y-59789890D01*
X169647820Y-59664951D01*
X169458414Y-59568444D01*
X169458413Y-59568443D01*
X169458412Y-59568443D01*
X169429246Y-59558966D01*
X169371571Y-59519529D01*
X169344373Y-59455171D01*
X169356288Y-59386324D01*
X169403532Y-59334849D01*
X169411270Y-59330551D01*
X169542732Y-59263566D01*
X169558532Y-59252085D01*
X169558533Y-59252085D01*
X169069410Y-58762962D01*
X169132993Y-58745925D01*
X169247007Y-58680099D01*
X169340099Y-58587007D01*
X169405925Y-58472993D01*
X169422962Y-58409410D01*
X169912084Y-58898532D01*
G37*
%TD.AperFunction*%
%TA.AperFunction,Conductor*%
G36*
X169968834Y-56723576D02*
G01*
X170024767Y-56765448D01*
X170049184Y-56830912D01*
X170049500Y-56839758D01*
X170049500Y-57538138D01*
X170029815Y-57605177D01*
X169977011Y-57650932D01*
X169915773Y-57661756D01*
X169912086Y-57661465D01*
X169422962Y-58150589D01*
X169405925Y-58087007D01*
X169340099Y-57972993D01*
X169247007Y-57879901D01*
X169132993Y-57814075D01*
X169069409Y-57797037D01*
X169558533Y-57307913D01*
X169542727Y-57296429D01*
X169411269Y-57229447D01*
X169360474Y-57181473D01*
X169343679Y-57113651D01*
X169366217Y-57047517D01*
X169420932Y-57004066D01*
X169429216Y-57001043D01*
X169458412Y-56991557D01*
X169647816Y-56895051D01*
X169723921Y-56839758D01*
X169819786Y-56770109D01*
X169819788Y-56770106D01*
X169819792Y-56770104D01*
X169837819Y-56752077D01*
X169899142Y-56718592D01*
X169968834Y-56723576D01*
G37*
%TD.AperFunction*%
%TA.AperFunction,Conductor*%
G36*
X169912084Y-53818532D02*
G01*
X169915772Y-53818242D01*
X169984149Y-53832606D01*
X170033905Y-53881658D01*
X170049500Y-53941860D01*
X170049500Y-54640242D01*
X170029815Y-54707281D01*
X169977011Y-54753036D01*
X169907853Y-54762980D01*
X169844297Y-54733955D01*
X169837819Y-54727923D01*
X169819786Y-54709890D01*
X169647820Y-54584951D01*
X169458414Y-54488444D01*
X169458413Y-54488443D01*
X169458412Y-54488443D01*
X169429246Y-54478966D01*
X169371571Y-54439529D01*
X169344373Y-54375171D01*
X169356288Y-54306324D01*
X169403532Y-54254849D01*
X169411270Y-54250551D01*
X169542732Y-54183566D01*
X169558532Y-54172085D01*
X169558533Y-54172085D01*
X169069410Y-53682962D01*
X169132993Y-53665925D01*
X169247007Y-53600099D01*
X169340099Y-53507007D01*
X169405925Y-53392993D01*
X169422962Y-53329410D01*
X169912084Y-53818532D01*
G37*
%TD.AperFunction*%
%TA.AperFunction,Conductor*%
G36*
X150694075Y-53392993D02*
G01*
X150759901Y-53507007D01*
X150852993Y-53600099D01*
X150967007Y-53665925D01*
X151030590Y-53682962D01*
X150541466Y-54172085D01*
X150541466Y-54172086D01*
X150557267Y-54183566D01*
X150557275Y-54183571D01*
X150688729Y-54250551D01*
X150739525Y-54298526D01*
X150756320Y-54366347D01*
X150733782Y-54432482D01*
X150679067Y-54475933D01*
X150670761Y-54478964D01*
X150660716Y-54482227D01*
X150641583Y-54488444D01*
X150452179Y-54584951D01*
X150280213Y-54709890D01*
X150280209Y-54709894D01*
X150262181Y-54727923D01*
X150200858Y-54761408D01*
X150131166Y-54756424D01*
X150075233Y-54714552D01*
X150050816Y-54649088D01*
X150050500Y-54640242D01*
X150050500Y-53941861D01*
X150070185Y-53874822D01*
X150122989Y-53829067D01*
X150184229Y-53818243D01*
X150187913Y-53818533D01*
X150677037Y-53329409D01*
X150694075Y-53392993D01*
G37*
%TD.AperFunction*%
%TA.AperFunction,Conductor*%
G36*
X156742539Y-53064685D02*
G01*
X156788294Y-53117489D01*
X156799500Y-53169000D01*
X156799500Y-54067870D01*
X156799501Y-54067876D01*
X156805908Y-54127483D01*
X156856202Y-54262328D01*
X156856204Y-54262331D01*
X156905464Y-54328134D01*
X156929881Y-54393598D01*
X156915029Y-54461871D01*
X156865624Y-54511277D01*
X156797351Y-54526129D01*
X156741100Y-54507983D01*
X156708705Y-54488001D01*
X156708699Y-54487998D01*
X156708697Y-54487997D01*
X156634996Y-54463575D01*
X156577551Y-54423802D01*
X156550728Y-54359286D01*
X156550000Y-54345869D01*
X156550000Y-53545000D01*
X156194000Y-53545000D01*
X156126961Y-53525315D01*
X156081206Y-53472511D01*
X156070000Y-53421000D01*
X156070000Y-53169000D01*
X156089685Y-53101961D01*
X156142489Y-53056206D01*
X156194000Y-53045000D01*
X156675500Y-53045000D01*
X156742539Y-53064685D01*
G37*
%TD.AperFunction*%
%TA.AperFunction,Conductor*%
G36*
X150255703Y-51666045D02*
G01*
X150262181Y-51672077D01*
X150280213Y-51690109D01*
X150452179Y-51815048D01*
X150452181Y-51815049D01*
X150452184Y-51815051D01*
X150641588Y-51911557D01*
X150670753Y-51921033D01*
X150728426Y-51960468D01*
X150755625Y-52024826D01*
X150743712Y-52093673D01*
X150696469Y-52145149D01*
X150688730Y-52149447D01*
X150557269Y-52216431D01*
X150541466Y-52227912D01*
X150541466Y-52227913D01*
X151030591Y-52717037D01*
X150967007Y-52734075D01*
X150852993Y-52799901D01*
X150759901Y-52892993D01*
X150694075Y-53007007D01*
X150677037Y-53070590D01*
X150187913Y-52581466D01*
X150184229Y-52581756D01*
X150115852Y-52567392D01*
X150066095Y-52518340D01*
X150050500Y-52458138D01*
X150050500Y-51759758D01*
X150070185Y-51692719D01*
X150122989Y-51646964D01*
X150192147Y-51637020D01*
X150255703Y-51666045D01*
G37*
%TD.AperFunction*%
%TA.AperFunction,Conductor*%
G36*
X169968834Y-51643576D02*
G01*
X170024767Y-51685448D01*
X170049184Y-51750912D01*
X170049500Y-51759758D01*
X170049500Y-52458138D01*
X170029815Y-52525177D01*
X169977011Y-52570932D01*
X169915773Y-52581756D01*
X169912086Y-52581465D01*
X169422962Y-53070589D01*
X169405925Y-53007007D01*
X169340099Y-52892993D01*
X169247007Y-52799901D01*
X169132993Y-52734075D01*
X169069409Y-52717037D01*
X169558533Y-52227913D01*
X169542727Y-52216429D01*
X169411269Y-52149447D01*
X169360474Y-52101473D01*
X169343679Y-52033651D01*
X169366217Y-51967517D01*
X169420932Y-51924066D01*
X169429216Y-51921043D01*
X169458412Y-51911557D01*
X169647816Y-51815051D01*
X169723921Y-51759758D01*
X169819786Y-51690109D01*
X169819788Y-51690106D01*
X169819792Y-51690104D01*
X169837819Y-51672077D01*
X169899142Y-51638592D01*
X169968834Y-51643576D01*
G37*
%TD.AperFunction*%
%TD*%
M02*
